/* XPM */
static char *_c46e89e7d4b4229c16524a9e22cc07biEwHlFEc4sI1lL2G[] = {
/* columns rows colors chars-per-pixel */
"64 64 256 2 ",
"   c #4D3937",
".  c #39394F",
"X  c #57384C",
"o  c #693B5B",
"O  c #71334F",
"+  c #713D65",
"@  c #543A60",
"#  c #524652",
"$  c #6B4C53",
"%  c #545A79",
"&  c #514F6B",
"*  c #674765",
"=  c #784668",
"-  c #6A5667",
";  c #695A75",
":  c #7B5877",
">  c #775569",
",  c #6C6778",
"<  c #786C76",
"1  c #71655D",
"2  c #3C476A",
"3  c #993B4B",
"4  c #8C384D",
"5  c #A63C4E",
"6  c #8E3A6B",
"7  c #91465C",
"8  c #A74959",
"9  c #B84F5C",
"0  c #88496A",
"q  c #964C67",
"w  c #88556D",
"e  c #895874",
"r  c #975877",
"t  c #904C74",
"y  c #AA5A71",
"u  c #96657A",
"i  c #857C7C",
"p  c #906B73",
"a  c #A7667B",
"s  c #B7747C",
"d  c #AD7171",
"f  c #86605D",
"g  c #CB5A6D",
"h  c #D66675",
"j  c #CF6974",
"k  c #E6747A",
"l  c #B8977B",
"z  c #B08C77",
"x  c #9A8079",
"c  c #C89A7C",
"v  c #C8A37E",
"b  c #766E8A",
"n  c #5B6487",
"m  c #925586",
"M  c #B95988",
"N  c #996987",
"B  c #887788",
"V  c #977988",
"C  c #977A98",
"Z  c #8F7097",
"A  c #A86985",
"S  c #B76B86",
"D  c #A87587",
"F  c #B9778B",
"G  c #B97A97",
"H  c #AB7198",
"J  c #9570A6",
"K  c #A875A7",
"L  c #9754A8",
"P  c #C25D90",
"I  c #C47A8B",
"U  c #D8689A",
"Y  c #C57E93",
"T  c #D06F8F",
"R  c #DE769D",
"E  c #B662C9",
"W  c #BF5FD1",
"Q  c #C96BC2",
"!  c #7D828F",
"~  c #8A8387",
"^  c #97888A",
"/  c #998996",
"(  c #9E9999",
")  c #999495",
"_  c #80809E",
"`  c #A58888",
"'  c #B68786",
"]  c #B89A86",
"[  c #A68897",
"{  c #B78895",
"}  c #A29D9D",
"|  c #A79498",
" . c #B89896",
".. c #AC938A",
"X. c #B9A59B",
"o. c #B7A196",
"O. c #968AAA",
"+. c #9894AC",
"@. c #978AB3",
"#. c #9B94BC",
"$. c #9A93B7",
"%. c #8E87A6",
"&. c #A58AA7",
"*. c #B787A7",
"=. c #A898A7",
"-. c #B999A6",
";. c #A689B2",
":. c #A598B8",
">. c #B995BA",
",. c #B587B5",
"<. c #AAA5A5",
"1. c #ADAAAA",
"2. c #A7A2A6",
"3. c #B2ADAC",
"4. c #B7A5A9",
"5. c #B9B2AE",
"6. c #AAA4BA",
"7. c #B8A8B9",
"8. c #B5B3B3",
"9. c #BAB6B5",
"0. c #BDBBBA",
"q. c #BCB5B8",
"w. c #9FA1AA",
"e. c #C58989",
"r. c #C59989",
"t. c #CD8B99",
"y. c #C88694",
"u. c #D38B96",
"i. c #C89797",
"p. c #D4949B",
"a. c #DA9B9D",
"s. c #D69599",
"d. c #D89987",
"f. c #EA9092",
"g. c #C8A789",
"h. c #D7AC8A",
"j. c #C7A799",
"k. c #DCAE94",
"l. c #D4A89A",
"z. c #DEB194",
"x. c #DBB69B",
"c. c #D1B394",
"v. c #E1B495",
"b. c #C799A6",
"n. c #D999A4",
"m. c #CE8DB0",
"M. c #E48DB3",
"N. c #C5A4A3",
"B. c #CCA6A4",
"V. c #CAA6AB",
"C. c #CDAAAD",
"Z. c #C4A9A6",
"A. c #D8A7A6",
"S. c #CAB5A9",
"D. c #D6B7A8",
"F. c #C9AAB4",
"G. c #D5ABB3",
"H. c #D5A9BB",
"J. c #C1BDBD",
"K. c #C7B8B5",
"L. c #DAB2B2",
"P. c #D7B7B9",
"I. c #E4AAA6",
"U. c #E9B2AC",
"Y. c #E9B8B5",
"T. c #E8AEB6",
"R. c #DDC8AB",
"E. c #C9C2B9",
"W. c #D9C9B8",
"Q. c #DCD1BD",
"!. c #D6CFAD",
"~. c #E6C8B7",
"^. c #E9D8B8",
"/. c #F3DBBA",
"(. c #E5D1AC",
"). c #F4E4BB",
"_. c #F5EBBC",
"`. c #F9EDBC",
"'. c #FBF5BC",
"]. c #EEE4BA",
"[. c #E5C599",
"{. c #A59AC2",
"}. c #BC9AC2",
"|. c #B88EC8",
" X c #ABA4C5",
".X c #A9A5C7",
"XX c #B5A8C5",
"oX c #BCB5C6",
"OX c #B8B6D4",
"+X c #C39AC1",
"@X c #CE92CF",
"#X c #C7A8C8",
"$X c #DAABC8",
"%X c #C6B8C7",
"&X c #D7B9C6",
"*X c #C6BCD2",
"=X c #CFACD7",
"-X c #E5ACCA",
";X c #E6B7CB",
":X c #E6B7D6",
">X c #F5B1CF",
",X c #D7ACE3",
"<X c #E6A8DB",
"1X c #BDC1D6",
"2X c #97C3D4",
"3X c #C4C3C3",
"4X c #CCCBCB",
"5X c #CAC5C8",
"6X c #D2CDCD",
"7X c #D8C9C7",
"8X c #D8D3C9",
"9X c #CBC7D5",
"0X c #D6CAD5",
"qX c #D3D2D3",
"wX c #DAD4D5",
"eX c #DCDBDB",
"rX c #D9D5DA",
"tX c #CDD1CE",
"yX c #E7C9C6",
"uX c #E5D5C9",
"iX c #E6C8D5",
"pX c #FAC3DA",
"aX c #E3DADD",
"sX c #E8D8D6",
"dX c #F4D4CB",
"fX c #F5EBC4",
"gX c #FBF3C3",
"hX c #FEFAC4",
"jX c #FEFDCB",
"kX c #F9F4C9",
"lX c #ECE4D9",
"zX c #F4E7DA",
"xX c #EFE9CC",
"cX c #D9C9E6",
"vX c #D9D7E3",
"bX c #F6CCE4",
"nX c #FDD5EB",
"mX c #EAD7EC",
"MX c #DDE6E8",
"NX c #E4E3E4",
"BX c #ECEBEB",
"VX c #E9E6E6",
"CX c #F3EEEC",
"ZX c #F5EBE6",
"AX c #FEF6EB",
"SX c #FEF9ED",
"DX c #F8F2E8",
"FX c #F1EEF1",
"GX c #F4F4F3",
"HX c #FDFBF4",
"JX c white",
"KX c #FEFEFE",
"LX c #FDFDFD",
"PX c #FEFEFE",
"IX c #F7F7F5",
"UX c #EEEFF2",
/* pixels */
"VXLXLXLXPXPXPXPXPXPXPXPXPXPXPXPXPXPXPXPXPXPXPXPXPXPXPXPXPXPXPXPXPXPXPXPXPXPXPXPXPXPXPXPXPXPXPXPXPXPXPXqXVXVXoXPXPXPXPXPXPXPXPXPX",
"NXrXBXPXPXPXPXPXPXPXPXPXPXPXPXPXPXPXPXPXPXPXPXPXPXPXPXPXPXPXPXPXPXPXPXPXPXPXPXPXPXPXPXPXPXPXPXPXPXPXPXBX4X3XNXLXPXPXPXPXPXPXPXeX",
"VXMX4XNXeXLXPXPXPXPXPXPXPXPXPXPXPXPXPXPXPXPXPXPXPXPXPXPXPXPXPXPXPXPXPXPXPXPXPXPXPXPXPXPXPXPXPXPXPXPXPXPX4X5XLXPXPXPXPXPXLXIXGX2.",
"eX4X4X8.NXBXPXPXPXPXPXPXPXPXPXPXPXPXPXPXPXPXPXPXPXPXPXPXPXPXPXPXPXPXPXPXPXPXPXPXPXPXPXPXPXPXPXPXPXPXPXPXeX4XPXPXPXPXPXPXqX0.LX8.",
"LXPXPX3XqX5XwXqXqXUXLXLXPXPXPXPXPXPXPXPXPXPXPXPXPXPXPXPXPXPXPXPXPXPXPXPXPXPXPXVXPXPXPXPXPXPXPXPXPXPXPXBX3X4XGXPXLXLXLXLX0.1.tX0.",
"PXPXPXPXNXeX8X1XBX0.VXBXIXPXPXPXPXPXPXPXPXPXPXPXPXPXPXPXPXPXPXPXPXPXPXPXPXPXuX[.7XPXPXPXPXPXPXPXPXPXPXeXNXVXeXPXLXIXUXLX3X<.) oX",
"PXPXPXPXLXPXPXeXtX0.<.3XNXVXPXPXPXPXPXPXPXPXPXPXPXPXPXPXPXPXPXPXPXPXPXPXLXLXA.r.p uXHXDXIXPXPXPXPXPXPXwXIXPXeXIXPXrXtXLXeX) w.BX",
"PXPXPXPXLXPXPXPXIXLXqXtXvX9.qXeXGXPXPXPXPXPXPXPXPXPXPXPXPXPXPXPXPXPXPXLXLXLXl d !._._.`._.ZXPXPXPXPXGXBXPXPXVXBXPXtX4X0.tXJ.LXLX",
"PXPXPXPXPXPXPXPXLXLXPXGXeXeX9.vX4XNXUXLXPXPXPXPXPXPXPXPXPXPXPXPXPXPXPXLXLXLXW.].`.'.'.gXgX).NXLXLXIXNXGXPXPXIXMXPXBX1X1.eXLXLXtX",
"PXPXPXPXPXPXPXPXPXPXPXPXPXPXGXwXE.1XeXeXIXPXPXPXPXPXPXPXPXPXPXPXPXPXPX^.zXGXgX'.uX).jXgXgX_.yXGXIXfX_.fXLXLXLXqXBXeX1.8.HXBXLX8.",
"PXPXPXPXPXPXPXPXPXPXPXPXPXPXPXPXPXVXNXqXqXNXVXIXPXPXPXPXPXPXPXPXPXIXxX&X^.fX'.fXSXDXfXfX`.fXyXuX^.!.W.xXlXPXlXtXqX1.1X8XW.X.4.^ ",
"PXPXPXPXPXPXPXPXPXPXPXPXPXPXPXPXPXPXIXBXBXUXNXeXBXGXPXPXPXPXLXLXPXjX'.Q.7X_.fXAXSXSXSXZX^.hX7XH.*.#X^.'.xXPXHX4X9.} X.g.o.c.l l ",
"PXPXPXPXPXPXPXPXPXPXPXPXPXPXPXPXPXPXPXPXPXLXGX8XW.7X6XUXIXLXLXLXLXW._.xXyX`.DXHXSXSXSXHXDX'.dXH.*.m.-XfX'.DXIXR.g.l g.] g.] ] l ",
"PXPXPXPXPXPXPXPXPXPXPXPXPXPXPXPXPXPXPXPXPXPXuXg.c.x.g.] 3.E.S.E.LXwXP.pXdXfXAXAXSXAXSXSXDX'.fXm.-.m.M.n._.xX8Xg.g.g.g.g.g.g.o.z ",
"PXPXPXPXPXPXPXPXPXPXPXPXPXPXPXPXPXPXPXLXPXlXl ] h.c.g.c z z l l ^.kXdXpXfXyXAXAXSXAXDXHXAXhXgX>Xy.$X>XA _.Q.c.v.g.g.g.g.] c.h.g.",
"PXPXPXPXPXIXIXPXPXPXPXPXPXPXPXPXPXPXLXPXCXg.g.g.g.g.g.l z l ..c.hXhXyX>X~.sXHXSXAXAXzXzXzXgXfX>X-XI m.W.!.v v x.h.g.r.' ' r.g.g.",
"PXPXLXLXwXwXeX4XNXBXPXPXPXLXPXPXPXPXLXLXS.z l z ' z l ' ' z z c.hXgXfXB.G.sX8XlXSXDX4.b 7XjXW.-X>Xg n.jXhXz v v.r.e.y.y.u.t.y.u.",
"LXIXVXeX4X4X3XE.0.4XIXIXVXBXBXGXPXPXDXj.l g. .t.y.Y F Y F N p D.gX].(.V.&X7X( oXHXSXMX2XlXhXS.n.T g T.jXhXS.d ] Y u.s.s.l.a.s.y.",
"IX4X6XvXUXBXLXIXeXE.} 4XGXPXLXUXGXPXyXv c i.t.p.t.y.Y F F A t (.gXgXfXG.0XP.NXNXSXSXDXVXfX`.L.S F g M.uX(.kXN q I a.I.I.I.U.A.a.",
"6XtXBXPXPXNXGXLXPXGX} 1.NXPXPXPXBXLXD.v ] y.p.p.u.t.t.y.y.F ' `.`.).W.&X&X-.zXSXAXSXAXAXkXfXyXM S t.>X>XV.`.^.r S A.I.I.U.dXU.a.",
"3.VXPXBXqX5X5X4XNXLXJ.( NXPXLXLXLXGXc.g.y.n.n.p.u.n.n.t.y.A D.hXgXhX~.&XF.C DXSXSXSXSXDX].7.[ y P F.>X-X(._.fX{ y I.U.U.~.dXU.f.",
"4XGXBXtXNXtXqXeX5X3X5X8X1.qXGXLXBXBXc.l t.Y.I.a.a.B.n.t.y.A l./.R.].^.&X/ = P.LXzXAXSXhXZ.K C M.>X;X%XS.C.-.K.{ y a.f.Y.dXU.U.a.",
"BXeXtXNXtXE.9.9.qX3.5XLX( 1.E.eX3Xq.D.e.I.Y.U.a.n.n.n.t.F F ^./.~.^.~.F.> e 5XVXDXSXzX].0XV * -X>X>XP.gXhX_.^.Z.y Y a.~.dXU.I.u.",
"PX4X4X4X3X0.8.} <.9.3.eX<.< 3.3X0.8.j.u.T.U.I.a.n.n.n.t.F j.jXhX).^.~.H = C PXaX~.sXxXHXGX: X *.>XP.^.'.^.W.^.~.r a u.U.Y.U.a.u.",
"GXqX3XJ.E.2.2.2.) <.) <.9.^ eXNXqX3Xb.a.Y.U.I.p.p.n.p.Y A R.hXgXjXfXR.e = 7 6XCXT.yXlXiXd O * = V hXfXE.W.R.R./.i.t I I.I.I.s.I ",
"wX5XE.9.<.( 1.} ( ) < ^ eX1.E.LXIXGXi.A.U.U.I.u.p.p.Y F A (.`.fXfXfXR.0 = 9 g P.I.dXA.g h j q o > R.E._.hXhX].W.B.t s a.a.a.u.T ",
"4X4X0.9.1.<.} ( ( x ~ ~ eX} ( 1.5XCXy.n.I.I.l.e.t.y.G A ' hXhXgXgX/.D.> = g g s T.yXD.j j h y e 0 X.].hX`.^.(.~.D.e a u.u.y.T I ",
"5X5X9.0.3.} ( ( ) < x ( } < ( 4XUXiXI a.I.I.u.I F F S a D hXhXjXjXfXi.e q h j b.dXaXZ.a.g h 9 N w j.jXgX'.)././.D.s t S I T I I ",
"9.J.0.9.8.( ( ( ~ i ~ <.3.( 8.LXLXG.e.u.u.s.F a a r w = D _.`.gXjXkXs w j h n.aX7XZX[ j.d.g q u D = gXjX_./.j.p 2.V = y d S I S ",
"3X4XJ.0.9.1.} ( ~ , } } 8X1XBXLXPXb.y.a.A.p.F y.u.{ A w R./.~./.fXgX^ D d.L.CX%X>.VXaXu k.g 7 u N o S.jX/.R.Z.^ zX2.$ w y y q q ",
"eXtXE.E.9.8.1.( ~ i ( ( BX1.5.LXIX{ u.a.s.y.F y.y.F N r ' (.fX).fXfXlXPXIXPXiX[ b.q.PX{ F h q = 0 = a _.uXS.X.| sX5.; r y a a q ",
"BXtX4X9.8.3.3.} i i ( 1.MXE.BXHXBXF s.A.s.Y S y.F A N r w ].hX).dXx.D.&XNX-.y 5XNXN NX%X/ s y : e D u Q.sXyX .| sXK., e a I S r ",
"LXtXqX8.<.<.<.} i i ( 4X4X) BXPXaXF A.n.t.F A F A N r r w _.hXAXSXsXuX<.u q { 7X;XD u 5XLXNXrXoXw G e R.).D.{  .uX%X, e A p.I a ",
"PXNX9.3X<.) ) ) ( ~ } 4X3.eXIXPXsXI n.p.t.F u D A N r 0  .SXIXLXPXSXlXMXE.j 7XeXaXb.q = wXsXvX/ e F m D.).R.^  .yXE.B B a p.Y a ",
"BXBX3.3.5X3.<.J.( ~ q.3Xi eXPXPXyXI p.u.I F a A u r r sXLXLXIXIXGXZXlX4XqX7XvX0XDX6XI iXa e B * u F V ).~.D.V  .Q.W.B : y y.t.I ",
"0.wXDX5X3.3.} <.1.0.E.} 9.wXPXPXiXI y.y.F S A u r N 4.NXPXAXLXHXDXBXMX4X5X6XO.&XsXeXBXF.b 6.{.& : e u ^.(.S.u 4.W.7XB , a I y.I ",
"1.E.LXPXGXtX8.BXPX4X( ^ 5.S.E.8XN.d s a p p w f 0 -.GXK.sXLXGXGXUXBXNXqXE.E.<.4XeXNXwX=.oXXX! ; V = w a S.j.V N.W.7X/ , r F F F ",
"VX<.BXPXLXLXwXLXIX} < J.5.j.Z.X.Z.K.K.9.3.1   1 & 0.PXIXK.7XPXFXUXBXNXqX3X1X<.%XBXVX8.%XoX:.n D H e u { W.| C Z.P.7X| b w a S a ",
"IX4XPXPX5XJ.8.8.} <.<.7X8XuXuXuXuX8XW.E.0.1     . n wXPXIXq.wXLXBXUXNX9X4X3X5XBXGXaX=.oX*Xb * G F 0 D.~.yX` V N.W.yX=.b > w a a ",
"PXPXPXUX<.1.1.1.lXaXPXS. . . .] ] ....^ ) # . # # # b VXPXGXF.VXIXFXNXqX3X9XGXBX7X6.7.*X:.@ 7 D a u c.X.X.` ` ^ X.5.=.B - o t r ",
"PXPXPXCX<.~ i ` l c.E.g.j.r.j.o.j.X.X.} ^ 1 $ $ #   * B DXPXVX&XLXVXNX4XqXaXwX7.7.9X#X%Xb O 4 X.E.Q.P.K.P.W.K.-./ B B b - # = 0 ",
"ZXxXx.d.e.{ ^ d z 9 d f E.Q.7X^.^.8XQ.Q.!.$ $   # # # & %.IXLXsXVXFXrXqX5X7.F.aXLXPX0X%.o 8 r 7XuX8XwXuX8XyXP.7.=.| / +.w.; o 0 ",
"[.z.v h.h.d.e.z z z d 1 S.W.W.!.Q.Q.W.Q.[.$         # # - 6.LXGXaXVX0X4X0XBXLXPXPXGXoX& q g a K.W.K.K.q.K.q.X.^ / ^ ) 2.6.@ o = ",
"[.h.h.h.h.z.c d x d d < Q.Q.8XuXuXuXQ.Q.!.$     X . 2 # X * q.LXFX6XsXFXLXPXZXCX0XoXb Z G g S D ~ B ~ ^ ^ ^ < % % % n ! ~ * + + ",
"v.h.d.h.h.h.v.c s x f p | .. . . .] ..] x # # . . . # X e B n oXLXGXFXIXLXCXsX7X6XZXBX*XH.g S G 5X8XQ.E.E.7Xb % n % n n % X = = ",
"h.h.h.k.z.z.h.h.j d i ^ q.F.S.S.S.S.Z.4.} . . # O 3 3 4 7 w = ; %XaXIXvXoXlXzXlXDXP.VXqX0Xg S H 9.9.9.0.J.5.& & 2 & n n & o * * ",
"h.v.z.z.z.z.v.h.h.y q F zXsXlXlXsXlXsXlXQ.$ 7 9 3 3 5 3 O 4 ` ;.b b 6.b o K.HXHX8X=.%X9XnXy H V ~ B ^ V B B < $ $ - - ; ; - * o ",
"k.v.z.z.k.z.v.k.z.s q i ( [ ..) [ ` ` { c h h 9 8 5 5 3 3 7 >.m %X#.b o O o p +.%.$.:.*XaXr %X4X%X%X%X0.q.3X=.$ $ - : b , % ; m ",
"k.k.k.k.z.z.v.k.k.c q ( 1.<.4.-.-.} ' g h h 9 j 9 8 y 8 8 w &.y *.IXoXu O O X b +.+.qXcXoXm %X6X5X5X6X%X%XwX=.X X $ - & , e N H ",
"l.l.a.l.l.l.k.v.h.r.q 4.eXqX8XwXeXY.f.k g 9 j 9 a F.b. .F.%XC m A =.=.7.q 4 X ; O.$.NX{.J N / / | &.-.[ [ =.i - - < , N Y m.*.K ",
"l.l.l.l.l.l.A.k.l.r.r V | / / ^ ' k k h I.iXC.b.CX#X{ %XLXaXK m m 6 N *Xb.5 4 + $.+.rX*XZ Z K.5X4XiXcX7X5X5X7.Z ! ~ [ t.t.t.{ G ",
"B.l.B.l.l.l.l.x.l.r.r K.VXqX6XP.k k h &XNX7X=.aXP.-.-.M.iXF.N A H m.H rXVX[ 3 B OX6.VX:.K J 5XeXeXmXVXaXwXZX*Xb ..A.A.D.j.b. .u ",
"B.B.B.B.B.l.l.x.l.i.p =.qXoXZ.f.f.R &.%X>.C %.%.=.=.m.M.m.H m G bXnX&XeXPX0XN N .XoX9X@.,.F.=.6.6.#XOX X7.,X>.C.~.U.L.C.C.G.G.C.",
"B.B.B.B.B.l.l.A.D.V.m V ( | yXsXI.F :.:.:./ +.%.O.C *.pX-XP m H pXbX:X$X4X X;.0 m $.{.,.>X&XoX XoX,X,X{.XX,X;XyXL.L.L.A.C.C.C.F.",
"V.V.V.B.V.B.B.A.A.-XQ *XtXXXBXLXNX[ :.$.O.$.O.+.O.N K ;XbXm.m C :XbXnXpX;.@.{.t 4 + J -XbXiX9X9X0XnXcXcXcXmX:XL.L.L.L.C.C.C.F.S.",
"V.V.B.V.C.G.A.C.G.-XQ q.=.%.:.VXGXoX:.$.@.+.O.$.Z K *.#XnX#X$.#.$XnXiX:Xm.{.J 6 6 m -X>X>X}.{.:.@X,X|.|.|.iXY.P.L.Y.P.G.C.C.C.C.",
"V.V.V.V.C.$XH.C.P.m.|.$.[ +.$.6.*XXXXX:.$.$.:.:.K ,.m.$XiX$.#.@.:.$X,.,.K :.$.t 6 @X>XG >X#XvXrXmXmXcXmXcX~.L.L.;X;XP.F.V.V.V.V.",
"Z.V.V.N.C.$X-X$X@XK cXaXR ;.:.+.oX9X X$.$.#.XXXXbX#X>.+X}..X{.#.J *.>.,.K @..XZ 6 P t 6 K }.rXvXmXmXmXmXiXU.G.P.:X;X;XG.V.V.V.B.",
"N.V.B.B.V.$X:X:X@XW vX&XT K  X%X.X{.#.#.$.{. X:XnXbX+X,.@.XX.X{.$.,.+X>.|.K .XN 6 P U U 6 &.XX}.,X,X,X,X;XL.L.L.;X-X-XH.V.N.N.B.",
"N.N.N.N.V.G.$X:X@XW =XT.R M S vX.X#.#.#.#. XoXbXnXnX=XJ {..X.X.X#.@.+X}.|.@.@.= 6 M U U M {.XXXXOX=X=X#XC.L.L.H.;X-X<X$XF.V.N.N.",
"N.N.N.N.N.C.$X&XQ W =XT.U R H.%X.X#.#.#.{. X>.bXnXnX-XJ .X.X.X.X.X{.<XmXbX#Xb + t M U U P %XMXvXcXcXcX1XV.G.G.L.-X-X:X<XH.V.V.N.",
"V.N.N.j.b.F.G.P.K E cX-XM.yXcX{.#.#.#.#.#. X}.=XmXnX}.$..X.X.X#..X{.iXnXnX=XJ J m P U U P :.*X%XOX*X*Xq.V.L.L.L.$X$X:X$XH.V.Z.b.",
"-XV.N.i.N.F.H.b.m L OXmX0X XXX.X#.#.@..X6.{.+X}.cX:X%.#..X.X.X.X.X.X#XnXnX:X@.OX:.*.R M.S @.:.+.:.+.;.&.b.S.A.G.G.$X-X:X-XV.N.N.",
"pXH.j.4.N.V.G.m.b L *X0X9XoX.X#.#.@.#.6.$.+X+X|.$X{.@.#..X.X#.{.{..X.XbX,X}.{..XUXvXOX0X#XOX9X1XOX1X1X1XV.C.L.G.V.F.$X$X;XV.j.N."
};
