/* XPM */
static char *_b87725dd9784e87f4fbb80a2cb54db4lzwrABMjnwcnqkEZ[] = {
/* columns rows colors chars-per-pixel */
"64 64 256 2 ",
"   c #3E2D61",
".  c #4D385A",
"X  c #49366A",
"o  c #4C3A71",
"O  c #4F3869",
"+  c #743F4E",
"@  c #594C5D",
"#  c #774555",
"$  c #574768",
"%  c #594E72",
"&  c #664969",
"*  c #6A5775",
"=  c #6E566F",
"-  c #78647A",
";  c #716271",
":  c #8A5159",
">  c #885A6C",
",  c #866779",
"<  c #986A7A",
"1  c #907170",
"2  c #A57471",
"3  c #946C5B",
"4  c #988675",
"5  c #BA8872",
"6  c #9CA464",
"7  c #D08C6F",
"8  c #565684",
"9  c #664A84",
"0  c #755A8A",
"q  c #6F578E",
"w  c #7A6687",
"e  c #7A6894",
"r  c #6B6B89",
"t  c #6957AA",
"y  c #6D5AAF",
"u  c #5B71B0",
"i  c #6A64B7",
"p  c #7768B9",
"a  c #736FB2",
"s  c #586C93",
"d  c #696CC7",
"f  c #786CC2",
"g  c #7476CA",
"h  c #7B7ACB",
"j  c #7A74C6",
"k  c #6978D2",
"l  c #787CD4",
"z  c #6D74CA",
"x  c #6779DC",
"c  c #876A97",
"v  c #8B7799",
"b  c #967898",
"n  c #8C7289",
"m  c #A87788",
"M  c #997CA6",
"N  c #8876B8",
"B  c #9679B8",
"V  c #876DB2",
"C  c #A27DA8",
"Z  c #A17BB0",
"A  c #865E97",
"S  c #8B7DCD",
"D  c #8579C9",
"F  c #8A7DD2",
"G  c #8F77C8",
"H  c #837CE1",
"J  c #688B9D",
"K  c #748D9A",
"L  c #7B909A",
"P  c #6A8DA3",
"I  c #6B92A7",
"U  c #7896A6",
"Y  c #788DB6",
"T  c #7AA5BB",
"R  c #5D8AD7",
"E  c #6886DB",
"W  c #7986D6",
"Q  c #7091D4",
"!  c #77AFD3",
"~  c #5898E9",
"^  c #5499ED",
"/  c #7986EB",
"(  c #699AE4",
")  c #7399E3",
"_  c #7790F5",
"`  c #4DA5F5",
"'  c #4EABF8",
"]  c #56A9F3",
"[  c #4FB5FA",
"{  c #4EBAFD",
"}  c #47B5F9",
"|  c #51BAFB",
" . c #56B6F7",
".. c #5AB0E9",
"X. c #68AAEB",
"o. c #75A8E8",
"O. c #66ADF3",
"+. c #6AB2F5",
"@. c #68B6F7",
"#. c #72BBF6",
"$. c #71B9EA",
"%. c #54A5DD",
"&. c #6CC5FA",
"*. c #79C6F9",
"=. c #79D8FD",
"-. c #78C3E6",
";. c #9C8598",
":. c #86959A",
">. c #918B91",
",. c #A78799",
"<. c #A7989B",
"1. c #B48F90",
"2. c #9B86A9",
"3. c #879AA7",
"4. c #9A96A7",
"5. c #9887B8",
"6. c #9A96B7",
"7. c #8A8CAD",
"8. c #A283A4",
"9. c #AA8CAC",
"0. c #A589A8",
"q. c #AB97AA",
"w. c #B599AA",
"e. c #A88AB5",
"r. c #B48DB9",
"t. c #A996B8",
"y. c #B698B8",
"u. c #BB8BAB",
"i. c #94A9AF",
"p. c #B6A3AA",
"a. c #B9A6B8",
"s. c #B0AFB6",
"d. c #A9A692",
"f. c #CCAF99",
"g. c #CB97AE",
"h. c #C7A9B9",
"j. c #C7B7BB",
"k. c #D6B9BC",
"l. c #D1ACAC",
"z. c #EBB1B9",
"x. c #E8BB8F",
"c. c #A7C7BC",
"v. c #EEC79A",
"b. c #D5C7B7",
"n. c #F0D4AC",
"m. c #8A83CB",
"M. c #9886C9",
"N. c #9897C8",
"B. c #8C82D3",
"V. c #8788D4",
"C. c #9789D5",
"Z. c #9B94D6",
"A. c #8895D3",
"S. c #A997C6",
"D. c #B89AC7",
"F. c #A489D5",
"G. c #A898D7",
"H. c #AC92CF",
"J. c #93B0D4",
"K. c #A9A6CA",
"L. c #B8A7C8",
"P. c #BAB7C7",
"I. c #AAA6D8",
"U. c #B8A9D7",
"Y. c #AAB5D9",
"T. c #B9B6D8",
"R. c #A6BBCF",
"E. c #9899E8",
"W. c #8C92ED",
"Q. c #A699E5",
"!. c #AE9BE5",
"~. c #8DB1EB",
"^. c #AAA6E5",
"/. c #B8A9E6",
"(. c #BAB7E5",
"). c #B9B8F8",
"_. c #ACAEF2",
"`. c #C49CC4",
"'. c #C7A8C7",
"]. c #C9B8C6",
"[. c #D3B8C9",
"{. c #C3ABD9",
"}. c #C8B7D8",
"|. c #D2B9D7",
" X c #D2ADCA",
".X c #F1B3C1",
"XX c #C2ACE5",
"oX c #C7B8E6",
"OX c #C2BBF5",
"+X c #D1BBEC",
"@X c #95C5DC",
"#X c #BBC9D8",
"$X c #B3CDD2",
"%X c #99C7E6",
"&X c #87C8F8",
"*X c #88D6FC",
"=X c #97D7F9",
"-X c #94CFEC",
";X c #B7C5E7",
":X c #AAD7E6",
">X c #BADAE5",
",X c #AFCEF4",
"<X c #9CE7FE",
"1X c #8AE5FF",
"2X c #A7E9FC",
"3X c #B9F5FE",
"4X c #B4EAF3",
"5X c #B5E2CA",
"6X c #CAC4C7",
"7X c #D8C9CA",
"8X c #D9D4C9",
"9X c #C9C7D8",
"0X c #D8C8D7",
"qX c #C7D3D8",
"wX c #DAD6D7",
"eX c #C9D7C8",
"rX c #E5C8C6",
"tX c #F9CAC6",
"yX c #E6D6CB",
"uX c #FBD8CC",
"iX c #E6D9D8",
"pX c #F7DDD4",
"aX c #E2CADA",
"sX c #D6E2D7",
"dX c #E9E4DA",
"fX c #FEE4D5",
"gX c #FEEBDC",
"hX c #F9E6DA",
"jX c #EEE7CF",
"kX c #C7C6E7",
"lX c #D6C4EA",
"zX c #CAD6E5",
"xX c #DCD7E4",
"cX c #C6C6F7",
"vX c #D4C9F4",
"bX c #D8D3F7",
"nX c #CAD4F9",
"mX c #E6DBE4",
"MX c #E7DAF6",
"NX c #E8D3ED",
"BX c #C7F9FE",
"VX c #D7FCFC",
"CX c #D0E7EC",
"ZX c #E9E6E7",
"AX c #F3ECEC",
"SX c #F7E9E7",
"DX c #FFF4E3",
"FX c #FAF6EB",
"GX c #EBE9F6",
"HX c #F5ECF8",
"JX c #E8FCFB",
"KX c #FDF5F2",
"LX c #FEFBF5",
"PX c #FFFEFE",
"IX c #F6F6FA",
"UX c #EAF5EF",
/* pixels */
"lX|.|.|.|.{.{.oX!.OXOXMXIXIXPXPXPXPXPXPXIXcX_.W.W.F F F D d y t t B U.|.NXNXxXkXkX;X^.^.A.V.Z.A.D G.NXPXPXPXPXPXlXV.d d d i t t ",
"|.|.|.}.|.oXlX/._.OXnXbXbXGXIXPXPXPXPXPXnX_.Q.E.W.F F G f y t t V H.oXlX9XqXqXT.T.T.T.J.Z.Z.m.j A.OXIXPXPXPXPXHX!.h d d i i t u ",
"+X|.XX|.XXkXOX_._.).,XOXnXcXvXIXPXPXPXPXOXG.S.B G F G D y t t y B {.lXwX#XkX#XI.(.(.T.kXY.m.j V.Q.MXPXPXPXPXPX+Xm.z d d i i i p ",
"oX|.oX+XOXvX_.W._.).).).).).).vXPXPXPXIX{.H.M.M.H.F G p t t t B D.oX#X#XkX(.(.kXkXkXT.G.T.I.m.A.(.MXHXMXNX+XU.C.j z i t i p p f ",
"|.+XlXOXcXcXm.E.~._.XX_.).).XX+XHXPXPXIX|.M.M.F.F.F f y y y V S.T.#X;X(.;XkXT.T.(.U.U.K.e.I.I.^.^././.^.G.Z.V.D g i t i p p z g ",
"oXoX+XvX_.E.N B.W.W._._.XXXXOX+XMXPXPXPXL.H.!.Q.!.C.p t t V M.T.;X#XkXkXzXT.T.U.U.L.K.D.6.e.P.U.Z.Z.A.A.V.W W l z i i i p g z E ",
"oXXXGXMXW./ F F W.W.W.W.E.!.).OX+XHXPXPXXXXX!.!.Q.f p D G M.U.(.9X;XY.kXkXL.L.U.L.S.S.S.S.2.L.Y.m.g W W W W W z i i p j W E E ^ ",
"U.NXPX+Xl x x W.W W._ _ W.W.!./.XXMXPXPX+X!.Q.Q.p D Q.!.F.S.;XY.kXY.I.zX#XS.y.L.S.t.y.e.e.0.h.6XA.J.W W W W k k p p k E E R ^ ` ",
"XXMXvXQ.x H H W.Q.W.C.E.W.W.W.W.!.MXPXPXbXOX).E.E.cXkX^.U.;X^.9X;XI.ZXAX|.e.y.t.e.9.w.8.y.a.a.].A.0XW k E k d p g E ^ R ^ ` ` ` ",
"F.!.!.Q.F C.F.F.H.!.!.Q.x W.W._.XXvXIXPXbXOX_.).cXcX).I.9X^.I.#XY.oXxX0X`.e.9.9.8.0.y.0.9.y.j.j.K.].A.R k d f W ~ ' ` ` ' ' ` ` ",
"D G F F F G G G B G H.F.x W.H Q.OX+XHXPXMXXX!.).cX)./.T.(.I.U.T.T.kXFXlX`.y.8.8.C 9.q.y.p.j.j.7Xs.h.P.x d d R ` ` ` ` ` ' ' ' ' ",
"y y G G H G p D M.G F.F H H H E.!.XXMXPXMXOXOXOXOX/.G.kX^.C.I.Y.(.}.AXwXaX`.9.8.,.8.j.6Xh.7Xk.k.j.l.0Xk x ~ ` ` ` ` ` ' ' ' [ ' ",
"p y D G D f y p G G G F.Q.F !.!.F.XXlXIXHXbXvX/.^.G.U.kXM.S Z.Z.}.}.ZXZXSX'.0.0.0.a.iXyXk.7X7Xz.j.j.jXJ.` ` ` ` ' ' ' [ [ '  .' ",
"y D F F f f S S F.H `.G F G G Z H.{.+XHXHXbX/.U.U.G.#X^.D B.C.N.9X0XmXSXKX[.8.C h.8XiXiXk.7XyXrX].7XrX0X] ' ' ' ' [ [ [ [ [ [ | ",
"t p F H C.C.Q./.!.XXF.!.!.XXXX`.U.XX{.bXHX(.(.XXI.Z.oXC.D F S N.9XmX0XSXPXmX9.8.6X8XmXiXyX7XyXuXh.6Xl.'.' ' ' [ [ [ [ | [ { [ | ",
"y y V p D G.G.H.H.!.XXXX+X+XXXXX{.}.lXGXIXcXXXG.C.C.T.D D S D N.0XmXmXSXPXmXw.9.7XyXSXiXpX7XyXfXh.].z.iX .[ [ { [ | [ [ | | | | ",
"V V V p y V G F.M.S.H.U.XXoXT.oXlXbXvXnXIX(.Z.C.F G.N.D D S f t.].0XKXmXPX[.p.q.7XwXdX8XpX7X8Xb.j.j.k.gX$.} [ | [ { | | | { { | ",
"y p p V D V V G 5.S.oX+XkXvXbXbXbXnXnXcXGXG.F F S I.m.h f D g t.L.KXKX X0Xa.a.h.7XrXSX7XyXyXh.p.l.s.rXgX&X} | [ | {  . .| { ..-.",
"V N N G G M.M.H.U.a.kXkXvXvXlXkXoXT.t.5.}.I.F F m.S.S j j p D 2.M 7XiXSXSX9.a.7X7XpXhX7XpXfXn a.[.P.J.fX:X} | { | |  .....! i.! ",
"S.H.G.U.U./.T.XXoXD.{.oXoX(./.G.7.N N N S.5.N S D M.g l j D j 2.b A b ].y.w.a.b.b.8XyXjXfXgX,.k.b.7X$.iXdX[ { | { | T T T i.T T ",
"G.U.oXoXoXT.oXoXoXU.a.^.G.C.B.D S V.C.V.N.2.q a a a a D j l d 7.8.c = A w.b.g.k.b.,.p.jXfXgXrXpXh.yX&.qXgX$.{ { { T L I i.U U T ",
"M.M.Z.F.Z.C.C.Z.C.C.a.S.B.m.m.B.B.F F e N T.S a 5.V.g a a a d 2.e.0 - b q.6Xk.k.0 n iXuXfXfXgXfXk.7X*.@XgX:X} | | 3.U U 3.I I I ",
"B.F S S S S F F B.S K.[.F B.F F B.F a N V.(.h l a W E k u u e 2.c 0 A g.q.q.tX7Xb C hXfXfXgXfXfXj.j.*X+.gXmX .| ..U I I I I I I ",
"C.C.C.C.C.C.C.C.F.C.m.8XP.h B.S W a j l W _.E E Q a u k R E a.%.e 8.b w.uXk.pXyX].pXgXDXgXgXgXhX6Xj.-X[ dXgX! { T L J I J I I I ",
"G.Z.F.Z.Z.C.Z.Z.C.V.F N.dXL.z l j a W E E ~.X.R E R R u u y.K.R v 9.M 8.rXfXgXyXyXfXfXDXDXgXfXDX8Xk.&X .iXDX}.$.U J J I P I P U ",
"M.C.C.C.S j j D V.B.V.C.G.dXP.k a E E E ~ $.X.~ R ( ` Y <.t.s u 5.e.8.M h.uXfXfXyXfXfXDXDXDXDXDX6Xc.&.@..XgX0Xi.L U U K I K I U ",
"a p p p p j j m.C./.^.Z./.U.wX0Xz ~ ] ~ ~ #.+.] %.R Q h.iX~.%.%.7.e.8.8.8.7XpXfXyXfXDXDXDXDXDXFXR.J.&.Y 0.gX[.P.U :.K U U K K U ",
"y i a p h h m.C.XXPX).^.PX_.E ~.$X! R ( ~ o.o.) J.L.0XwX%X] O.! 6.e.0.8.C 2.iXhXyXDXDXDXDXDXDXZX%.@X-.e c pX X9X3.L U 3.:.K K K ",
"j g h D D W V.!.IXPX^._.,X~.( R ( ( R Q 7.5.t.y.L.K.J.~.$. ...Q N.e.9.0.,.C b w.yXDXDXDXFXjXDX-X%.! ! e A .Xg.9Xc.:.:.L L J J K ",
"h h g h h h C.bXPXHXE.V.A.W.E ) ( ] ] @.@.O.#.o.X.! *.#.$.@.@.Q K.e.q.9.b 8.b C j.gXFXFXDXDX>X%.$.! i.r q z.r.}.b.:.:.K K P J J ",
"j g g h j h /.PXPXOXV./ ) ~.X.X.O.@.@.#.#.&.&X@.~.;X#.-.%X&.#.! K.9.q.a.y.,.C C y. XhXZXFXFX-.! -.! i.e 9 g.b U.9X:.:.K I J J J ",
"j h a W h h G.lXXXE.o.o.O.@.&X+.O.#.#.#.@.@.&X=X*X~.~.*.%X&.o.N.t.t.a.q.y.L.'.y.a.0.z.l.q.@XJ.@X! 3.i.v 9 c 0 P.9X>.K J J J s % ",
"h D D h W m.m.E.W.+.+.+.+.O.#.=X&X*.#.#.&X=X2X&X&.&XkX:X*X*.N.J.t.a.a.b y.GXlXh.].Z h.g.7.$.J.! :.i.d.4.9 A 0 L.+X:.J J J 8 % 8 ",
"V.V.S ) ) ) O.+.@.+.O.O.@.+.+.$.,XnX,X,X=X&X&X*X&X*.:XsX-XJ.A.R.5.L.0.;.j.ZXHXwX'.r.u.u.t.K.U L >.:.:.y.q b b '.lXU J P 8 X o   ",
") ( A.) ) ) X.O.@.+.@.#.#.~.Y.;X;X;X;X}.^.~.*X=X*X=.-XsXR.M.R.t.t.q.b j.q.D.mXdX]. XM g.l.g.w.u.p.q.6.0.q 0 v wXKX3.P 8 X o o o ",
"( ( Q V.) ) X.@.@.@.&.#.~.~.&X*.&.*.&X-X;XT.J.=X*X=X>X@XA.R.IX8Xt.b q.j.b [.iX9X|.'.r.g.g.g.z..Xz. Xe.9 9 q M KXPX#X% o o X X X ",
"m.V.W o.X.O.@.@.&.*.*.~.&X*X&X=X=X=X1X*X1X=X_.Y.=X>XR.~.N.qXPXFXw.h.6Xb w.].U.L.r.y.h..Xk.:.6 l.g.`.B q q c t.PXPX}.  o X o o   ",
"W ) X.X.@.X.o.o.#.*.~.&X*X<X2X%X%XzXqX>X$X:X-X@XN.R.:XJ.5.].LXUXwX8Xw.q.'.{.U.D.H.g.z.z.tXd.6 z.`.`.5.q q c [.PXPXC.  o X   o o ",
"( O.+. .o./.(.qX#XY.J.=X2X<XJ.i.s.$X:X:X:X:X:X:X2X2X6.6.p.].FXAXj.9.9.j.`.}.{.`.g.z..XtXn.z.g.g.r.g.B q 0 c GXPXPXe   o o     o ",
"O.+.@.%XIXzX@X-X=XJ.%XY.~.N.6.>X2X%X:X>X>X>X4XBX4XI.G.t.q.q.h.w.C iX].0XD./.{.D.g.z.tX.XtXz.q.]. X|.0X0 9 v PXPXZXX   o o X o o ",
"@.&.*XUXFXCX=.*.*X%X2X@X5.6.2X2X3XBX>X5XzXb.eX>XY./.L.q.2.q.].8.C ].iX[.D.XXXXD.g..XtXuXuXz.0.q.s.s.aX9 9 L.PXPX4.  o X o o o X ",
"&.&.3XDXIXPX<X-.=X%X~.S.$X2X$X4X3XCXCXBXsX7 d.#XcXoXw.,.a.dXa.2.,.7XiXa.U.XX{.`.z..XtXtXuXtX1.>.;.<.>.9 e AXPXUX%   X o X o O o ",
"&.=.BXLXPXPX3X-X<XJ.G.$X2X3XBX4X>X>Xb.b.x.l.nXbX9X,.1.7XPX[.2.8.6XFXb.s.{.XX{.`.z.tXuXuXuXyXz.1.<.<.e 9 4.PXPX9XX o O X o O & o ",
"=.=.VXLXPXPXBX-X@XN.9X4X3XBXBXBXVXb.f.f.p.;X9X#X<.j.FXLXa.2.0.].SXAX<.p.{.XX{.`.z.uXfXuXpXrXh.g.w 0.q * 0XPXKXa.  & & o O X O o ",
"=.=.VXPXPXPXBX=XN.T.$X3XBXBXVXVXJXn.x.6XqXeXwXeX8XZX6X6.0.q.j.dXFX6Xd.c.}.U.U.`.tXfXpXfXgX.X7X7X0 v q 2.mXSXHX0.. O X . X X $ $ ",
"*X=.3XPXPXJX3X-XU.qX$X>XBXCXCXUXUXLXb.cXcXj.w.9.t.6.6.6.a.6XZXKXjXi.i.$XlXU.`.h.tXgXfXfXDX7XyXwXw b w 7XZXLXHX<.. .   . O & % $ ",
"=.=.1XJXPXBX<XI.9X>X3XCXeXwXJXhXn.jX,XOXj.a.e.t.6.K.P.6XwXZXdXiXc.c.i.s.ZXzXD.'.uXDXgXgXDX[. Xa.c D.c SXLXLXdXK = $ % ; = % o o ",
"=.1X1X<X2X2X%XT.p.$XBXVXJXJXJXDXn.zX).].L.S.t.t.P.qXwXdXFXwXa.c.5X$Xc.eXIXVXU.h.pXDXDXDXDXa.g.h.5.D.9.NXLXPXwX4 5 4 = @ $ O $ & ",
"1X1X<X<X3XBXY.].2 p.VXUXLXIXPXeXqXOXT.].S.e.e.P.wXwXdXUXwXL.s.5XeXc.sXeXAXMXP.'.pXDXgXDXSXg.`.w.t.y.'.iXLXPXs.4 d.3 . . . $ & = ",
"1X<X<X2XJXPXL.6X>.- 6XIXPXLX8X7XvX/.T.D.9.r.7XwX8XZXdXqXU.t.'.$X5XsXjX8XUXZXxXa.pXDXDXDXhX`.h.b L.e. XmXPXPX>.4 2 : O + . = ,.[.",
"<X<X2X2XVXUXa.P.- n w.n.DX8XkXLX/.T.U.e.y.0X7X8XCXwXeXT.H.|.ZX0XjXsXjX8XdXFXFX].pXDXDXDXiX`.`.A t.e. XAXPXKX1 2 < > + + & C HXmX",
"<X<X2X3X3X>Xa.q.0 ,.h.k.7XqXLXbXU.T.r.r.8X7XwXwXsXsXeXD.y.wXUXwXb.ZXGXyXyXUXKX9XiXDXDXDX[.'.'.b y.r.AXHXPX7X: + : < . O * mXPXg.",
"<X<X2XsXsX$Xh.n r 2.q.j.6XFXUXoXU.D.r.yX7X7XjXs.8XjX].S.L.mXZXZXb.xX9XMX8XUXAX0X8XDXgXDX X{.|.`.0.0XLXKXPXp.# : : & & # < HXaXA ",
"=X2X5Xb.v.b.a.w e 4.;.].w.DXAXT.L.r.7X[.7XiXeX4.c.jX{.e.e.PXPXCXUXsXqX0XZXZXLXxX0XDXSXhX`.{. Xr.r.SXAXPXPX< : > # 3 > 2 5 g.b & ",
">XeXb.v.x.f.p.n >.;.d.l.< b.mXL.r.'.0X[.SXb.<.3.3.eXU.M B 9XAXZXJXZXmX{.MXAXKXZXwX].fXiX`.'.|.D.|.iXZXPXwX> m m < 7 7 2 1.m b - ",
"eXn.n.v.f.v.<.n m 4 j.;.b l.0XS.h.7X7XAX8Xn >.4.s.s.L.B e.].ZXGXPXZX0X9XwXKXKXZXKX4.v a. X`.|.aX'.7XIXPX>., m 2 > 5 2 < C {.pXn ",
"n.n.n.n.4.v.f.1 > q.q., 2 f.P.r.[.iXiXKXp.n 4.i.$Xs.t.B |.KXmXZXPXwX8XxX}.UXLXZXLX0Xe [.aX0X'.LX[.P.LXdX< < 2 ; & ; v a.0XPXaX, ",
"n.n.n.n.q.g.f.<.n s.1 3 5 f.}.y.iXiXKX7X, n 4.s.s.t.S.8.|.0X9X0XUXxXxXOXU.dXKXZXKXKXa.aXHXKX XiXPXdXUXq.< 1 @ @ ; b 0XPXPXPXa.& ",
"n.n.n.n.7Xa.f.p.6X<.1 4 >.p.h.[.dXhXKX>.- e 3.i.t.S.L.e.r.wXh.'.}.GXxXxX9XiXKXZXHXKXKXmXKXPXmX0XAXZXb.n ; @ @ ; - 0XPXPXPXIX2.$ ",
"n.eXn.v.iXoX<.5 6Xb.1 - = q.[.iXdXFXiX- w r s P 6.Y.U.Z D.D.aXSX|.ZXmX7X6XZXAXZXSXHXSXSXLXLXLX0XmXPX;.r 4 ; @ % q.LXPXLXPXmXw @ ",
"jXn.n.n.yXIXb ,.s., ; * - h.7XdXdXKXa.* % 8 8 Y N.I.T.M `. XHXSX|.P.}.eXwXxXZXZXFXKXKXZXLXLXPX0XP.l.>.* 4 1 ; * 0XPXPXPXPXq.* $ ",
"d.>.>.>.].PXt.4.9.. = v n 7XiXdXSXKX,.= % r s B B C.T.e.g.NXHXHXy.D.wXxXdXqXxXZXKXKXKXSXLXKXKXxXf.3 7.1 1 1 1 >.HXPXPXAXy.- @ @ ",
"A > ; & a.PXxXK.;.- , >., 7XiXiXKXiX- - * 8 a B V B 5.e.r.KXLXKX X].ZXwXsXqXzXiXKXKXIXFXLXPXUXiX5 ; 4.1 3 ; ; n }.wX6X0.- % $ $ ",
", n 1.# q.PXHXT.- = @ w - [.hXiXLX[.* w $ 8 N A B A V 9.r.SXPXKXmXzX0XZX#X#XqXmXKXKXKXSXLXLXAXb.@ 8 6.4 1 - % * - b >.; % $ $ $ "
};
