/* XPM */
static char *_cfa224a02d14b57a520f2172a9a236aidgcNOv9lkcZOeiZ[] = {
/* columns rows colors chars-per-pixel */
"64 64 250 2 ",
"   c #16161B",
".  c #1A1C24",
"X  c #1F222C",
"o  c #24242C",
"O  c #262528",
"+  c #222631",
"@  c #2B2C34",
"#  c #2A2D38",
"$  c #2E313B",
"%  c #3A3635",
"&  c #33333C",
"*  c #3C393C",
"=  c #383539",
"-  c #312A30",
";  c #453B3B",
":  c #482B38",
">  c #45403D",
",  c #343641",
"<  c #363A44",
"1  c #3A3B45",
"2  c #3B3D49",
"3  c #343C4C",
"4  c #413E41",
"5  c #543648",
"6  c #6E3B54",
"7  c #3D414C",
"8  c #3B475B",
"9  c #4A4545",
"0  c #43434C",
"q  c #4B4647",
"w  c #524D4D",
"e  c #574949",
"r  c #444652",
"t  c #4A4C58",
"y  c #484A54",
"u  c #514D56",
"i  c #4E525C",
"p  c #54535D",
"a  c #585559",
"s  c #5B5048",
"d  c #6F4F5B",
"f  c #6A645F",
"g  c #595A65",
"h  c #475468",
"j  c #665B67",
"k  c #5B6373",
"l  c #66636A",
"z  c #716B6B",
"x  c #6A6876",
"c  c #726B77",
"v  c #79747B",
"b  c #6E7076",
"n  c #857C7C",
"m  c #966972",
"M  c #A07A7C",
"N  c #974A6A",
"B  c #CB7777",
"V  c #B98D7B",
"C  c #D48E7C",
"Z  c #FECD75",
"A  c #797684",
"S  c #6B6E82",
"D  c #597EA4",
"F  c #837C86",
"G  c #8D778D",
"H  c #B26C99",
"J  c #9C5CA2",
"K  c #B374A7",
"L  c #E46F98",
"P  c #C17DA5",
"I  c #CD7F91",
"U  c #7D8698",
"Y  c #778392",
"T  c #6881A0",
"R  c #5992BA",
"E  c #6FB0D0",
"W  c #75AFDA",
"Q  c #89868C",
"!  c #8B8794",
"~  c #958A98",
"^  c #9A939B",
"/  c #908D8F",
"(  c #A6999C",
")  c #B28F92",
"_  c #BBA59D",
"`  c #9D89A3",
"'  c #8792A7",
"]  c #9D93A2",
"[  c #9B9AA6",
"{  c #8891B3",
"}  c #BA8BA6",
"|  c #A59CAC",
" . c #A99CAD",
".. c #A296A5",
"X. c #AD98AC",
"o. c #93A5B8",
"O. c #A5A2AC",
"+. c #ABA1AD",
"@. c #ADACB5",
"#. c #ADA5B1",
"$. c #B4ADB9",
"%. c #B5A8B7",
"&. c #BBB2BD",
"*. c #B7B5B9",
"=. c #B2AFAF",
"-. c #D38F98",
";. c #C6AD95",
":. c #F3BB97",
">. c #EFAF8F",
",. c #CE90B0",
"<. c #EB96B4",
"1. c #E989AB",
"2. c #C6A4A9",
"3. c #C4B6B8",
"4. c #D8BDB8",
"5. c #D2ABAF",
"6. c #E9A6A6",
"7. c #E8B9A8",
"8. c #EAA6BC",
"9. c #F6B9B7",
"0. c #F1B5AA",
"q. c #E99A9C",
"w. c #FBCE93",
"e. c #D5C6B2",
"r. c #FCCBAC",
"t. c #E9C7B9",
"y. c #F4C9B8",
"u. c #F9D5BA",
"i. c #E7CAB2",
"p. c #FEE4B6",
"a. c #9AB8D5",
"s. c #8DAACC",
"d. c #A4B4CE",
"f. c #BBBAC5",
"g. c #A8B9D8",
"h. c #AFACC8",
"j. c #85B9E2",
"k. c #C2BAC5",
"l. c #C5BCCA",
"z. c #C7B6C9",
"x. c #CBB7D5",
"c. c #D6BDDA",
"v. c #D9BEDE",
"b. c #D1B7D4",
"n. c #CEB2CB",
"m. c #F1ACC5",
"M. c #F5BAC8",
"N. c #F0BAD0",
"B. c #CBA7D1",
"V. c #BDC7CB",
"C. c #B8C8DA",
"Z. c #A8C6DA",
"A. c #94CBF0",
"S. c #A4CBE6",
"D. c #B7D4E9",
"F. c #B4DAF3",
"G. c #ACD5EF",
"H. c #B7E9FF",
"J. c #BDF1FF",
"K. c #CBC3CC",
"L. c #C5C3C8",
"P. c #D9C9C9",
"I. c #CEC5D1",
"U. c #C9C9D6",
"Y. c #D3C4D6",
"T. c #D2CAD4",
"R. c #D9C4DC",
"E. c #D6CCDB",
"W. c #DCCCDD",
"Q. c #D8C7D7",
"!. c #C8D5DA",
"~. c #DBD3DE",
"^. c #D7D7D9",
"/. c #DBD0C2",
"(. c #E6CAC8",
"). c #FDC3C6",
"_. c #FBC8CA",
"`. c #EAD4C8",
"'. c #FDDDC4",
"]. c #FAD8C7",
"[. c #F5C4D5",
"{. c #F6CBDA",
"}. c #FACFD3",
"|. c #E6D4DE",
" X c #FDD3D5",
".X c #F6D6D9",
"XX c #E6CAD6",
"oX c #DEE1DC",
"OX c #FEE2CB",
"+X c #FDE9C9",
"@X c #FDE5D2",
"#X c #FFEBD3",
"$X c #F8E8DA",
"%X c #FFF6DB",
"&X c #CACCE3",
"*X c #DDCCE2",
"=X c #D9C8E5",
"-X c #C5D8E4",
";X c #DBDAE7",
":X c #C5DFFC",
">X c #E2CEE5",
",X c #E3D4E3",
"<X c #E4DAE5",
"1X c #EBDBE3",
"2X c #E5D4E9",
"3X c #E6DAEA",
"4X c #EADCEC",
"5X c #E8D7E6",
"6X c #F7D5E2",
"7X c #FCDDEA",
"8X c #FAD9E5",
"9X c #EEDCF1",
"0X c #E4DCF2",
"qX c #F8D1EB",
"wX c #CBE2FA",
"eX c #C5E4F9",
"rX c #D2E5FA",
"tX c #D6E8FA",
"yX c #DBEBFB",
"uX c #D7E5F5",
"iX c #DBF1FD",
"pX c #D9E2E7",
"aX c #EBE3E6",
"sX c #ECE2ED",
"dX c #EEEBED",
"fX c #E5E5E7",
"gX c #FCE2EC",
"hX c #FBEBEE",
"jX c #F4E7E8",
"kX c #FFF9EE",
"lX c #FDF5E9",
"zX c #EEE4F2",
"xX c #E2EEFB",
"cX c #E8E9F6",
"vX c #F2E6F3",
"bX c #FEE5F1",
"nX c #F3EAF5",
"mX c #FEECF4",
"MX c #F6EDF8",
"NX c #F9EEFA",
"BX c #F8E5FA",
"VX c #EBF3FD",
"CX c #E8F4FC",
"ZX c #F3F3F5",
"AX c #FDF3F5",
"SX c #FFFAF3",
"DX c #F4F4FB",
"FX c #FDF4FB",
"GX c #F5F9FE",
"HX c #FFFFFF",
/* pixels */
"HXHXHXHXHXHXHXHXHXHXHXHXHXHXHXHXHXHXHXHXHXHXHXHXHXHXHXHXHXHXHXHXSXHXHXHXHXHXHXHXHXHXHXHXHXHXHXHXHXHXHXHXHXHXHXHXHXHXHXHXHXHXHXHX",
"HXHXHXHXHXHXHXHXHXHXHXHXHXHXHXHXHXHXHXHXHXHXHXHXHXHXHXHXHXHXlXHXHXHXHXHXHXHXHXHXHXHXHXHXHXHXHXHXHXHXHXHXHXHXHXHXHXHXHXHXHXHXHXHX",
"HXHXHXHXHXHXHXHXHXHXHXHXHXHXHXHXHXHXHXHXHXHXHXHXHXHXHXHXSX( n.jX^.HXHXHXHXHXHXHXHXHXHXHXHXHXHXHXHXHXHXHXHXHXHXHXHXHXHXHXHXHXHXHX",
"HXHXHXHXHXHXHXHXHXHXHXHXHXHXHXHXHXHXHXHXHXHXHXHXHXHXHXHX`.*.*.Q.@.K.HXHXHXGXZXVXHXHXHXHXHXHXHXHXHXHXHXHXHXHXHXHXHXHXHXHXHXHXHXHX",
"HXHXHXHXHXHXHXHXHXHXHXHXHXHXHXHXHXHXHXHXHXHXHXHXHXHXHXjXXX( m  Xn +.hXHX3.Y ;XE S.GXHXHXHXHXHXHXHXHXHXHXHXHXHXHXHXHXHXHXHXHXHXHX",
"HXHXHXHXHXHXHXHXHXHXHXHXHXHXHXHXHXHXHXHXHXHXHXHXHXHXAX.X^.5.M.9.B ) fXaXT.1XXXP.o.CXHXHXHXHXHXHXHXHXHXHXHXHXHXHXHXHXHXHXHXHXHXHX",
"HXHXHXHXHXHXHXHXHXHXHXHXHXHXHXHXHXHXHXHXHXHXHXHXHXHX}.,.XX.X X_._.M.,.K.U.T U.! XX;XGXHXHXHXHXHXHXHXHXHXHXHXHXHXHXHXHXHXHXHXHXHX",
"HXHXHXHXHXHXHXHXHXHXHXHXHXHXHXHXHXHXHXHXHXHXHXHXHXHX(.,.8._. X X_.).6.3.S.j.A.R &.-XiXHXHXHXHXHXHXHXHXHXHXHXHXHXHXHXHXHXHXHXHXHX",
"HXHXHXHXHXHXHXHXHXHXHXHXHXHXHXHXHXHXHXHXHXHXHXHXHXAX,.,.M.K ,..X X).q.D A.H.H.J.eXC.D.HXHXHXHXHXHXHXHXHXHXHXHXHXHXHXHXHXHXHXHXHX",
"HXHXHXHXHXHXHXHXHXHXHXHXHXHXHXHXHXHXHXHXHXHXHXHXHX9XK J 8.-.-._._. X9.F.H.G.G.F.H.a.S.GXHXHXHXHXHXHXHXHXHXHXHXHXHXHXHXHXHXHXHXHX",
"HXHXHXHXHXHXHXHXHXHXHXHXHXHXHXHXHXHXHXHXHXHXHXHXHXhXH H -.6.i.).}._.M.;XJ.!.+.o.S.S.a.-XHXHXHXHXHXHXHXHXHXHXHXHXHXHXHXHXHXHXHXHX",
"HXHXHXHXHXHXHXHXHXHXHXHXHXHXHXHXHXHXHXHXHXHXHXHXHX|.-.,.I C u.0.M.}._.-XH.-Xi.a.F.a.` U.FXHXHXHXHXHXHXHXHXHXHXHXHXHXHXHXHXHXHXHX",
"HXHXHXHXHXHXHXHXHXHXHXHXHXHXHXHXHXHXHXHXHXHXHXHXHXjXH K 0.M 7.).0.M.M.-XH.-Xu.e.Z.g.G g.HXHXHXHXHXHXHXHXHXHXHXHXHXHXHXHXHXHXHXHX",
"HXHXHXHXHXHXHXHXHXHXHXHXHXHXHXHXHXHXHXHXHXHXHXHXHXHX-.5.y.-.(.].9.0.6.S.G.C.u.Y o.g.' d.HXHXHXHXHXHXHXHXHXHXHXHXHXHXHXHXHXHXHXHX",
"HXHXHXHXHXHXHXHXHXHXHXHXHXHXHXHXHXHXHXHXHXHXHXHXHXHX} 7.y.y.#Xy.y.y.5.S.S.V.`.E !.L.o.d.HXHXHXHXHXHXHXHXHXHXHXHXHXHXHXHXHXHXHXHX",
"HXHXHXHXHXHXHXHXHXHXHXHXHXHXHXHXHXHXHXHXHXHXHXHXHXGX2.-.@X].$X].7.9.2.D.^.K.`.!.P.K.s.g.HXHXHXHXHXHXHXHXHXHXHXHXHXHXHXHXHXHXHXHX",
"HXHXHXHXHXHXHXHXHXHXHXHXHXHXHXHXHXHXHXHXHXHXHXHXHXHXc.5.OX@X#X'.7.6.$.-X/.t.@X'.0.*.j.a.HXHXHXHXHXHXHXHXHXHXHXHXHXHXHXHXHXHXHXHX",
"HXHXHXHXHXHXHXHXHXHXHXHXHXHXHXHXHXHXHXHXHXHXHXHXHXGX&X,X].#X#XOXr.9.!.3.7.OX#X X'.g.E d.HXHXHXHXHXHXHXHXHXHXHXHXHXHXHXHXHXHXHXHX",
"HXHXHXHXHXHXHXHXHXHXHXHXHXHXHXHXHXHXHXHXHXHXHXHXHXzXc.vX@X@X'.u.7.(.CXe.r.'.+X+XOXj.s.I.HXHXHXHXHXHXHXHXHXHXHXHXHXHXHXHXHXHXHXHX",
"HXHXHXHXHXHXHXHXHXHXHXHXHXHXHXHXHXHXHXHXHXHXHXHXhX;X=XDX`.u.u.r.`.hXGXU.'.'.u.OX/.a.C.|.HXHXHXHXHXHXHXHXHXHXHXHXHXHXHXHXHXHXHXHX",
"HXHXHXHXHXHXHXHXHXHXHXHXHXHXHXHXHXHXHXHXHXHXHXHXhXsX|.fXL.q.y.AXHXHXHX-X/.u.#Xu.P.HXAX1XHXHXHXHXHXHXHXHXHXHXHXHXHXHXHXHXHXHXHXHX",
"HXHXHXHXHXHXHXHXHXHXHXHXHXHXHXHXHXHXHXHXHXHXHXHXnX2XB.<XfX3.|.HXHXFXSXHXpX`.u.r.^.GXDXSXHXHXHXHXHXHXHXHXHXHXHXHXHXHXHXHXHXHXHXHX",
"HXHXHXHXHXHXHXHXHXHXHXHXHXHXFXHXHXHXHXHXHXHXHXSXdX$X4.;XHX .f.FXsXjXdXHXHXHXu.5.&X=XzXcXGXHXHXHXHXHXHXHXHXHXHXHXHXHXHXHXHXHXHXHX",
"HXHXHXHXHXHXHXHXHXHXHXHXHXHXHXHXHXHXHXHXHXHXHXFXhXu.0.2XE.^ l Y.3X`.$XZXdXDXk.` x.9XzX0XGXHXHXHXHXHXHXHXHXHXHXHXHXHXHXHXHXHXHXHX",
"HXHXHXHXHXHXHXHXHXHXHXHXHXHXHXHXHXHXHXHXHXHXHXSXjXOX4XW.z.~ j #.4Xy.`.MXvX#.n  .B.=X*X0XGXHXHXHXHXHXHXHXHXHXHXHXHXHXHXHXHXHXHXHX",
"HXHXHXHXHXHXHXHXHXHXHXHXHXHXHXHXHXHXHXHXHXHXHXHXlX'.vXX.3...` =Xn.r.t.nXW.$.! %.vX4X,XvXGXHXHXHXHXHXHXHXHXHXHXHXHXHXHXHXHXHXHXHX",
"HXHXHXHXHXHXHXHXHXHXHXHXHXHXHXHXHXHXHXHXHXHXHXHX$X'.7.) y.z.X.z.P.>.r.;Xb.sXx.n.x.y.].cXHXHXHXHXHXHXHXHXHXHXHXHXHXHXHXHXHXHXHXHX",
"HXHXHXHXHXHXHXHXHXHXHXHXHXHXHXHXHXHXHXHXHXHXHXHXaX/.r._ e.;.) e.`.:.u.fXW.@.$.Q.0X(.$XcXGXHXHXHXHXHXHXHXHXHXHXHXHXHXHXHXHXHXHXHX",
"HXHXHXHXHXHXHXHXHXHXHXHXHXHXHXHXHXHXHXSXSXHXHXHX<Xl.k.+.Y.( i.@Xp.>.u.4X3.~ t.(.t.].aXnXHXHXHXHXHXHXHXHXHXFXFXHXHXHXHXHXHXHXHXHX",
"HXHXHXAXM.HXHXHXHXHXHXHXHXHXHXHXHXHX+XlXHXHXHXHX( O./ &.HX*X2.5.u.C u.b.(.;.4.Q.t.u.dXHXHXHXFXlXSXHXHXHXHXFXFXHXHXHXHXHXHXHXHXHX",
"HXHXHX{.L 6XHXHXHXHXHXHXHXHXHXHXkXw.%XHXFXHXHXSXz w   A HXBXA g i.>.r.P.4.~.~.Y.E.4XZXHXHXHXHXkX+Xp.lXHXHXHXHXHXHXHXHXHXHXHXrXGX",
"HXHXHX1.N.8.HXHXHXHXHXHXHXHXHX+XZ +XHXSXmXHXHXHX^ w - z BX#.@ p z.:.:.3./ FXnX .I.E.GXHXHXHXHXHXGXlX+XSXHXHXHXHXHXHXHXGXGXrXtXHX",
"HXHX{.<.L m.HXHXHXHXHXHXHXHX%Xw.kXHXHXHXAXHXHXHXP.= . F B.1 & u 2.r.( y &.HX| $ [ U.HXHXHXHXHXHXHXHXHXDXGXHXHXHXHXHXHXGXxXVXtXxX",
"HXHXhX6Xm.[.[.HXHXHXHXHXHXHXSXHXHXHXHXHXHXHXHXHXaX; o u g & @ y 3.P.G # p qXG 3 7 k GXHXHXHXHXHXHXHXHXHXlXlXHXCXtXVXHXGXVXyXrXHX",
"HXHXHXhX8.1.<.HXHXHXHXHXHXFXHXHXHXHXHXHXHXHXHXHXdXw - o * 1 @ 0 F ] A 4 o ` c 3 < t ZXHXHXHXHXHXHXHXHXGX$X+XHXrXwXVXHXVXwXDXwXrX",
"HXHXHXHX[.<.<.{.AXHXHXHXHXHXHXHXHXHXHXHXHXHXHXHXSXg - , & o . 0 j p A 4 $ & & $ o Y HXHXHXHXHXHXHXHXGXuXxXSXDXVXyXrXVXHXVXrXGXtX",
"HXHXHXHXHX1.6X7XAXHXHXmX7XHXHXHXHXHXHXHXHXHXHXHXHXa @ 4 o .   u t r A r 1 & @ , < fXHXHXHXHXHXGXHXVXwXwXyXHXGXVXrXGXHXHXwXyXxXwX",
"HXHXHXmXHXAX6XHXHXHX7X6XhXHXAXHXHXHXHXHXHXHXHXHXHXl $ 1 O .   2 2 x ! 7 2 1 $ , y GXHXHXGXxXCXGXHXCXwXwXoX$XHXbXeXtXFXHXyXtXVXHX",
"HXHXHX7XHXHX{.mXHXAXm.m.HXHXHXGXHXHXHXHXHXHXHXHXHXz & & . o a $ # h F 2 1 , 1 # < cXHXHXyXrXCXCXHXGXwXyXU.yXZXcXxXHXAXFXGXGXHXHX",
"HXHXFXFXHXHXHXHXHXhXN.FXHXmXM.[.hXHXHXHXHXHXHXFXHXQ O -   0 b x g g ! < $ @ & 2 8 C.HXHXyX:XwXyXHXHXrXwXfXHXSXxXtXxXFXHXHXHXHXHX",
"HXHXHXHXHXHXHXHXHXHX[.{.HXhXgX{.8XHX8X.XkXSXHXAXGXaX; - 5 p j f.FX^.HXO..   + k h D DXHXxXfXoXrXGXGXtXxXyXGXHXHXHXVXGXHXFXFXHXHX",
"HXHXHXHXHXHXHXHXHXHXbX8XHX7XmXjXFXHXM.M..X#XOX0.+X%Xm s d m b f.HXHXHXfXc t i U E ! T.GXoXe.!.GXHXHXVXVXGXHXHXHXHXHXHXHXHXHXHXHX",
"HXHXHXHXHXHXHXHXHXHXHXHXHX7Xm.[.HXFX.XgXN.HX}.}.2.C -.B C >.i.1XXX1XSXVX&X;XV.g.a.f.$.U o.xXiXGXHXHXCXGXHXHXHXHXHXHXHXHXHXHXHXHX",
"HXHXHXHXHXHXHXHXHXHXHXHXHXHXSXFXHXHX{.6XAXHXjX} d c G 6 5 ,.O.X.qX4XHXsXG v & 8 o.{ ' b ! o.yXGXHXHXHXHXHXHXHXHXHXHXHXHXHXHXHXHX",
"HXHXHXFXmXHXHXHXHXHXHXHXHXHXHXHXHXHX8X7XHXHXL.m : Q ) d : ) ^ G AXnXFX,Xb ! g t d.g.s.~ @ p U VXHXHXHXHXHXHXHXHXHXHXHXHXHXHXHXHX",
"HXHXHXHXmXHXHXHXHXHXHXHXHXHXHXHXHXHXGXHXHXaXf : q ..} N 6 N.( ! mX8XHXsXS &Xv 8 g.9Xg.| , + 3 @.HXHXHXHXHXHXHXHXHXHXHXHXHXHXmXHX",
"HXHXHXHXHXHXHXHXHXHXHXHXHXHXHXFXHXHXHXHXHXn % O /  .B.5 j FX@.O.FXHXHXAXj f...3 &XvX2X| I.t # k !.HXHXHXHXHXHXHXHXHXHXHXHXFX7XHX",
"HXHXHXHXHXHXHXHXHXHXHXHXHXHXHXHXHXHXHXHX_ % % %  .X.b.p ^ HX&.@.DXHXHXDXA | K.r *XBX9Xz.3X| . 7 ~ HXHXHXHXFXFXHXHXHXHXHXHXFXmXHX",
"HXHXHXHXHXHXHXHXHXHXHXHXHXHXHXHXHXHXHXdXs > - ^ &.X.b.v l.HXK.k.vXdXHXzXz...sXg E.BX4X2Xf.U.< r k ^.HXHXHXHXHXHXHXHXHXHXHXHXHXHX",
"HXHXHXHXHXHXHXmXFXHXHXHXHXHXHXHXHXHXHX=.% s > T.O.h.b.^ 5XDXI.k.BX^.HX<X*X@.MX] ~.nX4XnXl.l., r h ' GXHXHXHXHXHXHXHXHXFXHXHXHXHX",
"HXHXHXHXHXHXHXmXAXHXHXHXHXHXHXHXHXSXHXv e w q T.^ n.c.vX3XBX|.;XnXK.GX*X2XI.sXK.fXBX9XNXT.! + 1 t S pXHXHXHXHXHXHXHXHXHXHXHXHXHX",
"HXHXHXHXHXHXHXHXHXHXHXHXHXHXHXHXHXHXdXa w w 4 ^ ` b.R.NX<X4X<XDXBXf.fX*X>XnXvXsXNXvXvXFXK.K.2 $ 8 k f.HXHXHXHXHXHXHXHXHXHXHXHXHX",
"HXHXHXHXHXHXHXHXHXHXHXHXHXHXHXHXHXHXe.9 w 9 p 3.` v.R.DX4XW.sXNXNXl.l.Y.2XnXvX3XMXvXvXFXl.<Xb + 7 k [ GXHXHXHXHXHXHXHXHXHXHXHXHX",
"HXHXHXHXHXHXHXHXHXHXHXHXHXHXHXHXGXHXQ 9 w * v E.` v.R.mXvXW.nXNXNXE.[ l.3XnXzX,XDXnXnXFXK.Y.v X 7 i U GXHXHXHXHXHXHXHXHXHXHXHXHX",
"HXHXHXbXmXHXHXHXHXHXHXHXHXHXHXHXHXSXf q w % Q b...v.R.nXvX<XDXNXDXY.#.x.3XBXnX4XNXnXnXFXK.Y.x . & i A MXHXHXHXHXHXHXHXHXHXHXHXHX",
"FXHXmX7XmXHXHXHXHXHXHXHXHXHXHXHXHX^.e q q * l l.` R.R.BX4XsXmXMXFXE.h.U.5XnXnXzXDXNXMXFXE.$.y $ , i x VXGXHXAXHXHXHXHXHXHXHXHXHX",
"bXFX7XqXmXHXHXHXHXHXHXHXHXHXHXHXHX*.> s 9 > 4 #.` v.R.3XsXMXnXBXFX~.@.l.2XBXzXzXZXNXMXNXT...2 2 7 t x DXHXHXHXHXHXHXHXHXHXHXHXHX",
"FXHX7X{.mXHXHXHXHXmXHXHXHXHXHXHXSX/ > > 0 = a T.~ c.c.3XnXvX4X9XFX*X` | 9XvXnXnXNXNXnXDXk.Y.z $ t t l NXHXHXHXHXHXHXHXHXHXHXHXHX",
"HXHXmX7XHXHXHXHXHXHXHXHXHXHXHXHXGXv > q > & a AX~ B.c.2X9X4X3X4XGXT.~ A 9XzXDXMXNXnXnXFX&.W.b @ t i k BXHXHXHXHXgXbXFXHXHXHXHXHX",
"HXHXHXHXHXHXHXHXHXHXHXHXHXHXGXHXdXn > 9 * = * ;X#.X.v.R.2X3X>XzXFX$.f.j 2XsXMXMXDXvXnXFX$.W.y & t t Q FXFXHXHXHX7X7XHXHXHXmX7XHX",
"HXHXHXHXHXHXFXFXHXHXHXHXHXHXHXHXz.z z $ * = @ j ~.v b.v.=XR.R.FXsX .&.0 R.5XvXnXvX5XNXnX .g + , g t | GXSXGXHXHXmX7XHXHXHXFXgXFX",
"HXHXHXHXHXbXHXHXHXHXHXHXHXHXHXHXW.q V h @ = & 4 zX .c B.c.v.9XFX^ I.a o x.>X3X3XR.sXHXI.#.j o $ l r z.FXHXHXHXHXHXFXHXHXHXHXFXHX",
"HXHXHXHXFXgXHXHXHXHXHXHXHXHXHXHXFXn % z a - = o Q 3X| c c F Q A | nX@ . %.*Xc.R.>XBXzX~ W.g . 0 g t 3XHXHXHXHXHXHXHXHXHXHXHXHXHX",
"HXHXHXHXHXHXHXHXHXHXHXHXHXHXHXHXHXT.l % v j 1 = O 1 <X3Xz.&.z.W.FXQ o o G >XR.R.Y.K.! z.T.= & x y F HXFXHXHXHXHXHXHXHXHXHXHXHXHX"
};
