/* XPM */
static char *a8ee4786079d4725e5c54535ae026264lE6QfFg3ZIx6kMe3[] = {
/* columns rows colors chars-per-pixel */
"64 64 232 2 ",
"   c #080508",
".  c #1C151A",
"X  c #0F0B11",
"o  c #21191D",
"O  c #00052F",
"+  c #271D23",
"@  c #2B2227",
"#  c #2E242A",
"$  c #31252C",
"%  c #342C2E",
"&  c #352C32",
"*  c #382D34",
"=  c #332732",
"-  c #3B3235",
";  c #3D333A",
":  c #323239",
">  c #41363C",
",  c #44393D",
"<  c #493E3F",
"1  c #472F3E",
"2  c #142679",
"3  c #453B42",
"4  c #4A3E44",
"5  c #473A45",
"6  c #613F77",
"7  c #4D4146",
"8  c #4E434A",
"9  c #51454B",
"0  c #55494E",
"q  c #54444A",
"w  c #564951",
"e  c #594D53",
"r  c #544650",
"t  c #5E535A",
"y  c #5D5155",
"u  c #62565C",
"i  c #66585D",
"p  c #554D73",
"a  c #685A64",
"s  c #69467E",
"d  c #71636B",
"f  c #766368",
"g  c #766871",
"h  c #7E7577",
"j  c #A15B73",
"k  c #836D74",
"l  c #83747C",
"z  c #85787B",
"x  c #937074",
"c  c #595697",
"v  c #594781",
"b  c #6A599A",
"n  c #765A97",
"m  c #6B4D89",
"M  c #6A639F",
"N  c #5A66AD",
"B  c #5E6CB0",
"V  c #6967AE",
"C  c #7C69A5",
"Z  c #7475AC",
"A  c #656CB4",
"S  c #6878BA",
"D  c #7575B7",
"F  c #736FB6",
"G  c #5155A5",
"H  c #6C7DC4",
"J  c #7A7FC3",
"K  c #8C7E81",
"L  c #877A84",
"P  c #99728A",
"I  c #A97D89",
"U  c #997DAA",
"Y  c #8A77B1",
"T  c #A97DA3",
"R  c #D47D82",
"E  c #7986BE",
"W  c #7B86C7",
"Q  c #7B94D1",
"!  c #8F8388",
"~  c #978789",
"^  c #9B8D94",
"/  c #978996",
"(  c #9E9395",
")  c #AA848A",
"_  c #A98D95",
"`  c #AD959C",
"'  c #A79799",
"]  c #B9989B",
"[  c #8986B7",
"{  c #9686B9",
"}  c #9A95B7",
"|  c #9C85AA",
" . c #AA8AAF",
".. c #B59EA5",
"X. c #B89CAE",
"o. c #AA98B9",
"O. c #B293A8",
"+. c #ADA4A9",
"@. c #AAA1A2",
"#. c #B8A5A9",
"$. c #B9ACB2",
"%. c #B9B3B8",
"&. c #AEACBE",
"*. c #CD848A",
"=. c #C69898",
"-. c #D99892",
";. c #D18A8D",
":. c #E39B97",
">. c #D9A39C",
",. c #C1A29A",
"<. c #DE9AAA",
"1. c #E597A8",
"2. c #C7ABAC",
"3. c #D2A8A8",
"4. c #D8B1AE",
"5. c #C5AEB4",
"6. c #CBB5B5",
"7. c #C9B5BA",
"8. c #CBBABC",
"9. c #C5B5B7",
"0. c #D4B8B7",
"q. c #CEABB2",
"w. c #E7A4AA",
"e. c #E9B5AA",
"r. c #F7B6AA",
"t. c #E9B9B1",
"y. c #F7BAB2",
"u. c #FDABB0",
"i. c #D9C2BE",
"p. c #C7C0BD",
"a. c #ECC7B9",
"s. c #F3C4BB",
"d. c #FAC7B9",
"f. c #868DC7",
"g. c #8594CB",
"h. c #9797C9",
"j. c #8C99D7",
"k. c #9393CD",
"l. c #B09EC8",
"z. c #97A8D4",
"x. c #93A4D4",
"c. c #A6A7C7",
"v. c #A7ACD6",
"b. c #ADB2D9",
"n. c #B8BADA",
"m. c #B1ACCB",
"M. c #89A4E3",
"N. c #9AADE4",
"B. c #94A9E5",
"V. c #9CB5E9",
"C. c #9CBCF1",
"Z. c #8EB7F1",
"A. c #A5B5E7",
"S. c #A3BCF1",
"D. c #B6BBEA",
"F. c #CBBEC3",
"G. c #D1BFC3",
"H. c #C8B9D6",
"J. c #BEC1CF",
"K. c #A9C3EE",
"L. c #A3C3F3",
"P. c #A4C6FC",
"I. c #AACCFA",
"U. c #A9CBF8",
"Y. c #ACD1FE",
"T. c #A7D4FF",
"R. c #B1D5FC",
"E. c #B5DAFD",
"W. c #B7DBF8",
"Q. c #BFC4E8",
"!. c #BCE4FB",
"~. c #CEC2C3",
"^. c #CEC6CE",
"/. c #D4C3C4",
"(. c #DCC4C3",
"). c #DACBCC",
"_. c #D7C8C9",
"`. c #C8CBDC",
"'. c #DBCFD2",
"]. c #D3CAD5",
"[. c #DDD3D2",
"{. c #DCD6D8",
"}. c #C8D0DA",
"|. c #E5C8C3",
" X c #FDCBC3",
".X c #EAD5C7",
"XX c #FCD3CA",
"oX c #FCDBCC",
"OX c #F8D5C7",
"+X c #E1D5D4",
"@X c #ECDDD7",
"#X c #E5DADA",
"$X c #E9DDDD",
"%X c #E7D9D4",
"&X c #FDDED2",
"*X c #F4DFD5",
"=X c #FFE1CD",
"-X c #EAE1DE",
";X c #FEE4D4",
":X c #F6E7DC",
">X c #FEECDB",
",X c #FCE6D9",
"<X c #FFF1DE",
"1X c #C5C9E6",
"2X c #D7D7E8",
"3X c #D9DEF3",
"4X c #C0D8F6",
"5X c #E4DDE5",
"6X c #EBDFF1",
"7X c #C6EBFA",
"8X c #D9E9F6",
"9X c #D3F2FA",
"0X c #ECE4E3",
"qX c #EBE7EA",
"wX c #F4EAE5",
"eX c #F2ECEB",
"rX c #F8EAE5",
"tX c #FEF4E2",
"yX c #F6F1EF",
"uX c #FBF4ED",
"iX c #FFF8E7",
"pX c #E9EAF3",
"aX c #F3EEF1",
"sX c #F9EEFA",
"dX c #EDF6FE",
"fX c #F5F3F3",
"gX c #FBF6F3",
"hX c #FDFAF6",
"jX c #F3F6FC",
"kX c #FBF6FA",
"lX c #FFFFFF",
"zX c #F5FCFB",
/* pixels */
"lXlXlXlXlXlXlXlXlXlXlXlXlXlXlXlXlXlXlXlXlXlXlXlXlXlXlXlXlXhXpX3X1Xn.}.lXlXlXlXlXlXlXlXlXlXlXlXlXlXlXlXlXlXlXlXlXlXlXlXlXlXlXlXlX",
"lXlXlXlXlXlXlXlXlXlXlXlXlXlXlXlXlXlXlXlXlXlXlXlXlXlXlXlXlXkX3X} [ 2Xm.n.lXlXlXlXlXlXlXlXlXlXlXlXlXlXlXlXlXlXlXlXlXlXlXlXlXlXlXlX",
"lXlXlXlXlXlXlXlXlXlXlXlXlXlXlXlXlXlXlXlXlXlXlXlXlXlXlXlXqXpXlXG.~.lXc.E 1XlXlXlXlXlXlXlXlXlXlXlXlXlXlXlXlXlXlXlXlXlXlXlXlXlXlXlX",
"lXlXlXlXlXlXlXlXlXlXlXlXlXlXlXlXlXlXlXlXlXlXlXlXlXlXlXfX7.uXgX/ &.iX).E M.dXlXlXlXlXlXlXlXlXlXlXlXlXlXlXlXlXlXlXlXlXlXlXlXlXlXlX",
"lXlXlXlXlXlXlXlXlXlXlXlXlXlXlXlXlXlXlXlXlXlXlXlXlXlXlXhX' &.1XH z.-X+.^ A.4XlXlXlXlXlXlXlXlXlXlXlXlXlXlXlXlXlXlXlXlXlXlXlXlXlXlX",
"lXlXlXlXlXlXlXlXlXlXlXlXlXlXlXlXlXlXlXlXlXlXlXlXlXlXzXqX[ W g.f.E Q p +.hX}.8XlXlXlXlXlXlXlXlXlXlXlXlXlXlXlXlXlXlXlXlXlXlXlXlXlX",
"lXlXlXlXlXlXlXlXlXlXlXlXlXlXlXlXlXlXlXlXlXlXlXlXlXlXlXqXB.f.f.W E g.Q c.:XQ.4XlXlXlXlXlXlXlXlXlXlXlXlXlXlXlXlXlXlXlXlXlXlXlXlXlX",
"lXlXlXlXlXlXlXlXlXlXlXlXlXlXlXlXlXlXlXlXlXlXlXlXlXeX^.3XK.S.j.g.Q V.Z.J.a.z.P.jXlXlXlXlXlXlXlXlXlXlXlXlXlXlXlXlXlXlXlXlXlXlXlXlX",
"lXlXlXlXlXlXlXlXlXlXlXlXlXlXlXlXlXlXlXlXlXlXlXlXlX-Xb.!.W.R.I.P.K.T.T.[ &.o.V `.lXlXlXlXlXlXlXlXlXlXlXlXlXlXlXlXlXlXlXlXlXlXlXlX",
"lXlXlXlXlXlXlXlXlXlXlXlXlXlXlXlXlXlXlXlXlXlXlXlXlXeX7X!.W.E.E.E.U.T.K.M.A Y V Y gXlXlXlXlXlXlXlXlXlXlXlXlXlXlXlXlXlXlXlXlXlXlXlX",
"lXlXlXlXlXlXlXlXlXlXlXlXlXlXlXlXlXlXlXlXlXlXlXlXlXfX7X!.E.E.E.Y.U.D.{ h.Y J S Y 6XlXlXlXlXlXlXlXlXlXlXlXlXlXlXlXlXlXlXlXlXlXlXlX",
"lXlXlXlXlXlXlXlXlXlXlXlXlXlXlXlXlXlXlXlXlXlXlXlXhX8X7XE.E.E.E.Y.L.} x.V.Y n b m H.lXlXlXlXlXlXlXlXlXlXlXlXlXlXlXlXlXlXlXlXlXlXlX",
"lXlXlXlXlXlXlXlXlXlXlXlXlXlXlXlXlXlXlXlXlXlXlXlXkX9X!.W.R.R.I.Y.K.| Z.B.J c 6 G m.lXlXlXlXlXlXlXlXlXlXlXlXlXlXlXlXlXlXlXlXlXlXlX",
"lXlXlXlXlXlXlXlXlXlXlXlXlXlXlXlXlXlXlXlXlXlXlXlXzX9X!.R.I.I.P.I.L.#.M.f.J m 6 b l.lXlXlXlXlXlXlXlXlXlXlXlXlXlXlXlXlXlXlXlXlXlXlX",
"lXlXlXlXlXlXlXlXlXlXlXlXlXlXlXlXlXlXlXlXlXlXlXlXlX9X!.R.L.I.S.I.N.4.Q W n m v b l.lXlXlXlXlXlXlXlXlXlXlXlXlXlXlXlXlXlXlXlXlXlXlX",
"lXlXlXlXlXlXlXlXlXlXlXlXlXlXlXlXlXlXlXlXlXlXlXlXzX7X!.W.V.P.B.P.h.=X+.B n c p G c.lXkXlXlXlXlXlXlXlXlXlXlXlXlXlXlXlXlXlXlXlXlXlX",
"lXlXlXlXlXlXlXlXlXlXlXlXlXlXlXlXlXlXlXlXlXlXlXlXzXW.U.L.M.C.j.S.o.a.y.Z D s m v x.lXlXlXlXlXlXlXlXlXlXlXlXlXlXlXlXlXlXlXlXlXlXlX",
"lXlXlXlXlXlXlXlXlXlXlXlXlXlXlXlXlXlXlXlXlXlXlXlXjXS.N.N.j.B.k.A.T : 3 P V j n b m.lXlXlXlXlXlXlXlXlXlXlXlXlXlXlXlXlXlXlXlXlXlXlX",
"lXlXlXlXlXlXlXlXlXlXlXlXlXlXlXlXlXlXlXlXlXlXlXlXjXV.j.j.j.k.h.l.I p O 1 Z *.Y S n.lXlXlXlXlXlXlXlXlXlXlXlXlXlXlXlXlXlXlXlXlXlXlX",
"lXlXlXlXlXlXlXlXlXlXlXlXlXlXlXlXlXlXlXlXlXlXlXlXjXN.f.f.{ { o. .a.}.2 x Y >.U Y ].lXlXlXlXlXlXlXlXlXlXlXlXlXlXlXlXlXlXlXlXlXlXlX",
"lXlXlXlXlXlXlXlXlXlXlXlXlXlXlXlXlXlXlXlXlXlXlXlXlXN.F Y T U  .O.=X}.z.w.U e.| k.5XlXlXlXlXlXlXlXlXlXlXlXlXlXlXlXlXlXlXlXlXlXlXlX",
"lXlXlXlXlXlXlXlXlXlXlXlXlXlXlXlXlXlXlXlXlXlXlXlXkXA.F U T O.T t.iXOXy.<.X.s.f.n.jXkXlXlXlXlXlXlXlXlXlXlXlXlXlXlXlXlXlXlXlXlXlXlX",
"lXlXlXlXlXlXlXlXlXlXlXlXlXlXlXlXlXlXlXlXlXlXlXlXlXQ.A T 1.w.3.;XtX&X X<.w.} J 6XkXkXlXlXlXlXlXlXlXlXlXlXlXlXlXlXlXlXlXlXlXlXlXlX",
"lXlXlXlXlXlXlXlXlXlXlXlXlXlXlXlXlXlXlXlXlXlXlXlXkX2XH b u.XX;X>XtX,XXXd.X.H A.sXlXkXlXlXlXlXlXlXlXlXlXlXlXlXlXlXlXlXlXlXlXlXlXlX",
"lXlXlXlXlXlXlXlXlXlXlXlXlXlXlXlXlXlXlXlXlXlXlXlXlXzXh.G <.;X,X>X>X>X;XOX[ V.pXkXlXkXlXlXlXlXlXlXlXlXlXlXlXlXlXlXlXlXlXlXlXlXlXlX",
"lXlXlXlXlXlXlXlXlXlXlXlXlXlXlXlXlXlXlXlXlXlXlXlXlXlX2XF m.>XrX<X>X>X<X(.b.pXlXkXlXlXlXlXlXlXlXlXlXlXlXlXlXlXlXlXlXlXlXlXlXlXlXlX",
"lXlXlXlXlXlXlXlXlXlXlXlXlXlXlXlXlXlXlXlXlXlXyXyXlXlXzX3Xn.>XtX&XXX<XOX3.jXlXlXlXlXlXlXlXlXlXlXlXlXlXlXlXlXlXlXlXlXlXlXlXlXlXlXlX",
"lXlXlXlXlXlXlXlXlXlXlXlXlXlXlXlXlXlXlXlXlXlXeX-XlXkXlXlXlXwX>X>X,X>X-.=.aXlXlXlXlXlXlXlXlXlXlXlXlXlXlXlXlXlXlXlXlXlXlXlXlXlXlXlX",
"lXlXlXlXlXlXlXlXlXlXlXlXlXlXlXlXlXlXlXlXlXlX-X[.kXhXkXlXlXlX|.&X>X>.;.>.qXlXlXlXlXlXlXlXlXlXlXlXlXlXlXlXlXlXlXlXlXlXlXlXlXlXlXlX",
"lXlXlXlXlXlXlXlXlXlXlXlXlXlXlXlXlXlXlXlXlXlX#Xi.lXlXeXgXzXkX$.I ;.R :.3.aXlXlXlXlXlXlXlXlXlXlXlXlXlXlXlXlXlXlXlXlXlXlXlXlXlXlXlX",
"lXlXlXlXlXlXlXlXlXlXlXlXlXlXlXlXlXlXlXlXlXlXeX_.#XlXeX0XhXeX/.2.*.e.q.8.5XlXlXlXlXlXlXlXlXlXlXlXlXlXlXlXlXlXlXlXlXlXlXlXlXlXlXlX",
"lXlXlXlXlXlXlXlXlXlXlXlXlXlXlXlXlXlXlXlXlXlX-X).8.gX%X[.gXlX+X_.).[.p.6.[.lXlXlXlXlXkXgXkXlXlXlXlXlXlXlXlXlXlXlXlXlXlXlXlXlXlXlX",
"lXlXlXlXlXlXlXlXlXlXlXlXlXlXlXlXlXlXlXlXlXgX%X/.#.eXeXwXeXlX5X/.7././._.).yXlXlXkXeXhX~.eXlXlXlXlXlXlXlXlXlXlXlXlXlXlXlXlXlXlXlX",
"lXlXlXlXlXlXlXlXlXlXlXlXlXlXlXlXlXlXlXlXlXlX).9.=.,XlX/.+XyXlX$.w ~ +X_./.%X$XwX).gX+XX.kXlXlXlXlXlXlXlXlXlXlXlXlXlXlXlXlXlXlXlX",
"lXlXlXlXlXlXlXlXlXlXlXlXlXlXlXlXlXlXlXlXlXlX/.$.3.t.lXz ~.yX~.+.' ^ [.wX_.p.0X/.0XlX$.5.lXlXlXlXlXlXlXlXlXlXlXlXlXlXlXlXlXlXlXlX",
"lXlXlXlXlXlXlXlXlXlXlXlXlXlXlXlXlXlXlXlXlXlX#XG..X%XfX_ |.eX_ s.=.@.p.wXi.wX'.'.lXaX_ /.lXlXlXlXlXlXlXlXlXlXlXlXlXlXlXlXlXlXlXlX",
"lXlXlXlXlXlXlXlXlXlXlXlXlXlXlXlXlXlXlXlXlXlXzX).%XrXeXw.d.(.4.y.-.~ +.%X0X9.~ hX-XG...0XlXlXlXlXlXlXlXlXlXlXlXlXlXlXlXlXlXlXlXlX",
"lXlXlXlXlXlXlXlXlXlXlXlXlXlXlXlXlXlXlXlXlXlXlX8.@XeX).OX>Xs.s.OXr.x %.:X|.>.' hXq.` G.0XlXlXlXlXlXlXlXlXlXlXlXlXlXlXlXlXlXlXlXlX",
"lXlXlXlXlXlXlXlXlXlXlXlXlXlXlXlXlXlXlXlXlXlXlX7.eXwX(.,XiX;XXXs.r.-.a.a.d.e.p.iX1.=.$.#XlXlXlXlXlXlXlXlXlXlXlXlXlXlXlXlXlXlXlXlX",
"lXlXlXlXlXlXlXlXlXlXlXlXlXlXlXlXlXlXlXlXlXlXkX'.uX_.0.-XwX:X;Xa.s.r.=X<X<Xa._.rXu.=._ '.lXlXlXlXlXlXlXlXlXlXlXlXlXlXlXlXlXlXlXlX",
"lXlXlXlXlXlXlXlXlXlXlXlXlXlXlXlXlXlXlXlXlXlXfXeXhXF.).gXgX@X>X Xe.a.>X<X<Xa.-XiXd.4.` 0XlXlXlXlXlXlXlXlXlXlXlXlXlXlXlXlXlXlXlXlX",
"lXlXlXlXlXlXlXlXlXlXlXlXlXlXlXlXlXlXlXlXlXlXeXhXhX7.#XhXhXrX>XXX;X,.-XiX:XOX[.i.oX0.+.fXlXlXlXlXlXlXlXlXlXlXlXlXlXlXlXlXlXlXlXlX",
"lXlXlXlXlXlXlXlXlXlXlXlXlXlXlXlXlXlXlXlXlXlXfX).eX5.5XhXlXrX>X&X>X' yXhXfX|.i.5.a.(.^.lXlXlXlXlXlXlXlXlXlXlXlXlXlXlXlXlXlXlXlXlX",
"lXlXlXlXlXlXlXlXlXlXlXlXlXlXlXlXlXlXlXlXlXlX$.w $X! :XlXgX*X>XoX>X6.gXhXgX/.i.).(.wXaXlXlXlXlXlXlXlXlXlXlXlXlXlXlXlXlXlXlXlXlXlX",
"lXlXlXlXlXlXlXlXlXlXlXlXlXlXlXlXlXlXlXlXlXlXd ; +.g $XhXuX@X<Xa.>Xi.gXhXhX).] 7.#XgXlXlXlXlXlXlXlXlXlXlXlXlXlXlXlXlXlXlXlXlXlXlX",
"lXlXlXlXlXlXlXlXlXlXlXlXlXlXlXlXlXlXlXlXlXlX! > e a /.aX).,X.X4.=X( yXlXgX/.#./.#XgXfXlXlXlXlXlXlXlXlXlXlXlXlXlXlXlXlXlXlXlXlXlX",
"lXlXlXlXlXlXlXlXlXlXlXlXlXlXlXlXlXlXlXlXlXlX&.= 4 8 ..^.! oX4.2.OXi {.lXeX0.8.p.$.[.gXlXlXlXlXlXlXlXlXlXlXlXlXlXlXlXlXlXlXlXlXlX",
"lXlXlXlXlXlXlXlXlXlXlXlXlXlXlXlXlXlXlXlXlXlX^.5 4 - 0 h =.d.f i 2.7 ( iX-X' K 9.f a qXlXlXlXlXlXlXlXlXlXlXlXlXlXlXlXlXlXlXlXlXlX",
"lXlXlXlXlXlXlXlXlXlXlXlXlXlXlXlXlXlXlXlXlXlX^.4 4 ; # 8 4.,.    @.q y 8.).f 8 ^ 7 - h lXlXlXlXlXlXlXlXlXlXlXlXlXlXlXlXlXlXlXlXlX",
"lXlXlXlXlXlXlXlXlXlXlXlXlXlXlXlXlXlXlXlXlXlX%.3 ; @ 3 t 0.] , y ! 7 < ~ ` 9 8 w 0 % n lXlXlXlXlXlXlXlXlXlXlXlXlXlXlXlXlXlXlXlXlX",
"lXlXlXlXlXlXlXlXlXlXlXlXlXlXlXlXlXlXlXlXkXlX/ ; & - 8 a 0.k u 6.~ < 8 < + > r 8 4 % F.lXlXlXlXlXlXlXlXlXlXlXlXlXlXlXlXlXlXlXlXlX",
"lXlXlXlXlXlXlXlXlXlXlXlXlXlXlXlXlXlXlXlXlXlXL * 7 , 0 t #.g . 0 K 7 8 , * - ; - . a lXlXlXlXlXlXlXlXlXlXlXlXlXlXlXlXlXlXlXlXlXlX",
"lXlXlXlXlXlXlXlXlXlXlXlXlXlXlXlXlXlXlXlXlXlXa 3 7 , 0 y 9.f   , K 7 7 < 4 @ - 3 = @.lXkXlXlXlXlXlXlXlXlXlXlXlXlXlXlXlXlXlXlXlXlX",
"lXlXlXlXlXlXlXlXlXlXlXlXlXlXlXlXlXlXlXlXlXsX4 5 3 , 9 y 9.0 . % ~ 8 7 7 3 & * , 5 ].lXlXlXlXlXlXlXlXlXlXlXlXlXlXlXlXlXlXlXlXlXlX",
"lXlXlXlXlXlXlXlXlXlXlXlXlXlXlXlXlXlXlXlXlX5X4 5 7 , 7 d 8.4 < ` z 8 9 < , ; * 3 t fXlXlXlXlXlXlXlXlXlXlXlXlXlXlXlXlXlXlXlXlXlXlX",
"lXlXlXlXlXlXlXlXlXlXlXlXlXlXlXlXlXlXlXlXlX{.4 5 8 ; 0 d 6.< > G.K 7 7 < 3 > ; * a kXlXlXlXlXlXlXlXlXlXlXlXlXlXlXlXlXlXlXlXlXlXlX",
"lXlXlXlXlXlXlXlXlXlXlXlXlXlXlXlXlXlXlXlXlX0Xe 5 8 - 0 h 6.$ . u ~ 9 7 , , , ; $ g kXlXlXlXlXlXlXlXlXlXlXlXlXlXlXlXlXlXlXlXlXlXlX",
"lXlXlXlXlXlXlXlXlXlXlXlXlXlXlXlXlXlXlXlXlXpXu 4 7 ; 0 z _.* . 9 ( 0 ; - ; , ; # L lXlXlXlXlXlXlXlXlXlXlXlXlXlXlXlXlXlXlXlXlXlXlX",
"lXlXlXlXlXlXlXlXlXlXlXlXlXlXlXlXlXlXlXlXlXzXd 4 4 ; e l q.3 X i ( w 7 % - , , # / lXlXlXlXlXlXlXlXlXlXlXlXlXlXlXlXlXlXlXlXlXlXlX",
"lXlXlXlXlXlXlXlXlXlXlXlXlXlXlXlXlXlXlXlXlXlX+.4 ; 4 w ^ 5.@ > @.' 8 8 : - ; , # @.lXkXlXlXlXlXlXlXlXlXlXlXlXlXlXlXlXlXlXlXlXlXlX",
"lXlXlXlXlXlXlXlXlXlXlXlXlXlXlXlXlXlXlXlXlXlXlXg @ 7 e z ` . l G.~ 7 9 - - - - $ +.lXkXlXlXlXlXlXlXlXlXlXlXlXlXlXlXlXlXlXlXlXlXlX",
"lXlXlXlXlXlXlXlXlXlXlXlXlXlXlXlXlXlXlXlXlXlXlXu $ 7 7 ! ` . . 0 ! 7 0 - , % - $ %.lXlXlXlXlXlXlXlXlXlXlXlXlXlXlXlXlXlXlXlXlXlXlX",
"lXlXlXlXlXlXlXlXlXlXlXlXlXlXlXlXlXlXlXlXlXlX( + * - 8 g _ +   t l 5 7 - < % @ - {.lXlXlXlXlXlXlXlXlXlXlXlXlXlXlXlXlXlXlXlXlXlXlX",
"lXlXlXlXlXlXlXlXlXlXlXlXlXlXlXlXlXlXlXlXlXqXa . @ - 0 d _ x * h g 3 < > > > o y gXlXlXlXlXlXlXlXlXlXlXlXlXlXlXlXlXlXlXlXlXlXlXlX"
};
