/* XPM */
static char *_9f1d742c44143c4b9c9a72377fccc75tgNRCUTMLXCz9k61[] = {
/* columns rows colors chars-per-pixel */
"20 20 173 2 ",
"   c #3C003E",
".  c #2A2323",
"X  c #2F2828",
"o  c #372D2D",
"O  c #2C3131",
"+  c #3F3939",
"@  c #373737",
"#  c #5D0000",
"$  c #590B0B",
"%  c #5B1D1D",
"&  c #6A0000",
"*  c #730101",
"=  c #6C1819",
"-  c #7F1717",
";  c #7B1F1E",
":  c #41173F",
">  c #4A2929",
",  c #542626",
"<  c #502728",
"1  c #452F30",
"2  c #473334",
"3  c #4D3030",
"4  c #433B3B",
"5  c #573434",
"6  c #692424",
"7  c #7B2425",
"8  c #7F2828",
"9  c #722424",
"0  c #763A2D",
"q  c #633636",
"w  c #623C3E",
"e  c #723230",
"r  c #65382A",
"t  c #450344",
"y  c #440C43",
"u  c #470049",
"i  c #4C024C",
"p  c #4C0D4C",
"a  c #51054E",
"s  c #4C134C",
"d  c #4B1B4D",
"f  c #451A44",
"g  c #4D0152",
"h  c #520352",
"j  c #540C54",
"k  c #5D015D",
"l  c #5B0D5E",
"z  c #551354",
"x  c #551D55",
"c  c #5A1D57",
"v  c #5A125A",
"b  c #5B1C5C",
"n  c #452047",
"m  c #4A2D4A",
"M  c #552E56",
"N  c #5B225C",
"B  c #5B2B5A",
"V  c #6B2950",
"C  c #630165",
"Z  c #621464",
"A  c #780D7B",
"S  c #5F2B67",
"D  c #632C61",
"F  c #6E2068",
"G  c #6B366D",
"H  c #663766",
"J  c #71326C",
"K  c #652971",
"L  c #793373",
"P  c #3C4141",
"I  c #4B4040",
"U  c #574444",
"Y  c #4F5050",
"T  c #515252",
"R  c #764344",
"E  c #7E4344",
"W  c #6C5858",
"Q  c #7E5E5E",
"!  c #6A426B",
"~  c #724C6A",
"^  c #69536D",
"/  c #6D4872",
"(  c #6F4271",
")  c #754077",
"_  c #734876",
"`  c #7A5B74",
"'  c #736464",
"]  c #7C6D6E",
"[  c #7A6464",
"{  c #820000",
"}  c #8F1213",
"|  c #A91C1C",
" . c #802324",
".. c #8C2626",
"X. c #982727",
"o. c #973C3C",
"O. c #A22626",
"+. c #A53435",
"@. c #AD5B0A",
"#. c #AA641D",
"$. c #A57319",
"%. c #854750",
"&. c #815D5D",
"*. c #976A41",
"=. c #9E785F",
"-. c #A3605E",
";. c #875E7B",
":. c #A65F60",
">. c #866D6C",
",. c #896B6B",
"<. c #9F6465",
"1. c #936D6D",
"2. c #9F6869",
"3. c #9B796E",
"4. c #85637E",
"5. c #8A7776",
"6. c #917473",
"7. c #997474",
"8. c #957B7B",
"9. c #9A7A7A",
"0. c #99757C",
"q. c #A36463",
"w. c #AC6363",
"e. c #A76869",
"r. c #A67C7A",
"t. c #AD7E7E",
"y. c #A37272",
"u. c #B57E7E",
"i. c #83827B",
"p. c #A6876C",
"a. c #A28B68",
"s. c #AB886F",
"d. c #A3827F",
"f. c #C49260",
"g. c #794F81",
"h. c #7E4381",
"j. c #7D5C82",
"k. c #815183",
"l. c #905E89",
"z. c #877385",
"x. c #8D7E8A",
"c. c #896784",
"v. c #A77F80",
"b. c #928382",
"n. c #9C8582",
"m. c #9B8C86",
"M. c #938C8A",
"N. c #978689",
"B. c #96928E",
"V. c #8B8095",
"C. c #999197",
"Z. c #AB8583",
"A. c #A38E8D",
"S. c #A98C85",
"D. c #B68684",
"F. c #A59798",
"G. c #9DA79E",
"H. c #A19EA4",
"J. c #A9A4A3",
"K. c #AEA8AE",
"L. c #B1A7A7",
"P. c #B4AFA9",
"I. c #A9B9AD",
"U. c #ACA8B0",
"Y. c #B5B6B4",
"T. c #B7B1B8",
"R. c #B7BBB9",
"E. c #BBB2B2",
"W. c #C0B7B7",
"Q. c #B7C0BC",
"!. c #C0C3B7",
"~. c #BBC5C0",
"^. c #C2CBC4",
/* pixels */
"0  .7 9 I 8 7 7 8 7  .5 q X. .7 ; 7 7 r ",
"$.-.e.q.5.q.<.<.q.<.-.,.1.-.q.q.w.2.<.$.",
"e 1.[ ] v.m.S.x.x.m.m.N.8.m.b.9.r.' >.> ",
"E 5.F.G.^ _ T.^.L.k.4.f.Q.U.) _ I.J.[ > ",
"| Z.B.) M   h G C.g a 8.J h f B k.M.>.; ",
"- v.J.M C N   i x.v l x.a t d C G i.7.= ",
"w S.l.d m Z k i S i h V t k Z ! n ~ d.1 ",
"+.D.c.h y s C a a b N a a C l y   ` d.< ",
"X.7.D N z y g k b A A b k k s y d L D., ",
"R 6.c g j z i j z G G c j h p p h Z Z.2 ",
"X.d.N.! N j c z h x N i z z p N ( x.,.= ",
"} d.4.u i x i H z i i j H a c i h ` >.= ",
"5 D.L.G S g K l i h h i l K g S G F.9.3 ",
"o.u.E.Q.=.%.p.V b j j b V s.%.3.~.W.D.3 ",
"O.y.J.Y.*.@.#.a.g.i i g.a.#.@.*.Y.E.v., ",
"R 7.J.Y.J.p.z.z g j j i z 5.a.J.R.L.7.2 ",
"..N.8.A.J.Y.H.j.z.g i z.j.H.Y.J.A.8.b.% ",
"* 6 ,.6.8.9.A.P.Y./ / Y.P.A.8.8.6.&.6 * ",
"* & # $ q W ] ,.7.n.n.7.,.[ W U $ # & & ",
"4 4 4 4 > X O P Y ' ' Y @ . . o 4 4 + + "
};
