/* XPM */
static char *result[] = {
/* columns rows colors chars-per-pixel */
"50 50 133 2 ",
"   c #FF8700",
".  c #FF8B00",
"X  c #FF9400",
"o  c #FF9D00",
"O  c #FFA400",
"+  c #FFAC00",
"@  c #FFB400",
"#  c #FFBB00",
"$  c #FFC300",
"%  c #FFCB01",
"&  c #FFCB0D",
"*  c #FFD400",
"=  c #FFDC01",
"-  c #FFDD0C",
";  c #FFCC14",
":  c #FFDD14",
">  c #FFDD1D",
",  c #FFE402",
"<  c #FFE709",
"1  c #FFE80C",
"2  c #FFEA13",
"3  c #FFE41B",
"4  c #FFEC1C",
"5  c #FFDA23",
"6  c #FFDA2A",
"7  c #FFDE3C",
"8  c #FFE524",
"9  c #FFED23",
"0  c #FFE72F",
"q  c #FFEE2A",
"w  c #FFF02C",
"e  c #FFE234",
"r  c #FFEE35",
"t  c #FFE33F",
"y  c #FFE93C",
"u  c #FFF134",
"i  c #FFF33B",
"p  c #FFDD43",
"a  c #FFDD4C",
"s  c #FFDA5B",
"d  c #FFE442",
"f  c #FFED44",
"g  c #FFE348",
"h  c #FFEC4C",
"j  c #FFF543",
"k  c #FFF54C",
"l  c #FFF84E",
"z  c #FFE452",
"x  c #FFEC57",
"c  c #FFE55D",
"v  c #FFF452",
"b  c #FFF954",
"n  c #FFF45B",
"m  c #FFFA5C",
"M  c #FFDF62",
"N  c #FFDE6E",
"B  c #FFEC64",
"V  c #FFE46A",
"C  c #FFEB6C",
"Z  c #FFF564",
"A  c #FFFB65",
"S  c #FFF46C",
"D  c #FFFB6C",
"F  c #FFE475",
"G  c #FFEB71",
"H  c #FFF572",
"J  c #FFFB74",
"K  c #FFFB79",
"L  c #4DB5F1",
"P  c #4FB8F1",
"I  c #52B7F1",
"U  c #53B9F1",
"Y  c #5CBDF2",
"T  c #63BEF2",
"R  c #5EC2F4",
"E  c #57C3FC",
"W  c #5BC5FC",
"Q  c #5EC8FC",
"!  c #64C1F2",
"~  c #6CC4F3",
"^  c #61C7FD",
"/  c #64C9FD",
"(  c #6BCBFD",
")  c #73C5F3",
"_  c #79C7F3",
"`  c #75C9F2",
"'  c #7CCAF2",
"]  c #73CEFD",
"[  c #7ACFFD",
"{  c #6BD3FD",
"}  c #74D1FD",
"|  c #7BD3FD",
" . c #7CDAFD",
".. c #83CDF3",
"X. c #8BCEF4",
"o. c #8ED1F3",
"O. c #84D4FE",
"+. c #89D7FE",
"@. c #84DAFD",
"#. c #8CDBFD",
"$. c #92D2F4",
"%. c #94DDFD",
"&. c #9BDEFF",
"*. c #A0DFFF",
"=. c #8BE1FD",
"-. c #94E2FD",
";. c #9CE2FD",
":. c #9DEAFE",
">. c #A3E3FD",
",. c #ACE5FE",
"<. c #A5EAFE",
"1. c #ACEBFE",
"2. c #B1E7FE",
"3. c #B4EAFE",
"4. c #BBECFE",
"5. c #ACF0FE",
"6. c #B5F1FE",
"7. c #BDF3FE",
"8. c #C3EDFE",
"9. c #C9EFFE",
"0. c #C4F3FF",
"q. c #CCF3FF",
"w. c #C5F9FF",
"e. c #CAF8FF",
"r. c #D3F5FF",
"t. c #DAF6FF",
"y. c #D5FAFF",
"u. c #DBFBFF",
"i. c #E3FDFF",
"p. c #EBFEFF",
"a. c #F3FEFF",
"s. c #FCFFFF",
"d. c None",
/* pixels */
"d.d.d.d.d.d.d.d.d.d.d.d.o o o o o o o d.d.d.d.d.d.d.d.d.d.d.d.d.d.d.d.d.d.d.d.d.d.d.d.d.d.d.d.d.d.d.",
"d.d.d.d.d.d.d.d.d.o o o # # # # # o o o o d.d.d.d.d.d.d.d.d.d.d.d.d.d.d.d.d.d.d.d.d.d.d.d.d.d.d.d.d.",
"d.d.d.d.d.d.d.d.o # V V G G F F F N N @ o o o d.d.d.d.d.d.d.d.d.d.d.d.d.d.d.d.d.d.d.d.d.d.d.d.d.d.d.",
"d.d.d.d.d.d.o o c c B C S C H G G C V M s + o o d.d.d.d.d.d.d.d.d.d.d.d.d.d.d.d.d.d.d.d.d.d.d.d.d.d.",
"d.d.d.d.d.o a z x n Z S S H H S S B B c z a + o o d.d.d.d.d.d.d.d.d.d.d.d.d.d.d.d.d.d.d.d.d.d.d.d.d.",
"d.d.d.d.o p g h v n Z S H H H H S Z n x g a p + o o d.d.d.d.d.d.d.d.d.d.d.d.d.d.d.d.d.d.d.d.d.d.d.d.",
"d.d.d.d.@ t f k n Z S H H H H D S Z n h h d 7 @ + o o d.d.d.d.d.d.d.d.d.d.d.d.d.d.d.d.d.d.d.d.d.d.d.",
"d.d.d.o 7 y j k n Z D H K J H H S Z n k f y e # + O o d.d.d.d.d.d.d.d.d.d.d.d.d.d.d.d.d.d.d.d.d.d.d.",
"d.d.o 6 e u j v n D H J K K J D S n n k i r 0 $ @ O o o d.d.d.d.d.d.d.d.d.d.d.d.d.d.d.d.d.d.d.d.d.d.",
"d.d.+ 5 0 i j v m D J K K K J D A n l k y r 8 % # + o o o d.d.d.d.d.d.d.d.d.d.d.d.d.d.d.d.d.d.d.d.d.",
"d.o ; > 9 u j l m D D J J J D D Z v l j i w 3 % $ @ O o o d.d.d.d.d.d.d.d.d.d.d.d.d.d.d.d.d.d.d.d.d.",
"d.o ; : 4 w j l m D D D D J D A m b l i u 9 = % $ @ O o o d.d.d.d.d.d.d.d.d.d.d.d.d.d.d.d.d.d.d.d.d.",
"d.+ & : 3 q i l b A D A A D D m m l j 4 2 < = * % @ + o o o d.d.d.d.d.d.d.d.d.d.d.d.d.d.d.d.d.d.d.d.",
"d.@ % - 2 9 u j l m m m m m b l j i w 9 2 < , * % # + o o o d.d.d.d.d.d.d.d.d.d.d.d.d.d.d.d.d.d.d.d.",
"o @ % - 1 9 9 u j b m m m m b l j u w 9 2 < , * % @ + O o o d.d.d.d.d.d.d.d.d.d.d.d.d.d.d.d.d.d.d.d.",
"o @ % - 1 2 q u j l b b m b l j i u q 4 2 < , * % # @ ' ' ' _ ` ` ) ) d.d.d.d.d.d.d.d.d.d.d.d.d.d.d.",
"o + % * , 2 4 w i j l b l l l i i w 9 4 2 < , * % ' ' #.#.@.+.@.@.| ) ~ d.d.d.d.d.d.d.d.d.d.d.d.d.d.",
"o + $ * , 1 4 q u i j j j j i i u q 9 3 1 , = * ..#.#.#.s.s.s.s.s.| |  .~ d.d.d.d.d.d.d.d.d.d.d.d.d.",
"o + # % , < 2 9 w u i i i i i u w q 4 2 < , = ..#.%.s.s.s.s.s.s.s.s. .} | ~ d.d.d.d.d.d.d.d.d.d.d.d.",
"o O # % = , 1 3 4 w w u u i w w q 4 4 1 < , ..%.a.a.s.s.s.s.s.s.a.a.p. .} ~ ! d.d.d.d.d.d.d.d.d.d.d.",
"o O @ % * , < 2 4 9 q q w w q 9 4 4 2 < , ..%.u.p.a.a.a.a.a.a.a.p.p.i.i.} | ! d.d.d.d.d.d.d.d.d.d.d.",
"o o @ # % = , < 2 4 4 4 9 9 4 o.o.o...X.....%.i.p.p.p.p.p.p.p.p.i.i.u.u.} } ! d.d.d.d.d.d.d.d.d.d.d.",
"o o + @ % * = , < 1 2 2 2 o.o.&.-.-.&.%...-.y.u.i.i.i.i.i.i.i.i.i.u.y.w.| } T ! d.d.d.d.d.d.d.d.d.d.",
"d.X O @ # % = , , < 1 2 $.$.&.a.a.p.i.y...3.e.r.y.y.y.u.u.u.y.y.e.w.7.6.} } { ! d.d.d.d.s.d.d.d.d.d.",
"d.X o + @ % % * = , , $.o.;.s.a.a.p.i.y...2.0.0.w.q.e.e.e.q.w.w.7.7.6.<.| } ] ! d.d.d.d.d.d.d.d.d.d.",
"d.o X O + # $ % * = = $.>.s.s.a.a.p.i.y...4.7.7.7.7.7.0.0.7.7.6.6.1.<.:.} } { ! d.d.d.d.d.d.d.d.d.d.",
"d.d.. o O @ # $ % % o.>.8.s.a.a.p.i.u.r.#.3.3.3.3.3.4.3.3.3.1.1.<.<.>.-.} ] ~ ! d.d.d.d.d.d.d.d.d.d.",
"d.d.o X o + + # # % $.>.s.s.a.a.a.i.u.y.3.2.1.2.1.1.1.1.<.,.<.<.<.;.-.-.} { ! d.d.d.d.d.d.d.d.d.d.d.",
"d.d.d.. X o O @ @ # $.9.a.a.a.a.p.i.y.q.0.2.2.,.,.,.,.,.<.<.;.;.-.-.%.} } ! ! R R R Y Y d.d.d.d.d.d.",
"d.d.d.o . X o O + o.;.a.a.a.p.a.i.u.y.q.0.2.,.,.,.>.>.>.>.;.;.;.-.%.%.[ ! ( #.@.( / R Y R U d.d.d.d.",
"d.d.d.d.o . X o O $.&.a.a.a.a.i.u.y.q.q.8.4.,.,.<.>.>.>.>.;.;.;.;.%.} -.p.p.p.p.p.p./ / / U U d.d.d.",
"d.d.d.d.d.o . . X o.;.p.a.i.i.u.u.y.e.8.7.3.2.,.,.,.>.>.;.;.;.;.%.-.u.u.i.u.i.i.u.i.u.y./ Q U I d.d.",
"d.d.d.d.d.d.o   $.o.&.i.i.i.u.t.r.e.q.7.4.3.2.,.,.<.*.>.>.;.;.;.;.0.e.e.y.u.u.u.u.u.y.y.w.Q Q P P d.",
"d.d.d.d.d.$.$.$.$.X.;.i.i.t.t.r.q.q.8.4.4.3.,.,.,.>.,.>.;.>.;.$.6.6.7.0.w.0.w.w.w.w.w.7.5.Q Q P I d.",
"d.d.d.$.$.*.*.t.r.&.9.t.y.r.y.e.q.8.8.4.3.3.,.,.,.,.>.>.;.;.;.<.<.5.5.5.6.6.6.6.6.6.5.5.:.=.Q W L d.",
"d.d.$.$.*.p.i.t.r.r.9.t.r.r.q.q.8.8.4.4.3.3.,.,.,.>.>.>.>.;.;.;.;.>.<.<.<.<.5.<.<.<.:.:.:. .W W L L ",
"d.d.$.*.a.p.i.t.r.q.9.r.q.q.q.0.8.4.3.3.3.2.2.2.>.>.>.>.>.&.;.;.;.;.;.:.;.:.-.:.:.-.-.=.=.{ Q W L L ",
"d.$.$.t.p.i.t.t.r.q.9.9.q.9.9.8.8.8.3.3.3.3.*.2.,.,.>.>.;.>.&.;.-.-.-.-.-.-.-.-.=.=.=.=. .Q Q W L L ",
"d.$.,.p.i.t.t.r.r.9.9.9.9.0.8.4.8.2.4.4.3.2.2.*.>.,.>.>.>.*.&.&.%.%.$.#.#.#.=.#.=. . . .Q Q E E L L ",
"d.$.>.i.i.t.t.r.r.9.9.9.8.8.9.4.4.4.2.2.2.2.2.2.,.>.>.>.;.;.;.;.;.%.-.=.#.#.#.@.@.@. . .Q E Q E L L ",
"d.$.*.*.t.t.r.r.9.9.9.9.8.8.8.4.4.4.2.2.2.2.2.*.,.>.>.>.>.;.[ &.%.%.%.#.#.#.#.#.@.@.@.Q W W W E L L ",
"d.$.*.*.t.t.r.9.9.r.%.9.9.8.8.8.8.2.4.2.2.2.2.2.,.,.>.>.;.;.[ } ;.-.%.%.#.#.#.+.@. .^ Q W W E E L L ",
"d.$.$.*.*.&.r.r.9.9.&.9.8.8.4.4.4.4.4.2.4.2.2.2.,.>.>.>.>.;.] } ] %.%.#.#.#.+.#.@.^ / Q W W W E L d.",
"d.d.$.*.*.&.&.&.&.&.%.X.$.8.8.4.4.4.2.4.2.2.2.*.,.>.>.>.>.;.[ ] ] ( ( ( ( ( / / / ^ R Q W W E L L d.",
"d.d.$.$.*.&.&.&.&.&.%.%...%.+.8.8.4.2.2.2.2.,.,.,.>.>.>.>.&.&.} } ] ( ( ( ( / / ^ Q ^ Q W W E L d.d.",
"d.d.d.$.X.X.&.&.&.%.%.%.$...%.+.+.+.+.+.O.2.,.,.>.,.>.>.>.&.} ] ] ( ( ( ( / / / / ^ Q ^ E E L L d.d.",
"d.d.d.d.d.X.X.X...$.%.$.%.+._ $.+.+.+.+.O.O.O.O.| | ' | [ ] ] ] ( T ( ( ( / / / ^ ^ W W W L L d.d.d.",
"d.d.d.d.d.d.d.d.d..........._ .._ _ +.O.O.O.[ O.| | [ | ] ] ] ] ] ( T ( ( ( / / ^ ^ W I I I d.d.d.d.",
"d.d.d.d.d.d.d.d.d.d.d.d.d.d.d.d.d.d._ _ ) ) ) O.[ [ [ [ [ ] [ ] ( ( ( Y Y Y Y Y U U U U d.d.d.d.d.d.",
"d.d.d.d.d.d.d.d.d.d.d.d.d.d.d.d.d.d.d.d.d.d.~ ) ) ~ ~ T ~ T T T T T T d.d.d.d.d.d.d.d.d.d.d.d.d.d.d."
};
