/* XPM */
static char *result[] = {
/* columns rows colors chars-per-pixel */
"50 50 13 1 ",
"  c black",
". c #770911",
"X c #7F3A28",
"o c #E28845",
"O c #F7B07D",
"+ c gray58",
"@ c gray65",
"# c #FFD8A7",
"$ c #C0C0C0",
"% c LightGray",
"& c #DFDFDF",
"* c white",
"= c None",
/* pixels */
"==================================================",
"==================================================",
"==================================================",
"==================================================",
"==================================================",
"=====================         ====================",
"===================  XXXXXXXXX  ==================",
"================== XXXXXXXXXXXXX $=$==============",
"==============$=$ XXXXXXXXXXXXXXX $*$$============",
"============$$*$* XXXXXXXXXXXXXXX *$*&$@==========",
"==========@$&*$* XXXXXXXXXXXXXXXXX &*$&&@=========",
"=========@&&$*&& XXXXXXXXXXXXXXXXX $&&&*&@========",
"========@&*&&&$& XXXXXXXXXXXXXXXXX @&**@$*@=======",
"=======@*$@**&@$ XXXXXXXXXXXXXXXXX *$*&*&&&@======",
"======@&&&*&*$** XXXXXoooooooXXXXX *$$*&&&$@======",
"======@$&&&*$$*& XXXoooooooooooXXX &&@&&*$*&@=====",
"=====@&*$*&&@&&& XXoooooooooooooXX *&@$*$&&@$=====",
"=====$@&&$*$@&*&  Xo   ooooo   oX  &*$&**&*$&@====",
"====@&$*&**&$*&&oXXo+  ooooo  +oXXo$&&@&&&$@&@====",
"====@&@$&&&@&&$&oOXo%..OOOOO..%oXOo**@$$**@@$@====",
"====@$@@**$$@**&*oXo%..OOOOO..%oXo@&$&@&@$@&@&@===",
"===@&@&@$@&@&$&@$* oO#########Oo &&$$@@*$@@&@&@===",
"===@&@&@@$*@@$$&&*$ oO#######Oo &&$@*&$@&$@&@*@===",
"===@*@&@$&@$&*@$&& X  oOOOOOo  X *&&&$@@*$@*@*@===",
"===@*@*@$*@@$&&& XoooX       XoooX @$$@@*$@*@&@===",
"===@&@*@$*@@$$@&X##OooooXXXoooooooX @&*@*$@*$@&@==",
"==@&@$*@$*@*&@$X###OXOOOOOoOOOOoXooX@*&@*$@*$@*@==",
"==@*@$*@$*@&*@ o##OXo####OO###Oo XoX @&@&$@&$@&@==",
"==@&@$&@$&@&@&Xo##OXoO########Oo XXXX@*@&$@*@$@&@=",
"==&@$@*@$&@*@&XoOOO ooO##Oo##OoX XXXX @&$*$&@$@*@=",
"==*@$@&$*$&@&@XXooX XoooOOoooooX= XXX @*$@=$&@=@==",
"==@=@&$=@$*@@@ XOOo XoOOOOOOOOoX= XXX @&$@=$&@====",
"====@&$=@$&@@& XXoX  oO##O###OoX = oX =$&@==$@====",
"====@$==@&$=@&XXoooX XO#OOO#OOoX = oo ==@=========",
"=========@==@*Xo###o XO##o##OooX ==  =============",
"=============@XoOO#o oooOOOOoXoo =================",
"===============XoOO XoXoooooXooo =================",
"================XX XXoXXXXXXoOOoX=================",
"=================== XooX   oO#OoX=================",
"=================== XooXX Xo##OX==================",
"====================XXoXX XO##oX==================",
"==================  XXXXXXo##Oo  =================",
"=================    XXX Xo##oX   ================",
"=================    XXX oO##o    ================",
"=================       Xo##OX    ================",
"==================      Xo##o    =================",
"=====================   XXOoX ====================",
"==================================================",
"==================================================",
"=================================================="
};
