/* XPM */
static char *_fbb71bedbdf4562f7ad358e462d2da6lRyqaOOhtUUMvd7k[] = {
/* columns rows colors chars-per-pixel */
"64 64 244 2 ",
"   c #020302",
".  c #040A03",
"X  c #0A0C06",
"o  c #02030B",
"O  c #0B0C0A",
"+  c #080808",
"@  c #110D0E",
"#  c #0D120C",
"$  c #0B1106",
"%  c #12130D",
"&  c #19170A",
"*  c #000313",
"=  c #070A19",
"-  c #0D1117",
";  c #131413",
":  c #151A13",
">  c #191C16",
",  c #1B1C1B",
"<  c #171619",
"1  c #211D1C",
"2  c #1C221A",
"3  c #21251E",
"4  c #29291D",
"5  c #070927",
"6  c #171926",
"7  c #01063B",
"8  c #181C38",
"9  c #0B1734",
"0  c #1D2328",
"q  c #1B2338",
"w  c #0F2E33",
"e  c #232323",
"r  c #2B2C2B",
"t  c #262928",
"y  c #2E332B",
"u  c #33352C",
"i  c #272835",
"p  c #2C3139",
"a  c #333533",
"s  c #3B3C3B",
"d  c #373A38",
"f  c #312F22",
"g  c #231E22",
"h  c #413E3E",
"j  c #3D413D",
"k  c #42443E",
"l  c #5B5E3F",
"z  c #676D3D",
"x  c #000748",
"c  c #010958",
"v  c #061559",
"b  c #08174A",
"n  c #192649",
"m  c #152354",
"M  c #0A254E",
"N  c #282A48",
"B  c #373A45",
"V  c #3A3C55",
"C  c #283455",
"Z  c #091868",
"A  c #141C69",
"S  c #0D1272",
"D  c #162669",
"F  c #132574",
"G  c #293967",
"H  c #283874",
"J  c #2E336F",
"K  c #3E4144",
"L  c #394656",
"P  c #344D53",
"I  c #31486E",
"U  c #424443",
"Y  c #454944",
"T  c #4B4D4B",
"R  c #454849",
"E  c #4E534B",
"W  c #51534E",
"Q  c #474857",
"!  c #4D5255",
"~  c #535453",
"^  c #555A54",
"/  c #5B5C5C",
"(  c #56575A",
")  c #514B55",
"_  c #615D5D",
"`  c #5C615C",
"'  c #5B6358",
"]  c #63635D",
"[  c #68685A",
"{  c #4D4D66",
"}  c #575966",
"|  c #565D76",
" . c #45526F",
".. c #615F6E",
"X. c #5B6267",
"o. c #556572",
"O. c #646464",
"+. c #656A64",
"@. c #6B6C6B",
"#. c #66696A",
"$. c #6D726C",
"%. c #76766C",
"&. c #686A76",
"*. c #6D7476",
"=. c #737474",
"-. c #757A74",
";. c #7B7C7B",
":. c #767978",
">. c #736E72",
",. c #807E71",
"<. c #7C817B",
"1. c #778178",
"2. c #82837D",
"3. c #939A67",
"4. c #11188C",
"5. c #182A8B",
"6. c #293988",
"7. c #2D328F",
"8. c #1924AC",
"9. c #38498E",
"0. c #49558C",
"q. c #546695",
"w. c #57698D",
"e. c #686B87",
"r. c #757885",
"t. c #687898",
"y. c #6D7793",
"u. c #4A55AE",
"i. c #5768AC",
"p. c #6B76B8",
"a. c #6977A9",
"s. c #2733C3",
"d. c #4444C3",
"f. c #6A78D0",
"g. c #827A9F",
"h. c #7D8588",
"j. c #7B8699",
"k. c #759293",
"l. c #7489AC",
"z. c #5F8592",
"x. c #7A87D0",
"c. c #838483",
"v. c #858A84",
"b. c #8C8C8B",
"n. c #878A89",
"m. c #8D928C",
"M. c #8C9488",
"N. c #92938D",
"B. c #95998E",
"V. c #868996",
"C. c #8B9395",
"Z. c #949593",
"A. c #969B94",
"S. c #9A9B95",
"D. c #9B9C9B",
"F. c #969699",
"G. c #928E8B",
"H. c #A09C9A",
"J. c #9DA39C",
"K. c #9BA498",
"L. c #99A28D",
"P. c #A1A49D",
"I. c #A4A99E",
"U. c #A9AB9E",
"Y. c #A8B29C",
"T. c #B2B798",
"R. c #989BA5",
"E. c #858CB7",
"W. c #8A94AF",
"Q. c #9DA3A3",
"!. c #9EA8A0",
"~. c #97AAB5",
"^. c #A3A4A3",
"/. c #A5AAA4",
"(. c #AAADA5",
"). c #A6AAAA",
"_. c #ABACAB",
"`. c #A5A6AA",
"'. c #ACB2A5",
"]. c #ADB2AB",
"[. c #A8B6A7",
"{. c #B3B4A5",
"}. c #B1B5AD",
"|. c #B3BAAD",
" X c #B6B9A7",
".X c #AAADB3",
"XX c #ACB4B4",
"oX c #B3B5B2",
"OX c #B5BBB4",
"+X c #B9BEB5",
"@X c #BBBDBA",
"#X c #B6B8B9",
"$X c #B1AFA8",
"%X c #A29CA0",
"&X c #C0BEBC",
"*X c #BCC3AE",
"=X c #BBC1B6",
"-X c #BDC2BB",
";X c #B3C1B9",
":X c #ACC1A0",
">X c #C0C5BE",
",X c #C3C9BE",
"<X c #C7CABA",
"1X c #C8D4B8",
"2X c #CAE4BF",
"3X c #8793CA",
"4X c #94A8CE",
"5X c #A3A6C9",
"6X c #AAB5C5",
"7X c #B8BAC5",
"8X c #B6B9D4",
"9X c #A8B4D6",
"0X c #A8B5F0",
"qX c #98A7F1",
"wX c #C0BFC7",
"eX c #BDC2C3",
"rX c #BAC4CB",
"tX c #B8C7D3",
"yX c #AFC3F1",
"uX c #C3C4C3",
"iX c #C5CBC3",
"pX c #C8CEC6",
"aX c #CBCCCB",
"sX c #C3C6CA",
"dX c #CBD0C6",
"fX c #CDD2CC",
"gX c #CEDDC8",
"hX c #D0D6CD",
"jX c #D6D8CA",
"kX c #CBCBD7",
"lX c #CDD4D4",
"zX c #D3D4D3",
"xX c #D5DAD4",
"cX c #DADBDB",
"vX c #D4D6D7",
"bX c #D1CFD2",
"nX c #DAE4D2",
"mX c #E3E4D6",
"MX c #CCD3ED",
"NX c #D7E5FE",
"BX c #DEE1E7",
"VX c #E3E4E3",
"CX c #E8EAE9",
"ZX c #F7F6F8",
/* pixels */
"=X|.].].oX+X+X+XaXD.Q.#XD.b.Q..X`.#XoXP./.>XeX.X7X6X.X.X).(.T.{.].oX+X+X=X+XOX].fXuXOXoX+XuXpXaXOX}.iXzXpXiXfXpXxXfXiXuXiXiXiXuX",
">X=XOX|.OXOX+X+X]._._.Q.Z.^.#X#X@X}.}.=X=X}.oX7X7X7XrXsXuX=X X{.OX+X-XuXuX>X-X=X=X+X+X-X>XiXaXfXfX-XpXzXiXiXfXpXhXfXiXiXaXfXfXaX",
">X-X=XOX}.}.OX+X].eX#X).XX@XeXeXiX].U.*X1X1X=X=XoX7X7XsXeX+X}.'.OXOX+X=X-X-X-X-X+X=X-X-X=X-X>XiXcXuXiXzXfXfXxXfXaXpXpXaXfXzXzXfX",
"=X=X+XOX].].OX+XoXOX).oXaX).h.b.D.XX;X'.Y.*X*X'.>XuXsXsXeX-X=X=X-X>XuXiXpXaXfXfXzXfXaXaXfXfXfXfX=X/._.uXiXiXiX=XiXpXaXfXhXzXzXzX",
"+X+XOX|.}.oX+X-XQ./.F.^.@Xm.K i L j.tXXXB.L.T. X+X@XeXeXeX-X;XOX+X+X+X-X-X>XuXuXuX-X-XuXfXaX-XoXI.n.S.+XuX=XOX/.pXaXfXfXfXfXfXfX",
"=XOX}.}.OX+X+X+X/.-X#X/.oX_.X.= n I w.~.;X;X=X<X|.&XaXbXlXsX+XXXOXOXOX+X=X+X=X-X-X-X-X>X-XOXJ.m.=X^.].hXxXpX-XOXiXaXaXaXiXiXpXfX",
"=X}././.].OXoX]./.OXoXQ.Q.oXC.L D v M | W.#XOX{.}.OXuXsXsXeXXX[.].oXOX+X=X+XOXOX=X-X+XoX_.(.].OXfX].].aXiX-X>XuXuXuXiXuX-X>XiXfX",
"+X(.K.K./.]./.J.v.$.=.;.=.h.c.| v F D b n X.h.2.:.:.:.=.*.*.*.*.-.<.2.v.v.c.<.;.=.-.=.#.#.c.OXcXoXn.v.S.Z.m.I.].-X-X>X-X+X-XiXfX",
").].].oX).oX_.~ d r r Y y O.` | v 5.A v G y.h.o.h.C.C.R.C.rXXXQ.uX_.D.Z.b.b.D.).D.D.;./ ;.uXcXuXv.y e : X : 2 W OX-X-XOXoX+XiXpX",
"[.[./.(.P._._.( g s B r d } :.{ G x Z D 7 G t.| &.h.1.v.n.b.*.#XC.b.c.:.>.>.=.;.=.=.:.Z.@XvXvX&XW ; t a > . # / OX=X=XOXOX-XpXpX",
"[.[.I.(.P._._._   r ....r.! V.8XW.t.J D A A 6.3X6XlX'.Y.1X=X=.uXD.#XuX#X)._.oX_.@X^.).uXzX@X^.D.A.-.N.S.^     W OX+X+X+X-XpXfXiX",
" X[.Y.{.U.{.{.] @ < &.e.r.V N W.rXtXw.x 7.7.S 6.8XBXxX<XjXmXc.R.b.@XVXcXaXvXvXaX#X_.@XzXzX#X^.).S.D.OXoX#..   ~ OX+X+X+XiXfXfXiX",
"[.'.Y.|.{.{.(.] % + } Q e.5X5 8 L 6XNXp.c S 7.c q.V.lXxXOXaXn.^.O.%XaXaXuXuX@XoXg.^.uXaXuXoX^.D.m.].].A.^ . + U oX+X+X-XaXxXzXiX",
"/.!.K.|.'.'.U._ %   ) } y.NXN m 7 0.0XyXf.D v H 0.J E.MXtXvXb.].:.).vXcXaX@X#XoXF.@XaX#XD.D.^.D.>XcXoXn.^ X + y ].+XuXiXfXxXfXiX",
".X!.J.oX(.(.U.] 1 O } &.y.5XV m 5.c x 0.yXl.m m u.A 7.p.0XNX*.A.n._.zXcXaX#XoXoXF._.#X^.D._.sXzXOXuXv.-.` # # k ].=XaXfXfXzXfXiX",
"6X).Q.XX(.(.(.+.. e ( Q V.kX9Xv 4.4.5.M w k.~.I 6.5.5.5.x.NX*.!.n.^.uXzXuX_._.#Xb.D.).oXoX#X@X&X-XuX<.;.@.X X Y _.-XfXzXfXfXfXpX",
"/.].I.'. X{.U.[ X % K p | j.5X0XH A c v b G l.4Xi.5.8.s.5.x.z.k.h.#XvXZ.D.D.).uXoX#X^.^.sXvXaXuX).b.c.Z.=., O T @XuXaXvXvXaXaXaX",
"].}.I.{. X X{.[ % < R i q 9 n G 4Xq.A F 7.v q.H l.x.5.4.7.6.I 9Xh.D.aX^._.^._.uX@X^.F._.zXsX^.F.c.D.#XuXD.d ; a @XuXaXzXvXzXaXaX",
"].oX/.'.{. X{.%.  ; O.( Q 8 9 n 5 3X0Xu.4.c 3XI n 4Xl.9.Z F 9.I j.c.uX@X#X^._.@XuX).F.].sX).c.b.].uXuX).#.e , T #X@XaXzXzXzXbXaX",
"].}.I.(.(.{. X%.% % ! } j.e.C 5 G x F qX0X9.a.w.* I q.i.6.v I t.r.=.uX#X^.^.#X#X@X@X_.).).D.D.@XaXaX@XD.O., ; U @XuXaXzXzXaXaXaX",
"/.].J.U.U.{.{.%.t + , i W.8Xt.m c c Z 6.q.MXrXr.= G F F f.a. .lX` =.uX^.D.).aXuXoXuXoXF.D.oXuXcXzXoXD.Z.O., ; ~ @XuXaXaXaXaXaXaX",
"/.].J.U.U.'. X%.% + r 0 &.~.9X0X6.Z Z D 5 j.C.tX0.9.7.S x.MX[.1XE =.uX^.).uXcXaX_.@XD.b.oXvXaX@X_.b.;.b.O.< ; / uXuXaXaXaXaXuXuX",
"J.].I.(.(.{. X;.X ; T B V C | E.9X9.v D D i. .I 0XH H 0.l.~.gXnXE =.@X).aXaXuX@X#XoXF.F.@XaX].Z.=.b.).@Xc.e + s uXuXaXaXaXaXaXaX",
"J.]./.'.'.{. X2.4   r R | N 5 8 w k.4Xu.S 7.i.v m w.w.e.tXeXgXY.^ =.].oXVXaX%X^.@XoX^.^.@X).b.b.^.aXvX#XO.; , O.@XuXsXaXaXaXaXaX",
"K.].].+XoX].oXb.f   4 r R.e.5 J Z Z I 4X~.L y.n x D 3X5XcX=X3.z %.=.).VXuXF.^.zXuX_.D.@Xb.Z.D.uX>XxX+Xm.@.3 X Y +XuXaXiX>XuXiXuX",
"M.J.!.oX].oX@XN.& $ k ; *.kXe.7 Z Z x H 4XNXMXW.q V ~.BXkX.X;.;.@X).^.^.D._.uXuXzX@XD.^.^.#X@XaX+X-X].J.=.e : ^ =XiXaXuX-X>XuX-X",
"J.].(.OXoXoX@XN.4   u r #.8X5XG D F Z c H p.I 8X! ` /.CXF.V.g.8X#XF.b.F.).aXcXaX=.)._.c.^.sXzXuXVXK.$.=.` t 2 Y >XpXiX-X+X-X>X-X",
"/.].(.oXoX#X&XB.u   4 T } { E.a.G M D Z 7.u.c 0.| X.A.P.O.V.8XZXwXO.~ _.CXvXF.O.c.aX@X/ D.vXCXaX@.y 2 d a 2 r Y uXpXiX+X+X-X-X=X",
"M.K.A.).].#XiXH.> & u a B 8 V w.} P I c 4.d.d.4.H  .j.#.2.*XmXiX:.T =.zXzXb.@.c.aXaXD.=.zXaXZ.~ t Y <.v.Y > t Y uXuX-X+X+X-X-X+X",
"K.J.J.XX#X@XuXS.& & f , Q N 5 n P P l.i.7.5.f.5.F 0.E.r.dXmXT.l ] =._.aXD.:._.ZXVX).b.^.zXb.T U A.iXVX-X@.t 3 j +X-X+XOX+XuXuX=X",
"|.+X].-X@X@X&XG.f   3 , *.y.n x v Z q.0X9X3X4X .N e.5X8XCXiX%.[ zX^.b.D.oXaXvXsXZXuXZ.D.b.c.F.vXiXfX].v.` r 2 T oXOXOXOX-XiXiX-X",
"[.|.].@X@X&X>XG.4   s ; &.kXe.v 4.8.F G P [.2X:X2 :.6XNXkXR.&.CX@Xb.c.^.uXcXVXcX).oXD.^.b.uXzXaXaXfX(.c.` # . W ].oXOXOX-XaXpX-X",
"/.OXOX+X_.-XhXm., ; R R r.vX).e.c 6.Z c H a.0.E.5XW.7XcXD.S.jX<Xh b.b.c.ZXVX@XF.;.).D.c.].vXzXaX>X^.<.^ Y 2 # ^ OXoXoX=XpXfXpXuX",
"].+X+X-XoXiXzXm., - ! } h.aXlXNXa.D x m b G G 5 L r.R.C.^.zXOX_ 2.F.c.uX#XF.;.Z.#X@X^.^.zXvX@X_.-.-.<.+.T > X ` >X-X+X-XpXaXuX=X",
"OX+XOX-X+XaXzXb.a - K ! :.^.#.Q t.l.t.G 5 8 y.9 * *.`.R.VX&Xk _ aX^.;.#Xc.g._.vXcX@XD.D.oXD.c.c.m.m.m.=.W : . ^ +XOXOX+X-X-X+XoX",
"}.].].=X=XfXzXn., # K ! C.vX&.o * 9 q o.j.L o.B = ! sXbXuX^.=.VXzX^.b.c.^.).CXcXzX_.b.b.F.F.^.@XVX+XZ.@.E 2 . W oX}.oX+X-X-X=X+X",
"}.].(.-X-XfXxXC.- , ( ( n.BX#Xh.o p = o L r.vXV.X.} BX@XO.oXbX.X~ =.c.Z.CXcXVX@XF.:.=.c.).uXcXVXpXI.<.` T > + ^ +X+X-XuXiXpXiXuX",
"OX].].-X-XpXxXD.r - K T #..X`..X{ * o 0 = * &.} *.C..Xn.`.bX=.r T ;.=.uXzX@Xb.F.;./ #.^.aXVXzX_.<.-.-.+.T X   ^ -X-XuXiXiXuX>X-X",
"+XoX].-XOX-XhXD.t   r K *.#XR.V.tXe.8 = * i } B 6 n.c.C.ZX@XR ;.aXoXb.&Xb.=.:.b._.:.b.aXcXuX).Z.-.$.$.+.Y +   ^ OX+X-X>X>X-X-X-X",
"+XoX].+X].}.iXF., ; B r ( .Xn.! { e.} { N 5 * r.6 :.7XcX`.#.F.CXaX=.=.c.c.b.CXzXoX=.b.uX^.@.=.b.J.=.^ Y d #   ^ oX+X-XiXiXpXaXfX",
"=X=X(.OX-XuX>Xc., , h h ;.D.D.) = * 5 N e.V.! X.} n.aXC.;.bXxXoXT =.#.^.uXcXaXVX^.;.=.=.@.D.vXVX#X;.! d a O   ^ OX-XiXiX,X>X>X,X",
",X,X].}.}.OXoX:.% O e 1 _ G.F.) ..V 6 * 5 B } 7XV.*.C.Q.oXoX` , / b.#.cXZXuXaXD.;.#.b.@XzXVXcX_.:.&.X.j e     ~ OX+X-X-X=X-X,XiX",
"'.|.I././.].oX;.O O < @ ( Z.H.) r.&.Q 6 * o = } ! X.`.sXD.! U D.@X=.uX].^.F.~ =.=.c.@XcXcXuX%X=./ #.#.s 0 O + ^ }.OXOXOX+X-X,XdX",
"B.I.S.K.S.I./.$.O O 1 < _ F.%X) } r.&.R B 6 o o R R.).#.*.oXcXZXA.O.;.O.#.=.).#X:.b.^.).Z.;.=.=.:.@./ d t ; O ^ oXOXOX+X-X>X,XiX",
"A.[.I.K.Z.A.Z.W + + 1 < ( b.H./ } c.} 6 i B B B U r.h.b.eXlXQ.>.e a b.D.@XaXaXF.#.=.:.b.%X^.Z.b.b.$./ R a +   ^ OX+X-XiXiXiX,X>X",
"K.].I.J.S.J.S.W ; + < @ h @.Z.>.! n.! o   # p B d *.Q.sXXX#.( } r / VXoXD.@X=.O./ b.].uXaXoXb.b.c.:.:.#.K     #.OX+X>XaXfXfX,X-X",
"I.|.J.A.A.(././ > + < O e a O._ a ;.` d 0   o + r.aX.X@.O..XbX=.R _.=.=./ / ^.b.c.@XcXzX#Xc.O.=.:.$.$.~ a + . #.OX+X-XiXfXhXdX,X",
"=X-XI.m.m.J.D.W O   ; + @   r r d $./ +.O.r t r *.#.} ^.vXvXR.@ r / T b.@XvXb./ _.@X^.c.;.#./ =.@./ U , , - # ~ +XOX+X>XdXhXhXdX",
"+XS.K.K.N.(.D.Y % O O O O O + +   U O.O.;.:.#.=._ ^.VX#Xb.c.T > ' M.-XbX7XV.| &.e.&.} } O.@.] E u : . . : 2 # $.].-XpXpX-X-XpXxX",
"}.B.A.A.v.P.S.W   + O O O   + O O + ; d U O < #.uXD.;.@.b.).@.d (.OXC.( Q } { Q V i 6 6 B E u % . . > % 2 3 y M.+X>XiXiXiXiXdXhX",
"(.B.S.N.c.S.D.+.3 < O + + O O O + < O     , s #.@./ c._.uX).T , p B p i Q { N 5 = = = = - ; # . $ . : : > u ] [.,X,X,XiXpXdXdXiX",
"U.K.P.B.n.D.P.2.$.U O   O , < + O O ; g ;   e @.^.).vXzX^.O.6 6 - 5 5 8 V N 5 5 5 8 q 6 O o X % 2 $ 2 u T -.S.].,X,XiXiXiXiXiX,X",
"U.U.P.N.b.S.P.Z.P.=.s , , , ; + O + O + + r ;.uX@XD.b.#./ ~ r 6 i B V Q V 8 5 i B i 6 6 6 6 < - > y ' M.(.=X-XI.=X,XpXpX,X=X-X>X",
"P.U.K.N.b.N.A.A.D.Z.;./ s e ; O + O     U oXaXb.e ; < , T #.r     B #.{ B i 6 = 6 6 - - - - 6 6 T m.OXdXiX+X-X[.+X>XpXpX>X=X=X-X",
"P.U.A.v.b.N.N.Z.Z.S.D.b.=.T r < <   ; @.b.#.r   ; + < ; e d < O ; j d ; o o     o = 6 6 6 = 6 p @.dXhX,XOXJ.OX-X-X>X,XiXiX,X-X=X",
"P.(.A.v.N.N.b.Z./.S.Z.D.%Xc.~ e @ r ( W O   ; , , + ; + + O   > $ .   . % # X e , - - i B N i q U OX+X}.+X/.OX>XiX>X-XiXfXfX,XOX",
"I./.N.2.m.m.v.v.].I.J.(.J.=.j 3 O % O     % % O : +   O % O + + . X ; : : : # # : k -.J._.I.<./ $.+.1./.iXiX+X|.].=XiXdXfXfXiX=X",
"/.].D.m.D.K.Z.Z.]./././.A.$.k t d s s u t e :       O : % + + % # # X . . ; y Y v.=XCXVX+X(.+XfXK.A.K.'.+X-X=X-X].+X>X,XpXfXfXiX",
"^._.D.m.J.^.S.S./././.]./.m.-.+.;.c.b.b.2.%.^ s > % O % : % % : X # # # 2 Y <./.VXiX/./.-XzXuX/.+X-X-XOXOX=X-X=X|.=X>X-XiXfXfXdX",
"J./.J.Z.^./.D.D.K.^.].oX}.(.^.I.A.I.oX>XuXoXS.c.^ u X   X % % % # > y Y ] v.oXfX-X].I.^.oX-X=XoX}.>XiX-X-X,X-X[.=X>XiX,X,XpXpX,X",
"^.].^.J._.].J.J.^._.].]./.^.J.K.2.n.S._.+X}.P.N.v.] d 3 % % : 2 j T ` :.Z./.].OXD.].uXuXOXoXuXxX'.+X-X=X>XpX=XI.OX>XiXiXiXdXiX-X",
"J.].^.D.(.(.S.A./.].]./.^.J.D.A.2.;.c.A.P.D.N.c.Z.Z.N.=.Y u s ^ <.<.n.K.].OX].(.OX/.J._.-X-X+X].=XOX|.}.OX-X+X].}.=XiXiXpXfXdX,X",
"J._.J.S./.^.m.n.I.(.]././._./.S.S.m.b.D./.P.A.N.Z./.oX_.b.%.;.N.A.D.^.].OX+XOXoX_././.]._.^./.oX+X}.].].].].|.=XOX-X,X>XiXdXdXiX",
"/.oX(.I.]./.Z.m./._.]./././.D.n.P.N.N.P.]._./.P.N.Z.D.(.(.P.P./.A.J.].}.].(././.S.m.m.D.^.J.D.J./.I.[.OX}.I.[.-X,XiXiX-X-XiXiX,X"
};
