/* XPM */
static char *a950b79b776840b3aef68fd9f6b2933eRCjT9V3GYX6yKiBv[] = {
/* columns rows colors chars-per-pixel */
"64 64 190 2 ",
"   c #000202",
".  c #050906",
"X  c #01040A",
"o  c #060A0B",
"O  c #090E0C",
"+  c #080E05",
"@  c #0D120C",
"#  c #10150F",
"$  c #0A0D12",
"%  c #040612",
"&  c #0E1213",
"*  c #111514",
"=  c #151A15",
"-  c #12161B",
";  c #15191B",
":  c #191E1D",
">  c #1D221D",
",  c #1A1E22",
"<  c #161920",
"1  c #1E2223",
"2  c #1F2229",
"3  c #222624",
"4  c #242924",
"5  c #22252B",
"6  c #25292B",
"7  c #292D2C",
"8  c #2C312D",
"9  c #30352F",
"0  c #272A32",
"q  c #2B2E34",
"w  c #2E3133",
"e  c #2F323A",
"r  c #313636",
"t  c #33363C",
"y  c #35393B",
"u  c #393D3D",
"i  c #363B35",
"p  c #3C413D",
"a  c #40453F",
"s  c #333542",
"d  c #363942",
"f  c #3A3D43",
"g  c #3E4243",
"h  c #3F414B",
"j  c #414545",
"k  c #454946",
"l  c #42454B",
"z  c #464A4C",
"x  c #494D4E",
"c  c #4C514E",
"v  c #464952",
"b  c #4A4D53",
"n  c #474955",
"m  c #4E5253",
"M  c #4F5159",
"N  c #515655",
"B  c #555955",
"V  c #585D57",
"C  c #52555B",
"Z  c #55595B",
"A  c #595D5D",
"S  c #5D615D",
"D  c #60655F",
"F  c #565962",
"G  c #5A5E63",
"H  c #545663",
"J  c #5E6164",
"K  c #5F6269",
"L  c #616564",
"P  c #646965",
"I  c #62666B",
"U  c #666A6B",
"Y  c #696D6C",
"T  c #686D67",
"R  c #6D726D",
"E  c #6F7567",
"W  c #71766D",
"Q  c #747B6E",
"!  c #6A6D72",
"~  c #666873",
"^  c #6E7274",
"/  c #6E7178",
"(  c #727674",
")  c #757A75",
"_  c #787E76",
"`  c #72757A",
"'  c #767A7B",
"]  c #797D7B",
"[  c #7B8275",
"{  c #7D827C",
"}  c #80867D",
"|  c #83897E",
" . c #737681",
".. c #767981",
"X. c #7A7D82",
"o. c #7B7D89",
"O. c #7E8284",
"+. c #7F8289",
"@. c #818683",
"#. c #858A84",
"$. c #888E86",
"%. c #82868B",
"&. c #868A8B",
"*. c #898E8B",
"=. c #8B9185",
"-. c #8D928C",
";. c #90968D",
":. c #92988E",
">. c #878A91",
",. c #8A8E93",
"<. c #8C8E9A",
"1. c #8E9293",
"2. c #8F919A",
"3. c #919693",
"4. c #959A94",
"5. c #989E96",
"6. c #92959B",
"7. c #969A9B",
"8. c #999E9B",
"9. c #9AA096",
"0. c #9DA29C",
"q. c #A2A89E",
"w. c #A0A69E",
"e. c #9699A3",
"r. c #9A9DA3",
"t. c #9699A4",
"y. c #9EA2A3",
"u. c #9FA1AA",
"i. c #A1A6A4",
"p. c #A4A9A4",
"a. c #A2A5AB",
"s. c #A6AAAC",
"d. c #A9ADAD",
"f. c #A8ADA7",
"g. c #ACB1AD",
"h. c #B0B6AD",
"j. c #A4A6B2",
"k. c #A7A9B2",
"l. c #AAADB3",
"z. c #ACAEBA",
"x. c #AEB1B4",
"c. c #AEB1BA",
"v. c #B1B5B6",
"b. c #B2B6BB",
"n. c #B5B9BC",
"m. c #B9BDBE",
"M. c #B5BAB6",
"N. c #BDC1BF",
"B. c #B4B6C1",
"V. c #B6B9C2",
"C. c #BABDC4",
"Z. c #BBBDC9",
"A. c #BEC1C4",
"S. c #BEC1CA",
"D. c #C1C5C6",
"F. c #C4C8C6",
"G. c #C2C5CC",
"H. c #C6C9CC",
"J. c #C9CDCE",
"K. c #CCD0CE",
"L. c #C4C6D2",
"P. c #C6C9D3",
"I. c #CACDD3",
"U. c #CBCED9",
"Y. c #CED1D5",
"T. c #CED1DB",
"R. c #D1D5D6",
"E. c #D2D5DC",
"W. c #D6D9DD",
"Q. c #D9DDDE",
"!. c #D4D9D6",
"~. c #DCE0DF",
"^. c #D3D5E2",
"/. c #D6D9E2",
"(. c #DADDE4",
"). c #DBDEE9",
"_. c #DDE1E5",
"`. c #DEE1EA",
"'. c #E1E5E6",
"]. c #E2E5EB",
"[. c #E5E9ED",
"{. c #E8ECEF",
"}. c #E4E6F3",
"|. c #E6E9F1",
" X c #E9EDF3",
".X c #ECEFF9",
"XX c #EEF2F7",
"oX c #F3F6FB",
"OX c #F6FAFF",
"+X c #FBFEFF",
/* pixels */
"' ^ O.X.7.^ ] 1.` %.,.X.X.X.] ] R -.R L ) T ) R T R X.O.( ] ' &.O.X.^ 6.] %.! a.6.1.O.' &.O.] ] O.%.1.^ X.%.! O.%.O.O.%.O.' ! U ",
"O.%.y.a.G.r.s.G.n.Y.7.l.C.y.1.' g.#.f.4.-.$.4.-.y.*.3.y.y.1.a.3.y.7.G.y.7.C.n.s.x.y.I.d.A.Y.A.D.a.n.l.s.Y.x.b.n.l.d.l.v.v.y.O.Y ",
"&.6.b.b.A.,.1.s.y ^ A I 1.G s.8.$.B F.p.k T d.d.Y m 1.x.C.y.H.a.%.z x.Y.,.! y.I.l.&._.b.^ A Z 8.C.' C C.].X.r.R.Y.I.J.Y.R.A.7.' ",
"^ &.n.A.Y.y.x.R.w w J 5 N g H.6.= 8 N.K.* J Q.J.m 2 C.I.(.G./.I.%., C J.K , r. XZ b n.oXG & r G.[.e e XXs., j W.W.R.I.I.I.A.i.%.",
"` ,.A.H.W.l.D.{.1.1 z , 6 7.G.y   1 S _.1 L W.s.X., T.b.L.(.G.E.n.J k ` G e oXn.5 u G +XU e m v.[.7 K +Xg 2 ; 1.H.Y.E.I.G.m.y.&.",
"%.7.D.A.J.7.s.Y.C.f l L ,  Xs.O *.Z   s.t C 7.! ,.- 6.~ e.}.G.).` m Z r L X A.u &.,.6 r.l Z L G n.f Y a.5 s.m 6 A.R._.(.Y.D.a.%.",
"X.6.A.H.W.s.n.Q.'.a.a.H.U [.y.t '.v.l 3.^ ' 6.O.+.b >. .t.`.T.(.7.,.b.y.C.A x.%.W.E.^ 1.X.s.x.7.x.X.%.&.X.OXy.A n.H.R.Y.Y.I.l.*.",
"*.r.G.A.G.&.,.s.s.3.r.s.7.a.7.C O.m.b.y.l.s.k.r./ 6.z.z.u.j.u.6.x.s.3.y.1.b.7.C.d.n.A.n.n.s.i.b.b.m.m.l.n.a.8.W.x.b.b.v.A.J.b.3.",
"*.d.D.J.( . & u 6 2 6 5 , 5 0 - , * - : * O ; w y * : 6 ; w y   o $ - 2 2 , 5 q t h v l f d y t s s s d l b b M G q e g H.J.D.*.",
"-.i.x.M.J O m n.C.n.A.G.C.G.G.l.C.v.l.v.v.s.8.6.v.x.Y.W.D.D.&.& o G b.T.I.I.I.G.|.H.b.C.P.H.P./.T.U.P.P.T.E.E.T.A.K y j H.A.x.%.",
"] 3.v.F.P   Z Q.H.D.I.E.T.E.I.l.x.D.I.A.x.m.E. XC.G.I.A.A._.s.5 o O./.E.n.G.E.E.V.H.(. X(.I.I./.^.^.T.T.E.E.T.I.XXI 5 y H.m.s.%.",
"R *.m.~.(   u H.C.b.C.G.S.G.C.r.G.Y.E.E._.[.W.C.E.(./.H.H.(.a.t   ` (.|./.`.`.I.E.E.I.C.P.(.(.L.^.^.E.^.(.(./.E.(.Z ; w J.D.x.%.",
"{ *.x.R.^   k (.I.G.I.Y.I././.S.V.I.T.G.S.P.U.P.Y.T.T.G.b.e.F $ t b K G K X.6.r.n.P./.(.(.(._.`.U.U.T.^././.E.T.(.U q e D.H.n.O.",
"@.#.s.Y.(   x Q.H.A.H.I.H.E.(.I.G.T./.E.I.T./.(.l.%.M t d F %.k.6.,.6.y.u.,.! F G I ,.H.(.I.G.T.).).).`.].(.E.I._.` t 7 v.m.v.%.",
"{ -.x.R.(   j H.W.W._.(.I.E.(.T.U.Z.Z.E.(.V. .l M ` u.U.}.).T.^.OX[././.(.(.(.(.G.>.M G a.|..XE.P.P.P.P.P.G.V.c.(.I 6 q n.x.s.&.",
"-.5.v.H.U   N '.I.I.E.P.x.l.b.j.c.E.}.Z.I s I z.U.).^.P.U.L.L.^.S.I.E.E.T.T.Y.I.G.oXE.I l 7./.E.^.^.(.).)./.I.G.[.K 6 j J.s.7.%.",
"{ 1.n._.O.. N '.I.I.A.].T.d %.U G A.y.J ! n.oXI.E.P.L.U.T.U.U.^./.^.^.E.^.^.^.T.}.B.). Xz.h <.+XL.U.).^.E.).E.E.(.Z & u m.n.7.O.",
"-.0.A.W.( . Z '.I.{.E.C.l.G l.d ^ U Z s.[.Y.H.A.A.C.G.I.U.L.P.T.U.T.U.U./.}.^.S.G.(.).T.).o.v t.T.P.U.T.E.T.G.T._.F $ t v.v.7.%.",
"3.f.A.J.T . Z Q.H.H.C.C.b.! C.e v.y.O.8.n.s.n.Y./.E.I.L.Z.Z.L.^.).Z.V.E.).U.L.U.T.Z.^.^.L.U...M P.L.S.U./.P.S.E._.C X 6 s.d.3.O.",
"#.p.A.J.U o Z Y.C.s.b.W.G.~ b.5 r.Y.R.x.y.r.a.s.E.T.I.I.P.L.L.L.(.U.S.Z.Z.Z.L.E.).B.T.^.z..X<.5 j.U.L.P./.P.I.E.E.b   2 y.y.&.` ",
"{ i.H.R.( O m A.n.H.E.E.c.I V., y.y.d.m.J.n.e.s.r.a.C.T.).).P.B.c.).).z.r.S.^.P.P.).U.L.P.^.n %  .).(.P.T.P.E.I.I.l   2 i.i.&.^ ",
"$.i.F.Q.] O z m.Y.Y.Y.W.b.C G./ Y.d.8.7.l.l.r.A.a.k.c.V.L.T.T.P.b.V.L.U.Z.z.Z.^.E.T.P.T.L.U.t.h H }.].G.P.S.I.C.I.z   6 s.d.1.' ",
"*.4.v.Y.( . x Y.E.H.C.R.C.b E.I.H.J.W.b.l.x.6.l.b.V.b.a.a.B.U.(.T.j.k.^.(.c.j.L.`.Z.G.).B.U.+X/ C }./.G.T.C.I.G.Y.v   6 s.x.7.%.",
"O.O.7.m.U   m '.n. XE.x.a.I .XH.W.A.R.H.H.A.a.E.%.u.B.c.j.z.Z.P.T.^.Z.a.V.(.L.<.G.}.G.S.).Z.T.v F ].P.L.(.Z.E.E.E.z   2 i.d.8.*.",
"O.r.s.x.K . b Y.A.l.l. Xl ! A.r.n.r.S.b.C.G.E.].A.C.6.r.r.r.n.n.G.E.T.V.n.H.I.G.P.E.I./.l.u.e.5 C.T.T.C.V.I.I.A.W.j   1 d.g.1.) ",
"] 6.v.H.Y   j W.H.x.n.x.G U b.l.n.6.b.a.a.a.z.b.].|./.H.a.7.l.C. XE.H.G.b.a.c.I.S.C.V.I.b.v - I L.U.C.e.6.l.A.C.Y.b . 6 0.7.O.) ",
"` &.v.W.^   z ].b.(.I.y ( C.E.,.I.u.G.a.V.a.l.a.6.2.V.P.T.I.c.6.a.k.G.].`.S.l.z.k.e.7.r.G.C 5 +XE.T.n.,.%.r.b.b.I.m . 3 4.4.*.@.",
"^ O.d.I.U   b H.Q.W.b.l n.G.y.b.E.6.E.6.W.u.S.u.H.6.k.r.b.H.V.6.>.6.6.,.1.e.1.` 6.y.V.l.C.I q ..W.(.Y.b.d.n.A.m.J.c   = =.5.-.@.",
"^ %.l.G.I o r U ! H.a.6 %.W.y.r.G.X.T...(.,.C.6.T.k.H.a.r.r.b.2.A.b.e.>.e.C.A.l.,.2.C.c.,.! ,.q 1.r.y.6.1.8.8.3.-.r   = @.$.@.) ",
"( &.n.I.I X & - - *   , ' x.*.n.Y.,.E.>./.6.S.e.k.6.V.V.G.k.I./ S.7.O.2.k.l.x.n.b.,.n.k.I Z E.! & : 1 : : 6 8 8 9 .   > { { | #.",
"' &.C.W.U   - 5 - 5 $ 3 b s.C.>.I.a.S.k.V.k.k.y.W.c.r.u.V.6.[.! I.a.>.6.a.k.n.I.H.r.E.n.%.5 v e 3 6 3 : : > 3 3 9 +   > { =.-.=.",
"O.O.n.(.I   y U b.C.C.x.Z m s.6.a.,.>.y.' e...%.` O.%.e.u.I E.Z - l ` e.S.(./.G.>./ a.O.b.Z h 1.m.m.n.d.0.4.-.*.=.p + = | 4.=.E ",
"_ *.D.W.(   & ' n.[.I.Y.].,.X 2.B.2.t.j.t.a.z.t.t.j.j.t.2.<.o.~ K %.+.u.1.r.%.u.%.+.E.%.T.G.f I.8.A.R.4.g.0.3.3.y.g . ; &.7.3.O.",
"@.1.D.Y.Y   w x.E.x.E.(.G._. .v /.U.^.T.Z.U.`.U.E.^.T.L.P.U.G.k.,.r.6.X.k.l.C.T.` 2.].G.E.X.l V.'.n.4.O.8.3.&.3.i.k O 1 1.8.1.] ",
"@.1.D.Y.U . k _.Y.I.H.(.x.`.^.5 S.U.).T.Z.P.(.U.E.U.L.Z.L.^.U.Z.S.C.c.G I.C.]._.6.x.I.E.H.K v t O.i.i.7.*.s.s.8.i.k & 6 4.y.3.@.",
") -.H.W.Y   k '.G.(.I.G.Y.E.2.d Z.G.T.E.P.L.P.L.U.U.L.S.P.^.^.P./.E.S.K /.P./.C.6.l.G.Y.W.A.C.l & S ] y.%.y.y.3.i.g o 3 4.y.7.*.",
"{ -.J.Q.Y   g Q.Y.l.(.A.].C.t X.(.P.S.U.^.L.Z.L.U.E.^.T.T.^.^.^.T./.b.` G.T.P.s.>.7._.E.P.E. Xa.*.S 3 *.s.8.-.y.s.g . 1 1.7.3.*.",
"-.3.A.K.P   g _.H.H.A.].b.e ..P.).^.S.G.T.L.Z.U.S.P.E.U.P.L.L.P.P.H.a.O.r.I.I.n.k.+.G.S.A.c.V.P.'.i.4 S v.g.i.y.d.g . 1 1.3.*.#.",
"-.@.d.D.P   g Q.C.oXn.].k.$ a.c.u.E.(.P.^.^.U.(.E.E.^.^.E.U.U.T.I.V.k.>.&.c.E.C.C.+.>.y.(.A.b.E.d.A.j 7 7.i.s.*.y.y   6 7.7.*.#.",
"] R 8.A.R o g R.H.H.[.x.(.l.v l s k./.S.L.T.L.G.^.U.P.U.U.U.U.U./.b.C.6.%.6.P.k.C.a.X.X.S.6.%.,.n.F.j w n.y.x.g.*.6   8 i.i.4.1.",
"( ) 0.!.'   g _.I.I.I.Y.E.E.T.I.l 0 (.].G.H.E.b./.C.I.Y.S.S.G.I.I.L.P...1.X.&.W.v.d.D.&.O.&.f.5.U r   1.y.R 1.y.d.7 * o A i.g.3.",
"*.@.8.F.' o m Y.A.H.Y.E.E.T.T.E.T.G l K /. X6.u.G.].P.n.XX[.l.S.I.U.c.r.,.s.^ ,.v.s.x.m.s.s.i.d.. u &.D.3 . @.f.i.7 O   k %.8.y.",
"] *.d.F.U   x R.I.Y.E.Y.H.S.G.P.H.T.u.K &.`.n.I./.P.H.P.l.6.l.P.Z.T.G.b.&.a.%.3.O.s.d.A.4.i.] R 7 &.8.( u A %.i.n.j + O ] y.8.0.",
") #.d.J.U   x Q.H.I.Y.I.H.G.I.E.S.[. X,.- A.].u.H.T.E.a.K 6.oX_.G.Z./.b.x.6.a.6.&.%.S { *.O.p + 1 m u . m i.O.1.7.y   & &.1.] { ",
"3.*.y.J.( . N [.A.H.E.W.W.T.U.I.`.n.I.Y.q l.OXE.V.e.f 0 q , M ,.E.b.C.A.W.x.s.' O.s.d.7.) 3 A 5.7 : S y : x A L *.p   * ' ( ] *.",
"@.4.n.K.L   k (.Y.(.]./.S.s.e.6.I.S.n.P.f f g G z l G G.n.K F f c.G.k.I.n.A.n.n.*.s.L 1 A U f.-.5.Z L k A ( Y T x.c   * %.7.v.i.",
"R 5.A.Y.( O w X.y.d.l.6.` U ..2.2.k.6.C.l.c.%.>.V./.E.r.f ! a.  b S.V.C.r.x.G.(.i.Y.L w ] x.!.i.%.N 7 1 8.A.8.( ^ 6   4 %.7.m.-.",
"#.4.y.D.n.Y w   6 f l t q M u.|.P.I.S.|.H.C.C.E.a.u.F K ! ! X.2 X e.P.a.H.s.x.%.m.1.. Z y.*.( ] y u 3.#.L Y -.6   & j ^ O.Y x.4.",
"&.-.i.H.[.Q.l.O.v t m M 0 C z.U.G.n.C.Y.Y.C.v.n.&.' G y.v.W.1.*   L H.m.n.i.n.d.5.6 g 1.r y i.S p V S p : @ +   4 V *.5.3.=.3.5.",
"8.*.] %.y.D.Q.].O.q 5 f e b r.Y.E.A.s.l.G.E.H.x.Y.y.O.b.x.6.K o   L m.i.i.i.v.3.  j *.8.5.3.1.s.g.4.S 4 # 4 p a $.4.9.-.@.-.i.h.",
"3.#.) R ' 3.b.J.O.m C K e < l ! l.Y._.J.b.C.H.H.d.l.s.r.r.y.&.&   Z H.v.m.f.^ . u 7.d.J 3.v.A ' i 4 @ * p ) 3.-.) { } ) ) { -.;.",
"#.*.*.#.] ( ( ( x.D.].Y.O.l 6 $ - A s.Y.Y.D.x.r.x.I.E.a.b.G.x.& 3 A m.N.#.> 7 B p x P A #.g.U 7 + = 9 A -.g.w.#.A R { } @.$.*.$.",
";.;.-.-.#.{ _ ) L ' i.D.Y.R.A.y.l 2 ; x 6.A.G.C.G.b.b.l.G.b.8.- & ' 3.1 : L *.k 3.^ B J u > 7   T ) @.$.-.$._ T ) } @.] ( { -.5.",
"-.=.=.=.-.-.-.$.#.R U ] %.O.7.A._.7.z 2 1 g &.H.x.v.s.y.x.C.r.$ : 1 k A 0.f.i.] 1.T   o 1 * L s.{ @.@.) P L R ] ) } @._ ( { -.5.",
"| =.:.4.4.-.$.#.3.#.] ( P N ^ s.n.H.H.3.g & , g ,.G.H.n.s.Y.r.    A m.g.x.i.n.s.p r   : U ' %.n.{ #.$.@.) W { *.{ $.3.3.4.0.0.9.",
"=.:.4.:.=.=.3.9.$.0.4.*.1.&.L x *.y.b.m.n.r.C & & x ` A.s.v.O.2   A x.y.s.*.J O o + k A @.d.@.] ] ] { } @.#.-.5.3.-.$.@.*.4.4.-.",
"4.0.p.i.0.5.5.5.4.3.0.5.-.3.3.} k D ) -.g.g.i.f.L :   x %.x.a.$   V g.p.c + @ i R ) ) @.3.#.( ] } { } #.#.} #.-.Q { | $.-.:.-.| ",
"5.9.0.0.5.5.5.5.9.4.0.0.5.0.w.-.] T x k ( -.8.d.m.y.Z 6 $ f U ; 3 7 4 # @ i ) p.( #.#.#.3.*.{ @.$.| } | #.#.-.0.#.#.} { | :.9.9.",
"0.5.4.4.5.5.5.4.0.4.5.0.0.f.f.;.{ #.) S B B L { f.x.x.x.` 2 $     @ 4 a ) i.i.$.] 4.4.$.=.-.$.*.:.=.#.| } | -.0.4.:.-.=.:.f.h.h.",
"5.4.3.4.5.5.4.-.5.-.-.3.4.p.i.$.Q 4.q.:.) B k B g 5.x.1.3.7.Y 7 8 S @.;.f.M.0.R { 0.0.@.@.-.=.-.4.-.=.=.| [ { $._ } $.=.:.0.0.5.",
"4.3.3.5.0.9.3.*.5.*.*.-.-.5.5.{ $.$.[ [ -.#.R P N u 7 c 3.3.@.x.$.p.f.#.{ =.3.#.{ 0.5.] { #.#.*.$.=.;.4.;.} _ [ _ | -.4.w.f.q.4.",
"4.4.4.5.5.5.3.-.5.-.-.-.*.4.4.{ } | Q W | $.} $.k P V 8 A 3.( J @.3.;.{ } ;.3.@.#.5.-._ ] { { #.{ | ;.0.5.=.} } -.4.5.9.q.g.g.q.",
"5.5.5.4.3.3.4.5.5.3.4.3.*.3.5.#.Q =.=.| | [ [ ;.9._ W S L S j T @.{ ) _ *.0.0.4.3.5.$.{ @.{ ] #.} } $.:.;.$.$.=.| $.$.#.=.4.4.-.",
"0.0.5.3.-.-.5.p.4.3.4.3.$.3.5.=.;.=.[ Q =.:.=.:.| _ =.R R #.R ) ] { #.3.0.0.3.*.5.4.#.} *.{ ) #.=.#.} | } { | =.-.4.5.9.0.q.0.:."
};
