/* XPM */
static char *_79df9d5ce8648b488db341033b0dee5ZVcqLfWvn7SgnX4M[] = {
/* columns rows colors chars-per-pixel */
"64 64 152 2 ",
"   c #010300",
".  c #050904",
"X  c #090B06",
"o  c #060A09",
"O  c #0C0E0A",
"+  c #0D120C",
"@  c #12130E",
"#  c #141612",
"$  c #151914",
"%  c #1A1B16",
"&  c #1C1D1A",
"*  c #1E221C",
"=  c #21231E",
"-  c #1E2221",
";  c #242522",
":  c #252A24",
">  c #292A25",
",  c #262A29",
"<  c #2C2D29",
"1  c #2D312C",
"2  c #31332E",
"3  c #333431",
"4  c #353A34",
"5  c #3A3B36",
"6  c #363A39",
"7  c #3C3E3A",
"8  c #3E423C",
"9  c #41433E",
"0  c #3E4241",
"q  c #434542",
"w  c #464944",
"e  c #4A4B46",
"r  c #454948",
"t  c #4C4D4A",
"y  c #4D524C",
"u  c #51534E",
"i  c #545552",
"p  c #555953",
"a  c #595B56",
"s  c #5C5D5A",
"d  c #5E615B",
"f  c #61625D",
"g  c #636562",
"h  c #666964",
"j  c #696A65",
"k  c #6C6D6A",
"l  c #6E716C",
"z  c #72736E",
"x  c #747572",
"c  c #767973",
"v  c #797A75",
"b  c #777B7A",
"n  c #7C7D7A",
"m  c #7E817C",
"M  c #81827D",
"N  c #848582",
"B  c #858984",
"V  c #898B85",
"C  c #868A89",
"Z  c #8C8D8A",
"A  c #8E928C",
"S  c #92938E",
"D  c #8E9291",
"F  c #949592",
"G  c #959994",
"H  c #999B96",
"J  c #979B9A",
"K  c #9B9D9A",
"L  c #9DA19C",
"P  c #A3A49F",
"I  c #A1A39E",
"U  c #9DA1A0",
"Y  c #A0A0A0",
"T  c #A5A6A1",
"R  c #A3A6A2",
"E  c #A5AAA4",
"W  c #A9AAA5",
"Q  c #A8A9A4",
"!  c #ABACA7",
"~  c #A9ABA6",
"^  c #A6AAA9",
"/  c #AAAAAA",
"(  c #ADAEA9",
")  c #AEAEAC",
"_  c #ABAEA9",
"`  c #ADB2AC",
"'  c #B1B2AD",
"]  c #B1B2AD",
"[  c #B3B4AF",
"{  c #B1B3AE",
"}  c #AEB2B1",
"|  c #B6B7B2",
" . c #B3B6B1",
".. c #B7B8B3",
"X. c #B5BAB4",
"o. c #BABBB6",
"O. c #BBBCB7",
"+. c #B9BBB6",
"@. c #B6BAB9",
"#. c #BDBEB9",
"$. c #BDBEB9",
"%. c #BBBEB9",
"&. c #BFC0BB",
"*. c #BDC2BC",
"=. c #C0C1BC",
"-. c #C1C2BD",
";. c #C1C3BE",
":. c #BEC2C1",
">. c #C4C5C0",
",. c #C5C6C1",
"<. c #C3C6C1",
"1. c #C7C8C3",
"2. c #C5CAC4",
"3. c #C8C9C4",
"4. c #CACBC6",
"5. c #CBCCC7",
"6. c #C9CBC6",
"7. c #C6CAC9",
"8. c #CCCDC8",
"9. c #CDCEC9",
"0. c #CECFCA",
"q. c #CBCEC9",
"w. c #CFD0CB",
"e. c #CDD1CC",
"r. c #D0D1CC",
"t. c #D1D2CD",
"y. c #D2D3CE",
"u. c #D3D4CF",
"i. c #D1D3CE",
"p. c #CED2D1",
"a. c #D4D5D0",
"s. c #D5D6D1",
"d. c #D3D6D1",
"f. c #D5D9D4",
"g. c #D8D9D4",
"h. c #D9DAD5",
"j. c #D9DBD6",
"k. c #D6DAD9",
"l. c #DCDDD8",
"z. c #DCDEDA",
"x. c #DDE1DC",
"c. c #E1E3DE",
"v. c #DEE2E1",
"b. c #E3E6E1",
"n. c #E5EAE4",
"m. c #E9EBE6",
"M. c #EBEEE9",
"N. c #EDF2EC",
"B. c #F2F3EE",
"V. c #F3F6F1",
"C. c #FBFCF7",
"Z. c #FBFEFA",
/* pixels */
"c M M n M S Z n f ( s H V v V v k k S v Z n S N N S v M M v M M M v x H f S H x M M M v v Z V z z N x f x x k C N C N b Z N n N ",
"M S S S F I H V v M ] H M M F S S z S z M ( H S F T n M M S n M z n j M S v s n N M M v n n v z k N N V N D N N C C x k b N N D ",
"P ] | [ | -.o.! H f j f u M n u Z F v x P S 9 z M H f 9 v H n M M M z e f e f M j i e f S v u u k f e s 0 N Y Y Z D b x n N N D ",
"$.5.w.1.5.s.u.;.-.V   5 = i e = n K X 9 ] j X 9 M M 9 O z H M v M v n X X % V n = X   u H f = q t , ; x r N N x C F Z Z J Z n N ",
";.r.r.,.,.u.s.5.u.$.& 2 % = = z Q f   X x Y - r >.S x X K T P S S M S X X % N M = X X j T u > v ) 0 @ s 3 b Y / N Y D Y Y D b b ",
",.u.u.1.,.r.u.0.-.Z v X 5 = # ! N X s % O Y 9 3 Q z x X V M S S H Q v X e > a T u X   e S f 5 j N ; & b s n N Z D Y D Z D Z b N ",
"=.u.g.w.8.u.t.3.P j Z & z a 9 F u X F t O a 3 3 a 5 f @ u a f n M V u X f 5 5 z f & X 5 z f 9 3 N 7 < i r k D Y Y Y D Z D Z N Z ",
"[ 1.s.w.5.w.1.O.M S H M H M I V F M N V Y k b N M v Q n j N z ! v v M f V M z < z v H H M M M x F x n N x n J N D Y D Y Y Y Z Z ",
"$.g.h.a 9 = 9 = & % % % = = = & & 6 & & - & , & ; - - - # @ # - @ > & @ = % X X > > % % % = = @ % % % # @ % @ @ 3 3 # 3 ) H N V ",
"o.y.w.9 = < M M M z s u u i a a s t i 6 g g s s i s i t s k t % X e a u f f i f e < @ = u x j e a f f a 9 9 9 u x s O % Y Y S Z ",
"$.w.9.< X < $.c.l.-.H M v n M S Z C n N F Y D Y Z Y C x D / s o X a P Q ] ! T W $.K z s j M H H S H K S M N M H 7.n # X Y ! H V ",
"&.u.h.3 X > -.l.c.-.K M z M M V N N 3 n N J x x n D C x D } x @ = z T H M M N n K ! ( I S S P T H P T T P W ] $.p.N @ O ! [ H M ",
",.s.c.9 X < o.&.( P M v z M M n Z t - 7 b Y r 3 Z D n i 0 0 >   X < j n V W ] P T ] | ] ] ] ] T T P P T ! | o.$.o.n X @ ! ( S M ",
"4.w.c.9 X 3 $.) M M M N M M M M N 3 Z , x n 0 s , 7 0 3 2 i n D S x s 5 2 9 j f S ! O.$.O.O.o...$.| ( ] ..o.| ) o.M O @ P P V M ",
"-.9.l.9 X < o.P M M M M S S V M 0 t N 0 r 0 i Z k n x s s Z -.c.K I ,.c.;.! M a 2 u n P o.-...Q $.O.O.O.$.o.| ) ,.M X X T ! S M ",
"-.-.c.9 X > W S M M V M S S S V < Y - k 0 r Y Z D Y D g f S ..$.( H ) ;...| ;.&.T j 2 2 x ..>.] Q ] ..O.$.....o.9.n X X ] &.P M ",
"w.g.k.0 o - ^ ) / } g b C b D 6 g s # u V n I Z V M M V S H Q O.M P -.h.;...! ] ;.| h.M @ 5 M ;.! I ! o.` *.*.*.*.m . . ` *.A m ",
"4.s.k.r O , } :.@.p.^ D D ^ s - D J k N F M T ..[ S z z S ] | ! S [ ;.y.r.;.-...I ;.&.=.a.f = P $.&.o.] *.*.*.*.e.m + + *.*.L m ",
">.p.k.q o 3 @.p.p.p.k.@.} @.6 t k.h.5.y.g.! M z M M M M H ! P K T ;.h.;.;.g.a.=.] ;.;.h.0.M a 9 ~ 8.O.P ` *.` *.d.A + $ *.*.G m ",
"&.7.p.7 o , :.p.k.@.p.p.v.C 0 @.K D S H &.g.5.l.| P V n x x M M =.g.l.y.;.y.y.;.a.o.;.;.M ! ;.* j ..&.I *.*.` *.d.m + $ _ *.G m ",
"@.p.p.6 o , @.p.k.} :.p.v.r x v.P [ &.I S S Z ] l.] H ( $.[ T Q y.t.t.a.y.;.;.;.=.-.] ;.=.{ ;.M 1 L *.` *.*.*.*.f.m + $ *.*.L m ",
":.p.k.0 o - @.p.7.p.p.p.^ 6 / Y I 8.h.h.y.O.P K V v n S F Z G ` t.;.;.y.l.;.;.a.=.h.;.;.f.` P ;.: G e.*.2.2.*.2.f.A + $ *.*.` G ",
":.p.v.0 o , @.k.:.k.p.p.g g h.N &.c.&.;.h.g.c.;.4.h.5.F z M @.M.;.;.;.a.g.s.;.-.;.w.c.=.L ` _ *.w G e.d.2.2.q.:.x.A + $ *.e.` G ",
":.p.v.r o , @.p.7.p.@.v.7 J C.S j $.( ;.8.o.l.-.n $.h.$.] 8.k.7.t.g.l.;.;.l.y.( =.=.s.=.*.*.L e.d G q.f.*.e.f.2.x.A + + *.*.` G ",
"7.>.b.i X > ;.8.4.o.;.-.7 g.w.l.$.) / Y D C D C k g D J :.:.p.k.r.s.f.f.f.e.;.e.q.*.x.*.f.G h f.5 | c.;.y.u.;.h.x.G . = ;.{ X.I ",
"p.:.s.q X 3 y.w.;.l.c.Z e l.-.&.8.5.q.k.k.7.@.@.D b U J } J C D ! P I ` *.i.f.j.q.f.:.*.x.E 8 : f o.y.$.4.4.o.-.M.L . * ;.*.&.I ",
"3.4.l.e O < $.&.;.w.g.j n C.-.) ^ ^ D U :.@.} 7.:.U 7.7.v.:.:.7.| ! H A A m m m m L L :.n.:.m . ! u.y.;.l.u.o.$.e.G + : ..( P L ",
"&.w.c.e O < 4.c.c.-.g.Z M u.P Q p.p.U N ^ ^ D ^ } J :.} p.k.k.v.;.s.n.c.d.2.;.e.G B d d y d y p a.u.4.;.h.8.o.-.b.G $ $ ( P I G ",
">.w.a.7 @ 2 -.g.g.&.c.O.t I [ 8.q.N.7.^ 7.k.:.:.@.U } b J } } U *.e.f.f.2.*.2.e.d.*.x.d.[ X.a f m.c.u.h.c.g.y.l.c.M X O [ ;.P H ",
",.w.9.9 % O t 2 t 9 9 i X Z m.c.} p.@.U } p.p.k.v.7.p.D U } @.} E G B G *.e.f.f.f.*.f.*.e.s.q ; 9 2 2 5 5 2 3 9 9 < X = | O.L P ",
"O.s.h.q &   ;   X @ X % & a a.;.v.v.7.} U U } 7.k.:.v.:.:.} :.k.f.*.L G G G G A U _ *.*.j.A O   X     O X   X X X O O > ( ] M H ",
"| l.l.9 % & V P F o.F I S = ( c.:.@.p.v.:.U @.k.7.} v.p.:.C J p.e.f.f.*.*.E *.*._ _ G G E 1 9 ! H S H K H K I S H u . . ! 5.S M ",
";.u.c.9 @ 2 ;.c.u.l.;.j.N.M $ x.;.g.t.a.l.O.S H c.s.;.;.g.g.&.M *.f.f.;.*.;.=.H ] -.c.l.;.l 5 s.c.c.s.c.f.2.n.x.*.m . * *.*.A G ",
";.u.c.9 @ 1 O.w.a.;.c.u.*.*.d M =.l.a.;.r.c...M M y.M.=.{ s.x.;.m E e.f.i.;.;.;.G v P s.h.-.f . c P *.s.x.*.e.*.L m + : ` *.G A ",
"=.w.l.9 @ > o.8.;.;.a.;.;.n.m p m.;.-.;.r.;.;.;.P I &.c.c.;.;.m.*.L A ` h.c.c.h.c.C.H c ;.M.r.-.1 S *.e.x.:.2.*.E A : 8 *.*.E G ",
"-.;.s.9 O 2 -.g.;.c.=.u.V.;.9 m m.=.;.m.r.=.y.m.w.;.{ { ;.c.l.;.x.e.*.E P W ;.c.=.;.;.t.P H l.;.8  .e.e.x.e.2.f.*.L : 8 E *.E *.",
"-.8.u.5 X > -.l.g.a.;.l.E h w *.=.;.c.c.;.l.c.] c.h.=.P L E *.f.;.l.c.;.( P W W B.c.g.c.` M *.E d e.x.2.e.*.*.f.n.L + : *.*.*.*.",
";.t.a.5 . = o.t.;.=.l.g.8 8 G n.c.g.g.;.;.l.l.o.h.;.;.c.*.A M ` ;.y.s.y.a.a.;.Q M t.=.;.V.*.l y A x.x.e.f.*.:.2.n.A + 8 *.*.L *.",
"-.t.l.9 @ > =.t.| =.g.s.w h X.` t.a.;.h.s.y.s.M.=.c.c.a.2.x.E m H o.g.l.;.;.a.N.! G =.;.i.n._ 9 *.x.e.x.f.q.f.:.f.G + 8 *.f.` E ",
"=.a.c.u % 9 ;.l.;.c.;.l.*.E m 8 a ;.V.h.y.l.u.;.s.y.;.;.d.f.d.e.M M L ;.m.s.;.;.m.;.H M c.n.h p x.f.*.f.2.2.x.e.f.L $ * ` e.*.E ",
";.-.n.j * 8 2.e.x.*.*.f.e.f.f.*.9 M *.C.6.i.x.d.e.f.f.e.n.*.*.*.h.u.c m 2.f.f.*.x.*.x.` L *.8 *.l.g.u.u.u.u.y.w.f.G % * *.;.~ ! ",
"g.9.x.p + 1 e.x.2.*.2.f.e.f.f.e.] M h M 6.x.e.*.e.:.*.*.*.E *.e.u.| f.M m f.*.f.*.N.f.*.*.d y N.;.w.;.a.u.u.u.w.x.B + $ e.s.[ P ",
"&.;.c.d * 8 e.2.E *.*.*.e.e.2.e.h.;.W y E 2.2.N.N.L x.N.G *.f.*.d.;.x.e.A L x.f.f.f.f.*.:.: L b.=.;.;.g.u.y.u.w.n.G . + &.;.&.I ",
"8.x.n.9 + 8 e.i.` 2.*.X.e.e.2.2.a.c.c.y l i.*.*.f.x.L m m ` E n.n.a.*.V.2.A *.e.x.*.x.x.m p N.*.;.;.w.u.u.;.;.;.f.M $ * { &.&.Q ",
"*.x.M.p : 8 *.e.e.x.2.*.f.x.*.e.m *.N.G d i.f.e.E G 8 1 p *.L L j.*.f.e.x.*.m 2.*.e.n.2.+ *.f.*.w.u.u.w.;.9.;.w.a.M $ > &.;.;.{ ",
"*.2.d.0 1 8 *.x.f.e.*.*.f.f.:.e.*.*.N.*.8 p p m h m e.N.8 p x.L A *.f.*.f.e.L E e.x.*.8 8 f.*.*.t.;.;.;.w.u.s.a.C.M O % P ;.;.! ",
"f.d.*.: . + A *.*.E E e.e.*.*.e.f.*.*.f.d.e.*.*.n.x.*.e.G h :.e.m f.*.;.e.*.f.m x.e.m + e.e.e.*.u.w.w.;.u.s.w.;.t.z $ = I &.;.[ ",
"*.e.n.h 8 . * * ` m E f.e.*.:.e.*.e.e.*.N.*.:.x.:.f.e.N.B . *.N.L G x.e.*.n.*.m *.e.$ G n.*.f.e.s.a.;.a.h.s.;.[ 9 = > f ;.;.;.! ",
"*.*.f.f.w.P p @ . = v ;.l.-.-.l.e.e.e.*.e.e.e.e.n.` 2.x.8 p *.N.*.A e.f.f.` x.B G * m n.*.*.n.X.;.8.g.x.*.A 8 + 8 m ` ` E *.*.A ",
"m A L *.;.w.;.[ f % . = M -.4.$.*.*.*.*.*.*.2.*.*.*.n.` : m N.` e.B *.*.f.e.x.m + B *.2.f.*.X.n.9.g.6.M 8 * p G *.*.*.E E ` E G ",
"A M m M I [ ;.l.] H f %   % M g.x.e.*.*.x.x.x.e.f.n.G 1 p *.N.e.*.m 2.*.f.:.m . L *.f.x.e.*.2.x.*.l * $ p L :.:.f.L m m B m B G ",
"*.T G G G M M H k [ c.r.n 3 @   m E x.n.e.*.` *.*.A y p n.f.*.e.*.m n.e.m $ 8 2.f.*.x.L y ` x.p . 8 m *.d.e.2.*.` m m m L G G E ",
";.[ Q [ &.I H G ] ..O.$.3.$.M 7 + : h G e.e.*.*.m . 0 *.e.*.x.*.m m m : y 2.e.:.f.*.` ` G d 1 $ B L ` *.:.*.E L G G L ` X.` E ` ",
"&.[ Q &.=.&.] Q H W | O.9.l.l.9.m 8 + $ d ` *.*.d.B m h 8 8 y . * 1 m L f.x.*.n.*.N.` 1 $ 1 m e.*.2.d.2.*.L A B G E X.` L L L L ",
"{ { ! ! Q { P H I I K I P ..=.;.n.*.G 8 . + 8 m *.b.*.L ` f.m $ + m e.x.n.e.` *.m 8 + y E e.e.2.e.*.G A G E *.*.E ` ` ` E ` E ` ",
"P &.&.! P ! ! I O.o.O.[ ! P ] -.*.e.x.:.G y $ . 8 m *.e.` *.h . . m E ` f.:.m 8 + p G *.2.2.X.` L L L ` *._ E L X.E L E ` E E E ",
"*.E E E _ ` E L $...*.*.*.*.X.{ A *.*.L E e.*.h . + : h *.*.f . . l *.*.h : : 0 ` 2.f.e.X.E L G L E E ` X.X.X.X.` X.` E ` ` E ` ",
"*.*.` E *._ *.*.=.$.*.*.;.2.*.*.*.*.L G G *.*.G ` h + . * y 8 + $ w 8 + + y G *.*.2.*.` L L L G ` ` ` ` X.X.` E E ` ` E X.X.` X.",
"*.*.E E E E *.` O.*.*.*.:.*.*.*.e.` E E L L E G B *.*.m : . . + . o : h G L E *.` ` E G L E X.` X.X.X.X.X.` E E E ` ` E X.X.` *.",
"` *.*.*.E E E E [  . .X.*.*.*.*.*.` *.*.E G G G *.` L *.*.E p + * m *.L *.:.*.m G L L ` ` X.*.*.` ` X.X.*.X.` ` E X.` E X.` E X.",
"` *.*.` E E ` E ` ` _ *.*. .*.*.*.E ` ` L E *.E L E ` *.X.*.` E 2.*.*.*.E m m G G E X.*.*.` ` E ` X.` X.*.*.X.X.E X.` E X.` E ` ",
"` ` ` *.*.*.*.*.` ` *.*.*.*.*.*.L L *.*.*.*.*.*.L L L L E *.*.X.` 2.` m m E L A E ` X.*.` E E ` X.X.X.X.X.*.X.X.E X.` ` *.` E X.",
"*.*.` ` *.*.*.*.*.*.*.*.*.*.*.:.` *.*.:.*.*.*.*.:.*.L L G E ` ` *.A m G ` *.*.e.` E ` ` X.` ` *.*.X.X.X.X.*.*.*.` *.X.X.*.X.` ` ",
"e.*.` E _ ` E E *.*.*.*.*.*.*.2.f.*.*.*.*.*.:.e.*.*._ *.*.*.` E G E ` *.e.*.*.E *.` E X.*.*.X.X.*.X.X.X.X.*.*.*.*.2.*.*.*.X.E ` "
};
