/* XPM */
static char *_a11b99de4064491830b7b26256730808c2xT1jFEzUDz6iP[] = {
/* columns rows colors chars-per-pixel */
"64 64 141 2 ",
"   c #010201",
".  c #050A04",
"X  c #0A0B06",
"o  c #0C0C0B",
"O  c #0D120C",
"+  c #11120D",
"@  c #141413",
"#  c #151A14",
"$  c #1A1B16",
"%  c #1C1C1C",
"&  c #1D211B",
"*  c #22231E",
"=  c #242423",
"-  c #262A24",
";  c #292A25",
":  c #2C2C2B",
">  c #2E312B",
",  c #32332E",
"<  c #343433",
"1  c #373933",
"2  c #3A3B36",
"3  c #3C3C3B",
"4  c #3F403B",
"5  c #41423D",
"6  c #444443",
"7  c #474844",
"8  c #4A4B46",
"9  c #4C4C4B",
"0  c #4F504B",
"q  c #51524D",
"w  c #545453",
"e  c #565953",
"r  c #5A5B56",
"t  c #5C5D5B",
"y  c #5F615C",
"u  c #62635E",
"i  c #646463",
"p  c #676863",
"a  c #696B65",
"s  c #6C6C6B",
"d  c #6F716B",
"f  c #71726E",
"g  c #747473",
"h  c #777873",
"j  c #7A7B76",
"k  c #7C7C7B",
"l  c #7F817C",
"z  c #81827D",
"x  c #848483",
"c  c #878983",
"v  c #898A86",
"b  c #8C8C8B",
"n  c #8E918C",
"m  c #92938E",
"M  c #949493",
"N  c #969994",
"B  c #999B96",
"V  c #9C9C9B",
"C  c #9EA19C",
"Z  c #A1A39E",
"A  c #A4A4A3",
"S  c #A6A9A4",
"D  c #A9ABA6",
"F  c #A9A9A9",
"G  c #ABABAB",
"H  c #ACADA8",
"J  c #ADAEA9",
"K  c #AEAFAA",
"L  c #AEAEAE",
"P  c #ABACAA",
"I  c #AFB0AB",
"U  c #ADB2AC",
"Y  c #B0B1AC",
"T  c #B1B2AD",
"R  c #B0B0AE",
"E  c #B2B3AE",
"W  c #B3B4AF",
"Q  c #B1B3AE",
"!  c #B1B1B1",
"~  c #B3B3B3",
"^  c #B4B5B0",
"/  c #B5B6B1",
"(  c #B6B7B2",
")  c #B4B4B4",
"_  c #B7B7B7",
"`  c #B3B4B2",
"'  c #B7B8B3",
"]  c #B5BAB4",
"[  c #B8B9B4",
"{  c #B9BAB5",
"}  c #BABBB6",
"|  c #BBBCB7",
" . c #B9BBB6",
".. c gray72",
"X. c #BBBBB9",
"o. c gray73",
"O. c #BCBDB8",
"+. c #BDBEB9",
"@. c #BEBFBA",
"#. c #BFBFBF",
"$. c #BBBDBA",
"%. c #BDC2BC",
"&. c #C1C2BD",
"*. c #C2C3BE",
"=. c #C3C4BF",
"-. c #C1C3BE",
";. c #C1C1C1",
":. c #C4C5C0",
">. c #C5C6C1",
",. c #C6C7C2",
"<. c #C5C5C5",
"1. c gray78",
"2. c #C3C5C2",
"3. c #C7C8C3",
"4. c #C5CAC4",
"5. c #C9C9C7",
"6. c #C9CBC6",
"7. c #CACACA",
"8. c #CCCDC8",
"9. c #CDCDCD",
"0. c gray80",
"q. c #CCCDCA",
"w. c #CFD0CB",
"e. c #CDD1CC",
"r. c #D1D2CD",
"t. c #D4D5D3",
"y. c #D6DAD4",
"u. c #DBDCD7",
"i. c #D9DBD6",
"p. c gray86",
"a. c #DBDBDA",
"s. c #DDE1DB",
"d. c #E3E4DF",
"f. c #E2E3E2",
"g. c #E7E9E4",
"h. c #E9EAE5",
"j. c #EBECE9",
"k. c #ECF1EB",
"l. c #F3F4EF",
"z. c #F3F3F3",
"x. c #F8F9F4",
/* pixels */
"^ H H W ' ^ E W Z ^ W D } E S o.A B L A Z L A ) Z 7.! A V F L A H Z B m D ^ V A c ' N z c +.V D S N } b b +.N H } H Z N n v N A ",
"=.' E ^ } ^ W ^ } W E H H j ^ M N ! b V A V ) M V x A F ) v B ! E +.E H D N N S H V Z N H C q I m B m C c S c c m m m N m m N D ",
"H Z Z H E H D D +.Z Z B j X w o t t 8 ) V ; j o.t   k x n % 9 V c E H ,.H y r t V + k u q n t p +.N 7 N b A N Z z c N C B N N A ",
"E H H } *.} H S E D ^ *.Z 2 5 = = % s #.g   = p.i   ! A V   w 1.H 3.m D b 6 j m I   z 2 X t , 6 H 6   6 k N c N k c N Z Z N N Z ",
"*.W H ^ | ^ H S N H E ' Z f X 6 % < 9.g = 1 o z x % 1.A A = s ;.m *.A } m 8 N ,.c + s % 5 4   B i @ = $ j H m z j z b B C V C S ",
"+.D V S ^ } } } } w.+.H V V + g 6 8 ;.< = M % ; i @ d 9 s = 6 t 3 m E =.c , q z q   < X 9 d + j 1 , j   8 V N h N m N V Z V V V ",
"+.E I +.,.+.H Z ^ ,.E H ^ 8.c 5.E B ) M V 9.M v V c M v A M M v Z ,.8.} N j v } | z N z c u.A f j m E e f Z } A N b c N Z Z N M ",
"H S H ' I c w , < < = = : , , < < w ; 6 5 % 9 3 1 w 6 6 8 8 7 6 7 5 3 , 8 e 6 q 9 u w u w a 9 f w w 9 u i q w q a t u k N A C N ",
"o.o.A #.1.v     i 6 3 6 6 9 w 9 6 e e 3 < 8 6 : 6 2 1 8 < : 5 @ o   < 8 = : 3 3 = = = = < 3 < % ; < < o = 6 % = : o   1 V M G F ",
"9.#.A #.;.v X @ M M V V v M A A D m Z +.' I %.8.Z H D E D ^ } s     x 7.1.9.1.) M x b ! 7.1.#.;.) V ! 7.;.L A R V 7   < A A G M ",
"9.o.V ;.1.x   % j x B M x M Z M k g c N N H H z N E C b m ^ } p X % v #.L F V M g d j B ! ..) o.F A F A c b F c #.w   = Z A L M ",
"1.! A t.t.k   @ A Z A A A #.#.A S V D H A ^ m < f A H D H ' A w     6 t t x M L ..;.o.A B M b k M ! A M b A ) b B 6   = M M F A ",
"1.! V 9.9.k   % A M M n n A L M } m V } C d q 2 t V Z c 0 ; 3 6 2 2 t w 3 6 6 w s p i w 3 : < 3 w s s M ;.A v B A 8 X , M v Z Z ",
"#.F b L L s   % A V A V x b A F N Z S B j r t h u 6 @ 6 N H S M M B L V B A B A x p s x x s j A t t s g A ) b V o.9   = B M A V ",
"L A v V V s   @ A b M B x z M F c ^ N u y u t h 6 c Z %.} z z N L L L M V ! A o.#.F V V V M v x M t v w 6 F A b L 3   = B M A V ",
"F F M F G j   @ 1.B M F F A G ! ^ A i w j q : t j N z c B c c B F G F M A ) V G A #.G k b $.A t o.; M x 3 M V B B 3   < V b V Z ",
"o.R v A 1.s o % F 1.V j p w 8 3 f , t %.} j a k A N c c N S A M B A F F A V V V M M x z k v b t b f q I 2 g *.c D 6   : c N N D ",
"o.) M A #.t   % z.v 6 j < x g ) r j H ^ S ^ D f N c v C N h g v B B B M M b v x v v x x k x k 0 b c r m j 7 Z m Z 3   < c n N ' ",
"1.1.F o.7.i   = B 6 M A M 1.v f S A D A A } I z c z v V m j j M V M b v b v z g x z v v x b x p v h y N h , N m N <   , f d j ' ",
"7.7.! 9.f.g o : 7 f ;.v 1.2.j w Z z k m Z S W *.V V b j z N N x N b v x x x x z v j b b v B M x b e s S ; w Z z N >   * 9 6 q S ",
";.#.A 0.j.g   % : ;.k g 1.;.w M k S A k j V H A ^ I m f f c c g j k x x k z x v g t x v x B x v c y N g $ c V k m ;   + < 1 5 V ",
"7.#.A 7.j.g   @   t.Z s z.a.s i } =.m r f A D m E Z N N c g g c s j x x x x b B 5 : g x c B z n c b D = i N c c m -   o 3 w q S ",
"9.;.A 7.f.s   = % V f.t ;.7.o.t D c r u N A D ,.D V N N N v c b g g k x v b m M w < k v x B k B c N g ; Z c z c m : + @ w z s H ",
"1.$.A ;.a.p   < 2 8 t.! g #.1.A t c V Z N s a Z ' I m j v D N p s s g j x c x k A g A M k v s M m l : a Z k N z N , % & a C j D ",
";.o.A 1.f.s o : M @ V t.1.) ;.9.H Z N Z I H n f a V z S z j v c s s t g A B v A v g s t t g j t w 2 g M M M j b b < @ < w x A V ",
"#.o.A ;.t.t   : ! x 1.7.! B 1.;.r.%.Z b m D E H j f h a k b b x g b g 9 j b x p r t x B k p d k 3 w z x x v x b A =   w x M L 1.",
"#.o.A ;.7.w   < t.#.x p v M L b C Z N j g z k a c j A e u s f z x f s w x i t w M s t p d j j s : v B v b b M M B <   < g A $...",
"#.#.F 1.t.t   < 1.p.A i t 2 6 k w g b m Z H V j m V } f t t i f d w s g B i i i t g x g s x g 3 = M M v B x b x M 9 @ % w M ! ! ",
"7.;.F 9.f.s   = v V L x g 9 < 9.8.w.*.D A D m s v H c m j z k u t d b g x x n s w u g k x M s = 8 M x v A x c b k < o 5 g x A a.",
"9.1.L 9.f.p   @         o ; @ ) 8.+.S B A ^ ^ H f D c I c j l s j g j j p g x k A s t g x s <     @     % o + = : @ o 2 k M F t.",
"7.;.L 9.p.t   % 8 6 8 6 % < 6 B y.,.^ E E D Z A f N D E c a f x V d w v y g g b x j B G g = @ % % + @ o @ = % = % = o = x o.) ! ",
"#.#.L 0.a.t   < t.t.o.i.o.9.A w W Z C D A N V E b s S n C c h m N b p b t F B z v k k d 9 9 g b x s b z k V x k j 6 @ 6 F #.L ;.",
"t.#.L t.t.w o 6 7.f.) A t.1.t.t g D } =.V ^ Z D E z h S A N m 9 c x k p w t k V A v B j % B b B B B M M M M M M B < o 8 A A 1.L ",
"#.! ! p.a.w   < t.A 1.F 9.a.;.A g +.| +.B D H ^ Z V j b E H N p i s g x n x s w i i j w 8 A b M n M M M M M M B B < o 9 A A 1.! ",
"o.! ) f.a.w   2 ) M a.;.! 1.7.a.3 D Z A N m N N V ,.b g V Z V Z s i t s x B M v z b b 6 p Z v M b M M M M M M B V < o 9 F A 1.! ",
";.) L 9.2.6   6 ! 1.9.7.) ;.f.A 1 H H } %.D H N c } S N b g c C b x g i r i g v s k x 9 w M B A B M M M M B B M B : X 9 F A ;.! ",
";.! A ;.) 2   6 f.t.o.7.9.a...t k ,.=.%.8.} &.S c m H 8.N u s u s x M B v j j j p j v v 2 c B B Z B M M B V B M M =   9 F V #.! ",
";.) L t.7.8   6 f.F t.9.#.1.8 s 8.3.r.^ } ^ ,.%.8.B B 3.C g z t t i g v B A Z V V B n A ; s b B x x b M B B M M M =   9 F B o.L ",
";.! L a.a.t o 6 7.! f.7.) ! < M 5.N d.w.3.8.r.y.g.*.N Z N z m b b j p i s j x x v k s x 9 y g v 6 i v V M b b M M =   9 F B o.! ",
"o.F V 7.9.w o 6 9.j.o.o.t.p.x M f 1 8.y.5.5.} } D 8.A N C z z N B A A A V M M M M B M F R s 5 3 o 6 x A M x v B M =   w L V o.! ",
"^ S H =.u.w o : u.8.5.r.r.*.*.8.g.j u g.,.N A 8.^ =.g.E c A m z b B M M V M M F M A v M M v 6 p w c B m m m c v z =   t I A H ' ",
"S N A w.f.5   r y.5.,.r.8.*.,.r.8.3.s 9 l g.i.=.j.H r.y.H Z c g b B M M B M b V A b n Z Z t t R b N m N C N m Z v ;   q Z V H +.",
"A V Z 3.f.2   r r.5.8.y.r.,.*.3.r.d.g.S 0 Z y.^ =.g.y.C S N f A M A V M B M v M B v V k j < 6 0 n N N m f 5 q N c >   q Z Z I } ",
"H H Z } g.q   0 8.=.,.r.y.8.*.+.8.D 5.g.g a y.5.%.*.5.N i z D H A ..R V B B b M B V Z j w ; 6 2 j m N c w = 2 k f ;   t H D E E ",
"E C Z 5.j.q O u i.5.*.3.w.8.,.+.8.x.+.8.Z q *.j.j.i.i , t 2 = g B o...V B B M B M k w g 2 % t V v N c f s d f l q %   r A D W ^ ",
"^ b A u.u.:   r j.d.y.r.8.5.=.*.^ u.+.y.A = a s 6 0 f Z V c f % s A ! B M M M M m g @ 5 3 9 s g k V v u u j j f 2 +   8 m B ^ +.",
"^ b D r.8.9 & , m I w.i.r.,.*.*.d.H *.d.l.*.^ g W j.| b N Z m 8 : k A M b M M M V V < < i g k 9 y m N d u u r 9 = o   q b N W +.",
"D N Y ^ r.H j *   5 V r.y.5.5.8.H r.r.w Z y.+.j.y.E c V A H A <   i V B M M M M v m 6 3 p ; j A u c m b B m u < @ o @ i N V E ' ",
"S I D H | ^ C C y #   2 S s.s.t.| 1.A g x 1.s.1.t.B V A F B B 6 @ 2 B B Z v b V B 6 6 9 g r g F M p u b m w % + : r b V V A E ' ",
"v B B B S C N C j.D e # . > c y.a.#.! 7.f.a.7.;.L M ! ) #.) ! 6   9 F x M A A v < 9 j x A A x w c z a 2 X   ; w z n m c z m H | ",
"n C C N C B B D U y.g.^ e & - 7 M 9.f.1.) 9.t.#.A V L A F L ! < @ > z v L V s 3 9 B R b s M V b j 5 X o 2 y r 6 b b z g k N ^ ,.",
"D W S V C V B D A H %.i.k.e.d @ ; 2 s L 7.) A F ;.) ) ! ..! #.3 o 0 ;.! x 6 6 s V b p M B B i 3   + 6 h f w u n i g c N Z E +.,.",
"U U C n V B n N v U :.| ' :.e.t.s : @ w F t.9.7.#.R F #.1.A ! < o t L t 3 9 j n A t @ s j 9 @   r , : u b c g f z N E *.,.+.} | ",
"S S M n C V n M S S C C ] e.y.q.a.0.b 2 ; s ) t.7.#.A ! A k A < = = 8 2 j A A c V p   @     6 s m z a r a c m b } +.=.,.+.^ ' *.",
"A H C C S C B C C U ' I C C H ] q.9.t.o.s % < g F 1.#.#.A k o.8 % : z B ..A M V g w   $ 6 0 B b m V V m m Z E E 5.+.^ ' ] ^ +.3.",
"C U U D D C B S S S H ] ] H C V ) ;.9.i.j.a.k $ % x ! 1.F k ! = @ 9 A v M M g 8   ; 1 s B g ) V b b A ,.5.^ ^ 5.3.^ I | ,.,.+.+.",
"U U H S C Z S U H D D ^ %.%.' H V V A | t.s.y.8.v & - g n ] C > % t M n d 8 > # i l C C n x n C C D ' | ] ^ ^ ^ 4.| ] %.%.] | 4.",
"U U H S C S U ^ C C C S U ^ ] | ] U A C S ] 6.y.w.U h & @ v H 1   6 k e O O e C M A I D V N A ^ ^ ] %.3.6.4.%.| 4.%.%.%.%.| %.:.",
"I U S Z C S U ] U U U S S H ] %.W ] ] W S S U ] y.e.s.e.g * O O # O X ; a C Z c C A S D H U %.4.3.:.:.q.t.t.6.%.%.%.%.4.:.%.%.=.",
"S S S A A D U ] %.| ^ U H U ] | U %.q.q.%.U S S U ] | q.y.W y & @ 8 v S U U U U C C A U | :.%.| 4.:.:.4.q.q.:.%.%.%.%.4.:.%.%.%.",
"C S D H U U ] ] U H S H ] | %.] 4.4.%.| ' ] | %.v 6.q.C U i.y.%.B H %.q.e.4.^ C %.] ^ ] =.4.%.U %.4.q.8.4.%.:.4.| %.%.%.%.%.%.| ",
"S H U U ^ ] ] %.] U U ' %.4.| U 4.%.^ U ' %.:.:.f.] B U e.4.U ] 4.6.4.%.] U ] | 6.%.W U ] %.:.=.4.e.e.e.4.:.6.e.%.%.:.%.%.:.=.%.",
"U U U H H U | :.%.%.%.%.:.%.] U U U ] | %.=.%.] ] 8.6.U M V ] 4.] U D U ] %.| ] ] U U U ' %.6.w.6.6.6.6.4.4.8.e.:.6.4.%.%.6.6.:.",
"U H S C C D ] :.A H ] ] | ] | %.] ] ] ] ] | %.%.e.6.e.4.^ ^ ^ A U U W ] U U ^ ] U ] %.4.:.%.%.%.4.%.] ] %.3.4.%.4.e.q.%.=.e.e.6."
};
