/* XPM */
static char *_aff0aca2e50440cd374f68a00331a39Yxg4a5rP9WT6OxkP[] = {
/* columns rows colors chars-per-pixel */
"50 50 42 1 ",
"  c #47BCD9",
". c #48BCD9",
"X c #52BFDB",
"o c #55C1DC",
"O c #5BC2DE",
"+ c #61C3DF",
"@ c #64C5E0",
"# c #6CC4E1",
"$ c #6CC9E2",
"% c #73C6E2",
"& c #7CC7E4",
"* c #74CBE4",
"= c #7BCBE5",
"- c #7FD1E7",
"; c #81C7E5",
": c #8AC7E6",
"> c #82C9E6",
", c #8CC9E7",
"< c #8CCCE8",
"1 c #93CCE9",
"2 c #98CFEB",
"3 c #84D1E9",
"4 c #8BD4EA",
"5 c #93D3EC",
"6 c #9CD2ED",
"7 c #96D8ED",
"8 c #9CDAEF",
"9 c #A2D5EF",
"0 c #A4D7F0",
"q c #A6DAF1",
"w c #ABDBF2",
"e c #B3DEF4",
"r c #ACE0F3",
"t c #B5E1F5",
"y c #BBE3F6",
"u c #BFE5F8",
"i c #C0E4F7",
"p c #C2E6F9",
"a c #C5E9FA",
"s c #CCEBFB",
"d c #D1EEFD",
"f c #D6F1FE",
/* pixels */
"................................... ......... ....",
"..... .............. ... .. ... ......... ........",
".. ................................... ....... ...",
"...... ................ .... ... ......... ..... .",
"....... .......................... .. .... .......",
". .......... .. ... ..............................",
".... ................... . .... .. ........... ...",
"........ ............ .................. ........ ",
"...... .. ..........    .       .. .... . .... ...",
" ............. ....     ..ooo   ..................",
".. . ...... . .. . .  o X+**+o  ..  ..............",
" .............. ..    oO+5qr7*o     . ...... .....",
".......  ..........   .+8uffsr*o    ... ...... . .",
"... . .... . ... ...  o4rtypaurOo   ..... ........",
"................  .oo +8ewrtusu*o ............  ..",
" ..... .. .....    o+O=9q0rrrus7o... .... ....  ..",
"....... ....     o+-73799690weawOoo        o    ..",
". .........      o4udpye929wwwyyOo              ..",
"......... ..    o*rypase09eyywet+o    o       o  .",
"..... ......    o4utepspewepitwqOo              ..",
"..... ......    O7eweeepteyuaaq4Ooo . ..        . ",
" ......... .  oo*8qwweiaytetust7+o  ....        ..",
"...... .....  oO499qeaddaew0rsat4+....          ..",
".. ........  o@7tyeypasssaewyayyr4O...     o    ..",
".. .....     O4ysauppuuissieyyeepr$     ... ..... ",
"........   oo3wuadsueeweepayeewety3o    ..... ....",
" ..... . o@=-7ttiasuwqwweyaiw0wwwy7Ooo  ...... ...",
"........o@8twwqwwepiqwwwwwyi09wwrt7$o.  . .. .....",
"........X3ruuw0qwwee000wwwei92wwyur87*O...... ....",
".... ...O9ypae00wwee9200wwee929euauuur$... ...... ",
"........O1weuew0ww000120wweew20yuaauuu4. .........",
"........X>6weww00622211200ww00wetypyyat+.... .... ",
"..... ...#1600w95,,1,1220090qwwwwwyeepa3X..... . .",
".........X%><56<>,,,,1229222000q0weeesaw-o........",
"....... ..O#%&>%+;;,:11221115166000weapa8O   .....",
".. ........XXO+oO#;,:,1:1,,:&&<1111weewet@........",
".. ...........X..O%&&;;;;&&%O@%%&&;1002wqO....... ",
"................. XX+*%%%#Oo. XXX++%:1193oo... ...",
"...... ...........X.XOXOXX....X.XXX+@#&&@o........",
" ..................       .. .  .... XX+.  ..... .",
". .... ...... .... .... . .... .......X...........",
"......................................  ..........",
"............. .... ........  ......... ......... .",
".... ...... ........ .............................",
"...... .. ............ . ...... ... ....... ......",
". .............  ..........  ........ ........... ",
"......................... .... . .................",
".. ... .... ........ ................... .... ....",
". .. ............... .............. ...... ...... ",
"....... .. . .... .... ... .... ....... .... ....."
};
